{"glyphs":{"0":{"ha":1010,"x_min":76,"x_max":933,"o":"m 933 754 l 933 110 q 824 0 933 0 l 186 0 q 76 110 76 0 l 76 754 q 186 864 76 864 l 824 864 q 933 754 933 864 m 581 125 l 581 739 q 572 774 581 767 q 538 782 564 782 l 474 782 q 439 774 447 782 q 431 739 431 767 l 431 125 q 439 90 431 97 q 474 82 447 82 l 538 82 q 572 90 564 82 q 581 125 581 97 z "},"1":{"ha":633,"x_min":14,"x_max":557,"o":"m 557 864 l 557 0 l 190 0 l 190 782 l 14 782 l 14 864 l 557 864 z "},"2":{"ha":953,"x_min":56,"x_max":911,"o":"m 417 739 l 417 568 l 60 568 l 60 754 q 169 864 60 864 l 797 864 q 907 754 907 864 l 907 599 q 888 452 907 500 q 815 357 869 404 l 507 82 l 911 82 l 911 0 l 56 0 l 56 83 l 492 478 q 544 537 532 514 q 557 597 557 560 l 557 739 q 549 774 557 767 q 514 782 542 782 l 460 782 q 425 774 433 782 q 417 739 417 767 z "},"3":{"ha":982,"x_min":56,"x_max":913,"o":"m 410 739 l 410 582 l 56 582 l 56 754 q 165 864 56 864 l 803 864 q 913 754 913 864 l 913 553 q 813 443 913 447 q 913 333 913 436 l 913 110 q 803 0 913 0 l 165 0 q 56 110 56 0 l 56 281 l 410 281 l 410 125 q 417 90 410 97 q 453 82 425 82 l 517 82 q 552 90 544 82 q 560 125 560 97 l 560 353 q 552 388 560 381 q 517 396 544 396 l 393 396 l 393 479 l 517 479 q 552 487 544 479 q 560 522 560 494 l 560 739 q 552 774 560 767 q 517 782 544 782 l 453 782 q 417 774 425 782 q 410 739 410 767 z "},"4":{"ha":1015,"x_min":28,"x_max":1001,"o":"m 1001 222 l 1001 140 l 881 140 l 881 0 l 547 0 l 547 140 l 28 140 l 28 281 l 389 864 l 747 864 l 367 222 l 547 222 l 547 456 l 881 456 l 881 222 l 1001 222 z "},"5":{"ha":964,"x_min":69,"x_max":908,"o":"m 453 526 l 799 526 q 908 417 908 526 l 908 110 q 799 0 908 0 l 179 0 q 69 110 69 0 l 69 303 l 422 303 l 422 125 q 431 90 422 97 q 465 82 439 82 l 513 82 q 547 90 539 82 q 556 125 556 97 l 556 401 q 547 436 556 428 q 513 444 539 444 l 86 444 l 86 864 l 889 864 l 889 782 l 453 782 l 453 526 z "},"6":{"ha":982,"x_min":76,"x_max":913,"o":"m 560 125 l 560 379 q 552 414 560 406 q 517 422 544 422 l 431 422 l 431 125 q 439 90 431 97 q 474 82 447 82 l 517 82 q 552 90 544 82 q 560 125 560 97 m 431 504 l 803 504 q 913 394 913 504 l 913 110 q 803 0 913 0 l 186 0 q 76 110 76 0 l 76 754 q 186 864 76 864 l 783 864 q 893 754 893 864 l 893 600 l 540 600 l 540 739 q 533 774 540 767 q 497 782 525 782 l 474 782 q 439 774 447 782 q 431 739 431 767 l 431 504 z "},"7":{"ha":832,"x_min":21,"x_max":818,"o":"m 818 864 l 818 736 l 456 0 l 82 0 l 481 782 l 21 782 l 21 864 l 818 864 z "},"8":{"ha":976,"x_min":69,"x_max":907,"o":"m 179 864 l 797 864 q 907 754 907 864 l 907 547 q 807 438 907 442 q 907 328 907 431 l 907 110 q 797 0 907 0 l 179 0 q 69 110 69 0 l 69 328 q 169 438 69 431 q 69 547 69 442 l 69 754 q 179 864 69 864 m 424 350 l 424 125 q 431 90 424 97 q 467 82 439 82 l 511 82 q 547 90 539 82 q 554 125 554 97 l 554 350 q 547 385 554 378 q 511 393 539 393 l 467 393 q 431 385 439 393 q 424 350 424 378 m 554 518 l 554 739 q 547 774 554 767 q 511 782 539 782 l 467 782 q 431 774 439 782 q 424 739 424 767 l 424 518 q 431 483 424 492 q 467 475 439 475 l 511 475 q 547 483 539 475 q 554 518 554 492 z "},"9":{"ha":982,"x_min":69,"x_max":906,"o":"m 465 442 l 551 442 l 551 739 q 544 774 551 767 q 508 782 536 782 l 465 782 q 431 774 439 782 q 422 739 422 767 l 422 485 q 431 450 422 458 q 465 442 439 442 m 179 864 l 796 864 q 906 754 906 864 l 906 110 q 796 0 906 0 l 196 0 q 86 110 86 0 l 86 264 l 439 264 l 439 125 q 447 90 439 97 q 482 82 456 82 l 508 82 q 544 90 536 82 q 551 125 551 97 l 551 360 l 179 360 q 69 469 69 360 l 69 754 q 179 864 69 864 z "},"\u0000":{"ha":0,"x_min":0,"x_max":0,"o":""},"\r":{"ha":0,"x_min":0,"x_max":0,"o":""}," ":{"ha":381,"x_min":0,"x_max":0,"o":""},"!":{"ha":547,"x_min":81,"x_max":467,"o":"m 81 864 l 467 864 l 408 300 l 140 300 l 81 864 m 97 0 l 97 207 l 450 207 l 450 0 l 97 0 z "},"\"":{"ha":833,"x_min":69,"x_max":764,"o":"m 69 864 l 368 864 l 368 492 l 69 492 l 69 864 m 465 864 l 764 864 l 764 492 l 465 492 l 465 864 z "},"#":{"ha":1322,"x_min":56,"x_max":1267,"o":"m 729 339 l 789 524 l 593 524 l 533 339 l 729 339 m 1267 524 l 1074 524 l 1013 339 l 1174 339 l 1174 192 l 964 192 l 901 0 l 618 0 l 681 192 l 485 192 l 422 0 l 136 0 l 199 192 l 56 192 l 56 339 l 247 339 l 308 524 l 149 524 l 149 672 l 358 672 l 421 864 l 704 864 l 642 672 l 838 672 l 900 864 l 1186 864 l 1124 672 l 1267 672 l 1267 524 z "},"$":{"ha":965,"x_min":58,"x_max":903,"o":"m 444 476 l 793 476 q 903 367 903 476 l 903 110 q 793 0 903 0 l 651 0 l 651 -125 l 308 -125 l 308 0 l 172 0 q 63 110 63 0 l 63 271 l 406 271 l 406 125 q 414 90 406 97 q 449 82 422 82 l 517 82 q 552 90 544 82 q 560 125 560 97 l 560 351 q 552 386 560 378 q 517 394 544 394 l 168 394 q 58 504 58 394 l 58 754 q 168 864 58 864 l 308 864 l 308 992 l 651 992 l 651 864 l 789 864 q 899 754 899 864 l 899 593 l 556 593 l 556 739 q 547 774 556 767 q 513 782 539 782 l 444 782 q 409 774 417 782 q 401 739 401 767 l 401 519 q 409 484 401 492 q 444 476 417 476 z "},"%":{"ha":1756,"x_min":42,"x_max":1714,"o":"m 1714 451 l 1714 69 q 1647 3 1714 3 l 1153 3 q 1086 69 1086 3 l 1086 451 q 1153 518 1086 518 l 1647 518 q 1714 451 1714 518 m 1460 92 l 1460 429 q 1455 449 1460 444 q 1433 454 1450 454 l 1367 454 q 1347 449 1351 454 q 1342 429 1342 444 l 1342 92 q 1347 72 1342 76 q 1367 67 1351 67 l 1433 67 q 1455 72 1450 67 q 1460 92 1460 76 m 1079 864 l 1328 864 l 672 0 l 428 0 l 1079 864 m 669 797 l 669 415 q 603 349 669 349 l 108 349 q 42 415 42 349 l 42 797 q 108 864 42 864 l 603 864 q 669 797 669 864 m 415 438 l 415 775 q 410 795 415 790 q 389 800 406 800 l 322 800 q 302 795 307 800 q 297 775 297 790 l 297 438 q 302 417 297 422 q 322 413 307 413 l 389 413 q 410 417 406 413 q 415 438 415 422 z "},"&":{"ha":1239,"x_min":63,"x_max":1219,"o":"m 439 82 l 668 82 l 418 294 q 396 254 396 281 l 396 125 q 403 90 396 97 q 439 82 411 82 m 476 739 l 476 628 q 490 567 476 592 q 543 508 504 543 q 602 538 585 524 q 619 574 619 551 l 619 739 q 611 774 619 767 q 576 782 603 782 l 519 782 q 484 774 492 782 q 476 739 476 767 m 172 0 q 63 110 63 0 l 63 231 q 101 332 63 297 q 247 404 139 367 l 278 415 q 170 524 197 485 q 143 624 143 563 l 143 754 q 253 864 143 864 l 843 864 q 953 754 953 864 l 953 613 q 902 499 953 539 q 736 415 851 458 l 678 393 l 913 196 l 913 338 l 1183 338 l 1183 138 q 1124 18 1183 53 l 1219 -62 l 838 -62 l 764 0 l 172 0 z "},"'":{"ha":438,"x_min":69,"x_max":368,"o":"m 69 864 l 368 864 l 368 492 l 69 492 l 69 864 z "},"(":{"ha":547,"x_min":69,"x_max":632,"o":"m 69 122 l 69 571 q 203 885 69 772 q 571 999 336 999 l 632 999 l 632 917 l 614 917 q 422 638 422 917 l 422 56 q 614 -224 422 -224 l 632 -224 l 632 -306 l 571 -306 q 203 -192 336 -306 q 69 122 69 -79 z "},")":{"ha":547,"x_min":-85,"x_max":478,"o":"m 478 571 l 478 122 q 344 -192 478 -79 q -24 -306 211 -306 l -85 -306 l -85 -224 l -67 -224 q 125 56 125 -224 l 125 638 q -67 917 125 917 l -85 917 l -85 999 l -24 999 q 344 885 211 999 q 478 571 478 772 z "},"*":{"ha":864,"x_min":67,"x_max":803,"o":"m 318 929 l 560 929 l 560 847 q 528 706 560 782 q 649 772 588 751 l 725 797 l 803 567 l 724 542 q 640 528 678 528 q 579 529 601 528 q 681 435 643 485 l 728 369 l 532 225 l 483 292 q 428 426 444 347 q 368 300 406 353 l 321 235 l 124 376 l 172 443 q 283 538 211 496 q 144 556 197 538 l 67 581 l 142 811 l 219 786 q 344 711 279 767 q 318 847 318 783 l 318 929 z "},"+":{"ha":1057,"x_min":69,"x_max":988,"o":"m 988 528 l 988 332 l 689 332 l 689 138 l 369 138 l 369 332 l 69 332 l 69 528 l 369 528 l 369 722 l 689 722 l 689 528 l 988 528 z "},",":{"ha":499,"x_min":76,"x_max":429,"o":"m 76 -196 l 76 235 l 429 235 l 429 100 l 193 -196 l 76 -196 z "},"-":{"ha":625,"x_min":76,"x_max":549,"o":"m 76 336 l 76 418 l 549 418 l 549 336 l 76 336 z "},".":{"ha":506,"x_min":76,"x_max":429,"o":"m 76 0 l 76 207 l 429 207 l 429 0 l 76 0 z "},"/":{"ha":756,"x_min":-42,"x_max":839,"o":"m 557 971 l 839 971 l 240 -189 l -42 -189 l 557 971 z "},":":{"ha":506,"x_min":76,"x_max":429,"o":"m 76 467 l 76 674 l 429 674 l 429 467 l 76 467 m 76 0 l 76 207 l 429 207 l 429 0 l 76 0 z "},";":{"ha":499,"x_min":76,"x_max":429,"o":"m 76 467 l 76 674 l 429 674 l 429 467 l 76 467 m 76 -196 l 76 235 l 429 235 l 429 100 l 193 -196 l 76 -196 z "},"<":{"ha":1029,"x_min":42,"x_max":988,"o":"m 988 529 l 315 435 l 988 333 l 988 124 l 42 339 l 42 536 l 988 736 l 988 529 z "},"=":{"ha":1057,"x_min":69,"x_max":988,"o":"m 69 486 l 69 682 l 988 682 l 988 486 l 69 486 m 69 178 l 69 374 l 988 374 l 988 178 l 69 178 z "},">":{"ha":1029,"x_min":42,"x_max":988,"o":"m 714 435 l 42 529 l 42 736 l 988 536 l 988 339 l 42 124 l 42 333 l 714 435 z "},"?":{"ha":896,"x_min":28,"x_max":868,"o":"m 253 0 l 253 207 l 606 207 l 606 0 l 253 0 m 138 864 l 758 864 q 868 754 868 864 l 868 506 q 758 396 868 396 l 590 396 l 575 300 l 292 300 l 265 492 l 486 492 q 522 500 514 492 q 529 535 529 508 l 529 739 q 522 774 529 767 q 486 782 514 782 l 410 782 q 375 774 383 782 q 367 739 367 767 l 367 588 l 28 588 l 28 754 q 138 864 28 864 z "},"@":{"ha":1649,"x_min":83,"x_max":1572,"o":"m 571 592 l 828 592 q 889 564 874 592 l 889 592 l 1156 592 l 1156 164 l 1274 164 q 1300 169 1294 164 q 1306 196 1306 175 l 1306 668 q 1300 694 1306 689 q 1274 700 1294 700 l 382 700 q 356 694 361 700 q 350 668 350 689 l 350 17 q 356 -10 350 -4 q 382 -15 361 -15 l 1165 -15 l 1165 -97 l 167 -97 q 83 -14 83 -97 l 83 699 q 167 782 83 782 l 1489 782 q 1572 699 1572 782 l 1572 165 q 1489 82 1572 82 l 892 82 l 892 140 q 828 108 879 108 l 571 108 q 488 192 488 108 l 488 508 q 571 592 488 592 m 754 478 l 754 222 q 760 196 754 201 q 786 190 765 190 l 849 190 q 889 215 885 190 l 889 483 q 849 510 885 510 l 786 510 q 760 503 765 510 q 754 478 754 497 z "},"A":{"ha":1069,"x_min":3,"x_max":1067,"o":"m 414 253 l 649 253 l 533 663 l 414 253 m 721 0 l 672 171 l 390 171 l 340 0 l 3 0 l 326 864 l 743 864 l 1067 0 l 721 0 z "},"B":{"ha":1024,"x_min":83,"x_max":947,"o":"m 83 864 l 838 864 q 947 754 947 864 l 947 544 q 847 435 947 439 q 947 325 947 428 l 947 110 q 838 0 947 0 l 83 0 l 83 864 m 611 113 l 611 349 q 603 383 611 375 q 568 392 594 392 l 436 392 l 436 82 l 561 82 q 611 113 611 82 m 611 517 l 611 739 q 603 774 611 767 q 568 782 594 782 l 436 782 l 436 474 l 568 474 q 603 481 594 474 q 611 517 611 489 z "},"C":{"ha":992,"x_min":76,"x_max":929,"o":"m 929 542 l 576 542 l 576 739 q 569 774 576 767 q 533 782 561 782 l 472 782 q 437 774 444 782 q 429 739 429 767 l 429 125 q 437 90 429 97 q 472 82 444 82 l 533 82 q 569 90 561 82 q 576 125 576 97 l 576 318 l 929 318 l 929 110 q 819 0 929 0 l 186 0 q 76 110 76 0 l 76 754 q 186 864 76 864 l 819 864 q 929 754 929 864 l 929 542 z "},"D":{"ha":1026,"x_min":83,"x_max":950,"o":"m 597 125 l 597 739 q 589 774 597 767 q 554 782 581 782 l 436 782 l 436 82 l 554 82 q 589 90 581 82 q 597 125 597 97 m 83 864 l 840 864 q 950 754 950 864 l 950 110 q 840 0 950 0 l 83 0 l 83 864 z "},"E":{"ha":890,"x_min":83,"x_max":856,"o":"m 450 82 l 856 82 l 856 0 l 83 0 l 83 864 l 838 864 l 838 782 l 450 782 l 450 483 l 781 483 l 781 401 l 450 401 l 450 82 z "},"F":{"ha":872,"x_min":83,"x_max":838,"o":"m 838 782 l 450 782 l 450 450 l 783 450 l 783 368 l 450 368 l 450 0 l 83 0 l 83 864 l 838 864 l 838 782 z "},"G":{"ha":1000,"x_min":76,"x_max":931,"o":"m 931 568 l 578 568 l 578 739 q 569 774 578 767 q 535 782 561 782 l 472 782 q 437 774 444 782 q 429 739 429 767 l 429 125 q 437 90 429 97 q 472 82 444 82 l 535 82 q 569 90 561 82 q 578 125 578 97 l 578 363 l 490 363 l 490 444 l 931 444 l 931 110 q 821 0 931 0 l 186 0 q 76 110 76 0 l 76 754 q 186 864 76 864 l 821 864 q 931 754 931 864 l 931 568 z "},"H":{"ha":1088,"x_min":83,"x_max":1004,"o":"m 651 864 l 1004 864 l 1004 0 l 651 0 l 651 392 l 436 392 l 436 0 l 83 0 l 83 864 l 436 864 l 436 474 l 651 474 l 651 864 z "},"I":{"ha":547,"x_min":90,"x_max":457,"o":"m 90 864 l 457 864 l 457 0 l 90 0 l 90 864 z "},"J":{"ha":911,"x_min":28,"x_max":835,"o":"m 28 346 l 381 346 l 381 125 q 389 90 381 97 q 424 82 397 82 l 439 82 q 474 90 467 82 q 482 125 482 97 l 482 864 l 835 864 l 835 110 q 725 0 835 0 l 138 0 q 28 110 28 0 l 28 346 z "},"K":{"ha":1054,"x_min":83,"x_max":1032,"o":"m 661 864 l 1029 864 l 785 442 l 1032 0 l 664 0 l 429 442 l 661 864 m 83 864 l 426 864 l 426 0 l 83 0 l 83 864 z "},"L":{"ha":831,"x_min":83,"x_max":817,"o":"m 436 82 l 817 82 l 817 0 l 83 0 l 83 864 l 436 864 l 436 82 z "},"M":{"ha":1322,"x_min":83,"x_max":1239,"o":"m 403 0 l 83 0 l 83 864 l 458 864 l 661 361 l 865 864 l 1239 864 l 1239 0 l 919 0 l 919 576 l 765 188 l 558 188 l 403 574 l 403 0 z "},"N":{"ha":1054,"x_min":83,"x_max":971,"o":"m 644 864 l 971 864 l 971 0 l 678 0 l 410 551 l 410 0 l 83 0 l 83 864 l 378 864 l 644 306 l 644 864 z "},"O":{"ha":1018,"x_min":76,"x_max":942,"o":"m 942 754 l 942 110 q 832 0 942 0 l 186 0 q 76 110 76 0 l 76 754 q 186 864 76 864 l 832 864 q 942 754 942 864 m 589 125 l 589 739 q 581 774 589 767 q 546 782 572 782 l 472 782 q 437 774 444 782 q 429 739 429 767 l 429 125 q 437 90 429 97 q 472 82 444 82 l 546 82 q 581 90 572 82 q 589 125 589 97 z "},"P":{"ha":994,"x_min":83,"x_max":953,"o":"m 600 407 l 600 739 q 592 774 600 767 q 557 782 583 782 l 436 782 l 436 364 l 557 364 q 592 372 583 364 q 600 407 600 381 m 83 864 l 843 864 q 953 754 953 864 l 953 392 q 843 282 953 282 l 436 282 l 436 0 l 83 0 l 83 864 z "},"Q":{"ha":1022,"x_min":76,"x_max":967,"o":"m 422 739 l 422 125 q 431 90 422 97 q 465 82 439 82 l 553 82 q 588 90 581 82 q 596 125 596 97 l 596 739 q 588 774 596 767 q 553 782 581 782 l 465 782 q 431 774 439 782 q 422 739 422 767 m 186 0 q 76 110 76 0 l 76 754 q 186 864 76 864 l 832 864 q 942 754 942 864 l 942 110 q 832 0 942 0 l 788 0 l 967 -135 l 578 -135 l 419 0 l 186 0 z "},"R":{"ha":1018,"x_min":83,"x_max":989,"o":"m 557 782 l 436 782 l 436 392 l 557 392 q 592 400 583 392 q 600 435 600 408 l 600 739 q 592 774 600 767 q 557 782 583 782 m 436 310 l 436 0 l 83 0 l 83 864 l 843 864 q 953 754 953 864 l 953 419 q 843 310 953 310 l 793 310 l 989 0 l 619 0 l 440 310 l 436 310 z "},"S":{"ha":965,"x_min":58,"x_max":903,"o":"m 550 125 l 550 351 q 542 386 550 378 q 507 394 533 394 l 168 394 q 58 504 58 394 l 58 754 q 168 864 58 864 l 789 864 q 899 754 899 864 l 899 579 l 546 579 l 546 739 q 538 774 546 767 q 503 782 531 782 l 454 782 q 419 774 428 782 q 411 739 411 767 l 411 519 q 419 484 411 492 q 454 476 428 476 l 793 476 q 903 367 903 476 l 903 110 q 793 0 903 0 l 172 0 q 63 110 63 0 l 63 285 l 415 285 l 415 125 q 423 90 415 97 q 458 82 431 82 l 507 82 q 542 90 533 82 q 550 125 550 97 z "},"T":{"ha":840,"x_min":7,"x_max":833,"o":"m 833 864 l 833 782 l 594 782 l 594 0 l 242 0 l 242 782 l 7 782 l 7 864 l 833 864 z "},"U":{"ha":1018,"x_min":76,"x_max":942,"o":"m 429 864 l 429 125 q 437 90 429 97 q 472 82 444 82 l 546 82 q 581 90 572 82 q 589 125 589 97 l 589 864 l 942 864 l 942 110 q 832 0 942 0 l 186 0 q 76 110 76 0 l 76 864 l 429 864 z "},"V":{"ha":1028,"x_min":6,"x_max":1022,"o":"m 665 864 l 1022 864 l 713 0 l 315 0 l 6 864 l 361 864 l 513 231 l 665 864 z "},"W":{"ha":1610,"x_min":6,"x_max":1604,"o":"m 1265 864 l 1604 864 l 1338 0 l 943 0 l 804 515 l 665 0 l 272 0 l 6 864 l 363 864 l 468 247 l 636 864 l 971 864 l 1139 247 l 1265 864 z "},"X":{"ha":1024,"x_min":1,"x_max":1022,"o":"m 688 453 l 1022 0 l 650 0 l 501 249 l 351 0 l 1 0 l 315 425 l 10 864 l 383 864 l 501 636 l 621 864 l 975 864 l 688 453 z "},"Y":{"ha":1025,"x_min":4,"x_max":1021,"o":"m 699 0 l 346 0 l 346 288 l 4 864 l 347 864 l 519 457 l 679 864 l 1021 864 l 699 292 l 699 0 z "},"Z":{"ha":914,"x_min":42,"x_max":872,"o":"m 872 864 l 872 782 l 442 82 l 858 82 l 858 0 l 42 0 l 42 82 l 472 782 l 68 782 l 68 864 l 872 864 z "},"[":{"ha":554,"x_min":76,"x_max":600,"o":"m 600 917 l 429 917 l 429 -224 l 600 -224 l 600 -306 l 76 -306 l 76 999 l 600 999 l 600 917 z "},"\\":{"ha":756,"x_min":-83,"x_max":797,"o":"m -83 971 l 199 971 l 797 -189 l 515 -189 l -83 971 z "},"]":{"ha":554,"x_min":-46,"x_max":478,"o":"m 478 999 l 478 -306 l -46 -306 l -46 -224 l 125 -224 l 125 917 l -46 917 l -46 999 l 478 999 z "},"^":{"ha":914,"x_min":4,"x_max":910,"o":"m 258 928 l 656 928 l 910 456 l 608 456 l 456 753 l 304 456 l 4 456 l 258 928 z "},"_":{"ha":956,"x_min":14,"x_max":942,"o":"m 14 -82 l 14 0 l 942 0 l 942 -82 l 14 -82 z "},"`":{"ha":979,"x_min":217,"x_max":722,"o":"m 533 918 l 722 703 l 464 703 l 217 918 l 533 918 z "},"a":{"ha":947,"x_min":69,"x_max":871,"o":"m 446 82 l 485 82 q 538 122 538 82 l 538 551 q 485 592 538 592 l 446 592 q 411 583 419 592 q 403 549 403 575 l 403 125 q 411 90 403 97 q 446 82 419 82 m 538 674 l 871 674 l 871 0 l 538 0 l 538 36 q 457 0 518 0 l 179 0 q 69 110 69 0 l 69 564 q 179 674 69 674 l 457 674 q 538 638 518 674 l 538 674 z "},"b":{"ha":947,"x_min":76,"x_max":878,"o":"m 544 125 l 544 549 q 536 583 544 575 q 501 592 528 592 l 463 592 q 410 551 410 592 l 410 122 q 463 82 410 82 l 501 82 q 536 90 528 82 q 544 125 544 97 m 490 674 l 768 674 q 878 564 878 674 l 878 110 q 768 0 878 0 l 490 0 q 410 36 429 0 l 410 0 l 76 0 l 76 929 l 410 929 l 410 638 q 490 674 429 674 z "},"c":{"ha":904,"x_min":69,"x_max":856,"o":"m 856 421 l 533 421 l 533 549 q 525 583 533 575 q 490 592 517 592 l 446 592 q 411 583 419 592 q 403 549 403 575 l 403 125 q 411 90 403 97 q 446 82 419 82 l 490 82 q 525 90 517 82 q 533 125 533 97 l 533 249 l 856 249 l 856 110 q 746 0 856 0 l 179 0 q 69 110 69 0 l 69 564 q 179 674 69 674 l 746 674 q 856 564 856 674 l 856 421 z "},"d":{"ha":947,"x_min":69,"x_max":871,"o":"m 446 82 l 485 82 q 538 122 538 82 l 538 551 q 485 592 538 592 l 446 592 q 411 583 419 592 q 403 549 403 575 l 403 125 q 411 90 403 97 q 446 82 419 82 m 538 929 l 871 929 l 871 0 l 538 0 l 538 36 q 457 0 518 0 l 179 0 q 69 110 69 0 l 69 564 q 179 674 69 674 l 457 674 q 538 638 518 674 l 538 929 z "},"e":{"ha":947,"x_min":69,"x_max":885,"o":"m 403 386 l 563 386 l 563 549 q 555 583 563 575 q 519 592 547 592 l 446 592 q 411 583 419 592 q 403 549 403 575 l 403 386 m 179 674 l 775 674 q 885 564 885 674 l 885 304 l 403 304 l 403 125 q 411 90 403 97 q 446 82 419 82 l 519 82 q 555 90 547 82 q 563 125 563 97 l 563 228 l 885 228 l 885 110 q 775 0 885 0 l 179 0 q 69 110 69 0 l 69 564 q 179 674 69 674 z "},"f":{"ha":607,"x_min":14,"x_max":600,"o":"m 600 847 l 490 847 q 456 839 464 847 q 447 804 447 831 l 447 674 l 600 674 l 600 592 l 447 592 l 447 0 l 114 0 l 114 592 l 14 592 l 14 674 l 114 674 l 114 819 q 224 929 114 929 l 600 929 l 600 847 z "},"g":{"ha":947,"x_min":69,"x_max":871,"o":"m 446 82 l 485 82 q 538 122 538 82 l 538 551 q 485 592 538 592 l 446 592 q 411 583 419 592 q 403 549 403 575 l 403 125 q 411 90 403 97 q 446 82 419 82 m 538 674 l 871 674 l 871 -86 q 761 -196 871 -196 l 115 -196 l 115 -114 l 494 -114 q 530 -106 522 -114 q 538 -71 538 -97 l 538 36 q 457 0 518 0 l 179 0 q 69 110 69 0 l 69 564 q 179 674 69 674 l 457 674 q 538 638 518 674 l 538 674 z "},"h":{"ha":947,"x_min":76,"x_max":878,"o":"m 490 674 l 768 674 q 878 564 878 674 l 878 0 l 544 0 l 544 549 q 536 583 544 575 q 501 592 528 592 l 463 592 q 410 551 410 592 l 410 0 l 76 0 l 76 929 l 410 929 l 410 638 q 490 674 429 674 z "},"i":{"ha":486,"x_min":71,"x_max":415,"o":"m 410 0 l 76 0 l 76 674 l 410 674 l 410 0 m 71 754 l 71 929 l 415 929 l 415 754 l 71 754 z "},"j":{"ha":486,"x_min":-36,"x_max":415,"o":"m 76 -71 l 76 674 l 410 674 l 410 -86 q 300 -196 410 -196 l -36 -196 l -36 -114 l 33 -114 q 69 -106 61 -114 q 76 -71 76 -97 m 71 754 l 71 929 l 415 929 l 415 754 l 71 754 z "},"k":{"ha":949,"x_min":76,"x_max":926,"o":"m 76 929 l 410 929 l 410 0 l 76 0 l 76 929 m 926 674 l 731 340 l 926 0 l 593 0 l 410 340 l 596 674 l 926 674 z "},"l":{"ha":500,"x_min":83,"x_max":417,"o":"m 417 0 l 83 0 l 83 929 l 417 929 l 417 0 z "},"m":{"ha":1415,"x_min":76,"x_max":1346,"o":"m 965 674 l 1236 674 q 1346 564 1346 674 l 1346 0 l 1013 0 l 1013 549 q 1005 583 1013 575 q 969 592 997 592 l 932 592 q 878 538 878 592 l 878 0 l 544 0 l 544 549 q 536 583 544 575 q 501 592 528 592 l 463 592 q 410 551 410 592 l 410 0 l 76 0 l 76 674 l 410 674 l 410 638 q 490 674 429 674 l 768 674 q 872 610 851 674 q 965 674 890 674 z "},"n":{"ha":947,"x_min":76,"x_max":878,"o":"m 490 674 l 768 674 q 878 564 878 674 l 878 0 l 544 0 l 544 549 q 536 583 544 575 q 501 592 528 592 l 463 592 q 410 551 410 592 l 410 0 l 76 0 l 76 674 l 410 674 l 410 638 q 490 674 429 674 z "},"o":{"ha":944,"x_min":69,"x_max":875,"o":"m 542 125 l 542 549 q 533 583 542 575 q 499 592 525 592 l 446 592 q 411 583 419 592 q 403 549 403 575 l 403 125 q 411 90 403 97 q 446 82 419 82 l 499 82 q 533 90 525 82 q 542 125 542 97 m 179 674 l 765 674 q 875 564 875 674 l 875 110 q 765 0 875 0 l 179 0 q 69 110 69 0 l 69 564 q 179 674 69 674 z "},"p":{"ha":947,"x_min":76,"x_max":878,"o":"m 544 125 l 544 547 q 536 583 544 575 q 501 590 528 590 l 463 590 q 410 550 410 590 l 410 122 q 463 82 410 82 l 501 82 q 536 90 528 82 q 544 125 544 97 m 490 672 l 768 672 q 878 563 878 672 l 878 110 q 768 0 878 0 l 490 0 q 410 36 429 0 l 410 -196 l 76 -196 l 76 672 l 403 672 l 403 617 q 490 672 417 672 z "},"q":{"ha":947,"x_min":69,"x_max":871,"o":"m 446 82 l 485 82 q 538 122 538 82 l 538 550 q 485 590 538 590 l 446 590 q 411 583 419 590 q 403 547 403 575 l 403 125 q 411 90 403 97 q 446 82 419 82 m 544 672 l 871 672 l 871 -196 l 538 -196 l 538 36 q 457 0 518 0 l 179 0 q 69 110 69 0 l 69 563 q 179 672 69 672 l 457 672 q 544 617 531 672 l 544 672 z "},"r":{"ha":651,"x_min":76,"x_max":644,"o":"m 588 678 l 644 678 l 644 575 l 519 575 q 438 546 465 575 q 410 469 410 517 l 410 0 l 76 0 l 76 674 l 410 674 l 410 592 q 588 678 444 678 z "},"s":{"ha":879,"x_min":49,"x_max":824,"o":"m 490 125 l 490 251 q 483 286 490 278 q 447 294 475 294 l 158 294 q 49 404 49 294 l 49 564 q 158 674 49 674 l 699 674 q 808 564 808 674 l 808 449 l 486 449 l 486 549 q 478 583 486 575 q 443 592 469 592 l 425 592 q 390 583 397 592 q 382 549 382 575 l 382 419 q 390 384 382 392 q 425 376 397 376 l 714 376 q 824 267 824 376 l 824 110 q 714 0 824 0 l 165 0 q 56 110 56 0 l 56 225 l 378 225 l 378 125 q 386 90 378 97 q 421 82 394 82 l 447 82 q 483 90 475 82 q 490 125 490 97 z "},"t":{"ha":597,"x_min":7,"x_max":571,"o":"m 571 592 l 449 592 l 449 125 q 456 90 449 97 q 492 82 464 82 l 569 82 l 569 0 l 225 0 q 115 110 115 0 l 115 592 l 7 592 l 7 674 l 115 674 l 115 849 l 449 849 l 449 674 l 571 674 l 571 592 z "},"u":{"ha":947,"x_min":69,"x_max":871,"o":"m 538 674 l 871 674 l 871 0 l 538 0 l 538 36 q 457 0 518 0 l 179 0 q 69 110 69 0 l 69 674 l 403 674 l 403 125 q 411 90 403 97 q 446 82 419 82 l 485 82 q 538 122 538 82 l 538 674 z "},"v":{"ha":911,"x_min":3,"x_max":908,"o":"m 3 674 l 331 674 l 454 203 l 579 674 l 908 674 l 654 0 l 257 0 l 3 674 z "},"w":{"ha":1319,"x_min":4,"x_max":1315,"o":"m 1001 674 l 1315 674 l 1111 0 l 751 0 l 660 457 l 568 0 l 208 0 l 4 674 l 318 674 l 410 203 l 521 674 l 799 674 l 910 203 l 1001 674 z "},"x":{"ha":885,"x_min":-15,"x_max":906,"o":"m 593 392 l 906 0 l 511 0 l 369 186 l 204 0 l 7 0 l 276 303 l -15 674 l 372 674 l 496 506 l 644 674 l 847 674 l 593 392 z "},"y":{"ha":915,"x_min":3,"x_max":911,"o":"m 347 -196 l 146 -196 l 146 -114 l 239 -114 q 324 -96 296 -114 q 367 -37 351 -78 l 381 0 l 253 0 l 3 674 l 351 674 l 460 214 l 576 674 l 911 674 l 665 10 q 563 -149 625 -103 q 347 -196 500 -196 z "},"z":{"ha":782,"x_min":28,"x_max":754,"o":"m 754 82 l 754 0 l 28 0 l 28 82 l 378 592 l 53 592 l 53 674 l 735 674 l 735 592 l 378 82 l 754 82 z "},"{":{"ha":618,"x_min":28,"x_max":638,"o":"m 525 749 l 525 526 q 488 399 525 449 q 383 347 451 349 q 488 294 451 344 q 525 168 525 244 l 525 -57 q 543 -184 525 -143 q 619 -225 561 -225 l 638 -225 l 638 -307 l 576 -307 q 269 -237 365 -307 q 172 24 172 -168 l 172 201 q 142 284 172 258 q 40 310 113 310 l 28 310 l 28 392 l 40 392 q 142 418 113 392 q 172 503 172 444 l 172 668 q 269 929 172 860 q 576 999 365 999 l 638 999 l 638 917 l 619 917 q 543 876 561 917 q 525 749 525 835 z "},"|":{"ha":485,"x_min":90,"x_max":394,"o":"m 90 1121 l 394 1121 l 394 -260 l 90 -260 l 90 1121 z "},"}":{"ha":646,"x_min":8,"x_max":618,"o":"m 121 526 l 121 749 q 103 876 121 835 q 26 917 85 917 l 8 917 l 8 999 l 69 999 q 377 929 281 999 q 474 668 474 860 l 474 503 q 503 418 474 444 q 606 392 533 392 l 618 392 l 618 310 l 606 310 q 503 284 533 310 q 474 201 474 258 l 474 24 q 377 -237 474 -168 q 69 -307 281 -307 l 8 -307 l 8 -225 l 26 -225 q 103 -184 85 -225 q 121 -57 121 -143 l 121 168 q 158 294 121 244 q 263 347 194 344 q 158 399 194 349 q 121 526 121 449 z "},"~":{"ha":1136,"x_min":56,"x_max":1081,"o":"m 626 252 q 600 268 626 252 q 525 317 574 285 q 441 350 476 350 q 397 342 406 350 q 389 307 389 333 l 389 219 l 56 219 l 56 358 q 165 468 56 468 l 404 468 q 506 447 458 468 q 583 402 554 426 q 644 357 611 378 q 704 336 678 336 q 739 344 731 336 q 747 379 747 353 l 747 468 l 1081 468 l 1081 329 q 971 219 1081 219 l 732 219 q 626 252 678 219 z "},"¡":{"ha":582,"x_min":97,"x_max":483,"o":"m 157 372 l 425 372 l 483 -192 l 97 -192 l 157 372 m 114 672 l 467 672 l 467 465 l 114 465 l 114 672 z "},"¢":{"ha":883,"x_min":58,"x_max":844,"o":"m 844 421 l 522 421 l 522 549 q 514 583 522 575 q 479 592 506 592 l 435 592 q 400 583 408 592 q 392 549 392 575 l 392 125 q 400 90 392 97 q 435 82 408 82 l 479 82 q 514 90 506 82 q 522 125 522 97 l 522 249 l 844 249 l 844 110 q 735 0 844 0 l 628 0 l 628 -111 l 285 -111 l 285 0 l 168 0 q 58 110 58 0 l 58 564 q 168 674 58 674 l 285 674 l 285 782 l 628 782 l 628 674 l 735 674 q 844 564 844 674 l 844 421 z "},"£":{"ha":990,"x_min":39,"x_max":961,"o":"m 961 168 l 961 0 l 39 0 l 39 125 q 114 200 101 142 q 125 322 125 250 l 125 374 l 39 374 l 39 456 l 125 456 l 125 754 q 235 864 125 864 l 844 864 q 954 754 954 864 l 954 572 l 601 572 l 601 739 q 594 774 601 767 q 558 782 586 782 l 521 782 q 486 774 494 782 q 478 739 478 767 l 478 456 l 758 456 l 758 374 l 478 374 l 478 335 q 465 222 478 265 q 411 168 451 179 l 961 168 z "},"¤":{"ha":1160,"x_min":76,"x_max":1083,"o":"m 572 229 l 585 229 q 727 256 689 229 q 765 376 765 282 l 765 418 q 724 557 765 517 q 585 597 682 597 l 572 597 q 433 557 474 597 q 392 418 392 517 l 392 376 q 429 256 392 282 q 572 229 467 229 m 1008 436 l 1008 392 q 990 281 1008 326 l 1083 190 l 914 17 l 776 151 q 696 147 739 147 l 460 147 q 383 151 417 147 l 246 17 l 76 190 l 167 278 q 149 392 149 326 l 149 436 q 165 546 149 503 l 76 633 l 246 807 l 381 675 q 460 679 417 679 l 696 679 q 779 675 742 679 l 914 807 l 1083 633 l 992 544 q 1008 436 1008 501 z "},"¥":{"ha":1036,"x_min":10,"x_max":1026,"o":"m 704 278 l 965 278 l 965 196 l 704 196 l 704 0 l 351 0 l 351 196 l 85 196 l 85 278 l 351 278 l 351 288 l 300 374 l 85 374 l 85 456 l 251 456 l 10 864 l 353 864 l 525 457 l 685 864 l 1026 864 l 796 456 l 964 456 l 964 374 l 750 374 l 704 292 l 704 278 z "},"¦":{"ha":485,"x_min":90,"x_max":394,"o":"m 90 353 l 394 353 l 394 -260 l 90 -260 l 90 353 m 394 508 l 90 508 l 90 1121 l 394 1121 l 394 508 z "},"§":{"ha":1413,"x_min":358,"x_max":1181,"o":"m 1163 144 l 1163 6 q 1053 -104 1163 -104 l 468 -104 q 358 6 358 -104 l 358 107 l 701 107 l 701 21 q 709 -14 701 -6 q 744 -22 717 -22 l 776 -22 q 811 -14 803 -22 q 819 21 819 -6 l 819 143 q 811 178 819 169 q 776 186 803 186 l 483 186 q 374 296 374 186 l 374 431 q 401 509 374 481 q 460 542 429 538 q 402 567 428 544 q 376 638 376 589 l 376 790 q 486 900 376 900 l 1071 900 q 1181 790 1181 900 l 1181 689 l 838 689 l 838 775 q 830 810 838 803 q 794 818 822 818 l 763 818 q 728 810 736 818 q 719 775 719 803 l 719 653 q 728 617 719 625 q 763 610 736 610 l 1056 610 q 1165 500 1165 610 l 1165 351 q 1138 279 1165 301 q 1078 254 1111 257 q 1135 222 1107 250 q 1163 144 1163 193 m 779 528 l 760 528 q 725 519 733 528 q 717 485 717 511 l 717 311 q 725 276 717 283 q 760 268 733 268 l 779 268 q 814 276 806 268 q 822 311 822 283 l 822 485 q 814 519 822 511 q 779 528 806 528 z "},"¨":{"ha":979,"x_min":103,"x_max":878,"o":"m 546 914 l 878 914 l 878 718 l 546 718 l 546 914 m 103 914 l 435 914 l 435 718 l 103 718 l 103 914 z "},"©":{"ha":1513,"x_min":58,"x_max":1453,"o":"m 1453 469 l 1453 396 q 1430 230 1453 299 q 1351 107 1407 161 q 947 0 1242 0 l 564 0 q 160 107 269 0 q 81 230 104 161 q 58 396 58 299 l 58 469 q 81 634 58 565 q 160 757 104 703 q 564 864 269 864 l 947 864 q 1351 757 1242 864 q 1430 634 1407 703 q 1453 469 1453 565 m 629 82 l 883 82 q 1111 147 1044 82 q 1178 371 1178 211 l 1178 493 q 1111 717 1178 653 q 883 782 1044 782 l 629 782 q 401 717 468 782 q 335 493 335 653 l 335 371 q 401 147 335 211 q 629 82 468 82 m 808 333 l 808 396 l 1038 396 l 1038 318 q 928 208 1038 208 l 588 208 q 478 318 478 208 l 478 547 q 588 657 478 657 l 928 657 q 1038 547 1038 657 l 1038 471 l 808 471 l 808 532 q 800 567 808 558 q 765 575 792 575 l 750 575 q 715 567 722 575 q 707 532 707 558 l 707 333 q 715 298 707 306 q 750 290 722 290 l 765 290 q 800 298 792 290 q 808 333 808 306 z "},"ª":{"ha":660,"x_min":49,"x_max":614,"o":"m 315 446 l 340 446 q 378 475 378 446 l 378 778 q 340 806 378 806 l 315 806 q 290 801 296 806 q 285 776 285 796 l 285 476 q 290 451 285 457 q 315 446 296 446 m 378 864 l 614 864 l 614 389 l 378 389 l 378 414 q 322 389 365 389 l 126 389 q 49 465 49 389 l 49 786 q 126 864 49 864 l 322 864 q 378 839 364 864 l 378 864 z "},"«":{"ha":1100,"x_min":29,"x_max":1049,"o":"m 704 129 l 501 335 l 704 539 l 1049 539 l 853 335 l 1049 129 l 704 129 m 232 129 l 29 335 l 232 539 l 576 539 l 381 335 l 576 129 l 232 129 z "},"¬":{"ha":1110,"x_min":97,"x_max":993,"o":"m 993 561 l 993 136 l 810 136 l 810 325 l 97 325 l 97 561 l 993 561 z "},"­":{"ha":625,"x_min":76,"x_max":549,"o":"m 76 336 l 76 418 l 549 418 l 549 336 l 76 336 z "},"®":{"ha":936,"x_min":60,"x_max":878,"o":"m 878 757 l 878 714 q 813 540 878 599 q 582 482 749 482 l 356 482 q 124 540 189 482 q 60 714 60 599 l 60 757 q 124 931 60 872 q 356 989 189 989 l 582 989 q 813 931 749 989 q 878 757 878 872 m 394 531 l 543 531 q 677 569 638 531 q 717 700 717 607 l 717 771 q 677 903 717 865 q 543 940 638 940 l 394 940 q 261 903 300 940 q 222 771 222 865 l 222 700 q 261 569 222 607 q 394 531 300 531 m 329 864 l 579 864 q 613 831 613 864 l 613 733 q 579 701 613 701 l 565 701 l 624 610 l 500 610 l 453 699 l 447 699 l 447 610 l 329 610 l 329 864 m 494 738 l 494 826 q 492 837 494 835 q 482 839 490 839 l 447 839 l 447 725 l 482 725 q 494 738 494 725 z "},"¯":{"ha":979,"x_min":108,"x_max":869,"o":"m 108 764 l 108 844 l 869 844 l 869 764 l 108 764 z "},"°":{"ha":947,"x_min":81,"x_max":869,"o":"m 869 754 l 869 518 q 760 408 869 408 l 190 408 q 81 518 81 408 l 81 754 q 190 864 81 864 l 760 864 q 869 754 869 864 m 551 533 l 551 739 q 544 774 551 767 q 508 782 536 782 l 444 782 q 409 774 417 782 q 401 739 401 767 l 401 533 q 409 498 401 506 q 444 490 417 490 l 508 490 q 544 498 536 490 q 551 533 551 506 z "},"±":{"ha":1044,"x_min":47,"x_max":965,"o":"m 49 188 l 49 328 l 965 328 l 965 188 l 49 188 m 653 636 l 965 636 l 965 468 l 653 468 l 653 382 l 361 382 l 361 468 l 47 468 l 47 636 l 361 636 l 361 722 l 653 722 l 653 636 z "},"²":{"ha":553,"x_min":24,"x_max":518,"o":"m 232 782 l 232 701 l 24 701 l 24 804 q 83 864 24 864 l 458 864 q 518 804 518 864 l 518 732 q 468 585 518 631 l 297 447 l 518 447 l 518 389 l 35 389 l 35 449 l 275 651 q 310 731 310 679 l 310 782 q 306 801 310 797 q 286 806 301 806 l 256 806 q 237 801 242 806 q 232 782 232 797 z "},"³":{"ha":554,"x_min":42,"x_max":540,"o":"m 250 782 l 250 708 l 42 708 l 42 804 q 101 864 42 864 l 481 864 q 540 804 540 864 l 540 693 q 486 632 540 633 q 540 572 540 631 l 540 449 q 481 389 540 389 l 101 389 q 42 449 42 389 l 42 543 l 250 543 l 250 471 q 254 451 250 456 q 274 447 258 447 l 308 447 q 328 451 324 447 q 332 471 332 456 l 332 576 q 328 596 332 592 q 308 600 324 600 l 242 600 l 242 658 l 308 658 q 328 663 324 658 q 332 682 332 667 l 332 782 q 328 801 332 797 q 308 806 324 806 l 274 806 q 254 801 258 806 q 250 782 250 797 z "},"´":{"ha":979,"x_min":231,"x_max":736,"o":"m 231 703 l 419 918 l 736 918 l 489 703 l 231 703 z "},"µ":{"ha":957,"x_min":78,"x_max":879,"o":"m 546 674 l 879 674 l 879 0 l 546 0 l 546 36 q 465 0 526 0 l 411 0 l 411 -196 l 78 -196 l 78 674 l 411 674 l 411 125 q 419 90 411 97 q 454 82 428 82 l 493 82 q 546 122 546 82 l 546 674 z "},"¶":{"ha":1114,"x_min":53,"x_max":1046,"o":"m 649 864 l 649 -196 l 356 -196 l 356 282 l 163 282 q 53 392 53 282 l 53 754 q 163 864 53 864 l 649 864 m 753 864 l 1046 864 l 1046 -196 l 753 -196 l 753 864 z "},"·":{"ha":506,"x_min":86,"x_max":439,"o":"m 86 329 l 86 536 l 439 536 l 439 329 l 86 329 z "},"¸":{"ha":979,"x_min":238,"x_max":703,"o":"m 390 -225 l 390 -62 l 703 -62 l 703 -240 q 593 -350 703 -350 l 238 -350 l 238 -268 l 347 -268 q 383 -260 375 -268 q 390 -225 390 -253 z "},"¹":{"ha":426,"x_min":14,"x_max":358,"o":"m 358 864 l 358 389 l 122 389 l 122 806 l 14 806 l 14 864 l 358 864 z "},"º":{"ha":649,"x_min":49,"x_max":576,"o":"m 576 804 l 576 449 q 517 389 576 389 l 108 389 q 49 449 49 389 l 49 804 q 108 864 49 864 l 517 864 q 576 804 576 864 m 354 471 l 354 782 q 350 801 354 797 q 331 806 346 806 l 294 806 q 276 801 281 806 q 271 782 271 797 l 271 471 q 276 451 271 456 q 294 447 281 447 l 331 447 q 350 451 346 447 q 354 471 354 456 z "},"»":{"ha":1079,"x_min":29,"x_max":1049,"o":"m 576 335 l 374 129 l 29 129 l 225 335 l 29 539 l 374 539 l 576 335 m 1049 335 l 846 129 l 501 129 l 697 335 l 501 539 l 846 539 l 1049 335 z "},"¿":{"ha":918,"x_min":61,"x_max":901,"o":"m 676 672 l 676 465 l 324 465 l 324 672 l 676 672 m 563 85 l 901 85 l 901 -82 q 792 -192 901 -192 l 171 -192 q 61 -82 61 -192 l 61 167 q 171 276 61 276 l 340 276 l 354 372 l 638 372 l 664 181 l 443 181 q 408 172 417 181 q 400 138 400 164 l 400 -67 q 408 -102 400 -94 q 443 -110 417 -110 l 519 -110 q 555 -102 547 -110 q 563 -67 563 -94 l 563 85 z "},"À":{"ha":1064,"x_min":0,"x_max":1064,"o":"m 661 929 l 403 929 l 156 1144 l 472 1144 l 661 929 m 411 253 l 646 253 l 531 663 l 411 253 m 718 0 l 669 171 l 388 171 l 338 0 l 0 0 l 324 864 l 740 864 l 1064 0 l 718 0 z "},"Á":{"ha":1064,"x_min":0,"x_max":1064,"o":"m 918 1144 l 671 929 l 413 929 l 601 1144 l 918 1144 m 411 253 l 646 253 l 531 663 l 411 253 m 718 0 l 669 171 l 388 171 l 338 0 l 0 0 l 324 864 l 740 864 l 1064 0 l 718 0 z "},"Â":{"ha":1064,"x_min":0,"x_max":1064,"o":"m 531 1044 l 428 928 l 119 928 l 381 1154 l 682 1154 l 943 928 l 635 928 l 531 1044 m 411 253 l 646 253 l 531 663 l 411 253 m 718 0 l 669 171 l 388 171 l 338 0 l 0 0 l 324 864 l 740 864 l 1064 0 l 718 0 z "},"Ã":{"ha":1064,"x_min":0,"x_max":1064,"o":"m 388 1007 l 388 931 l 124 931 l 124 1022 q 233 1132 124 1132 l 356 1132 q 547 1054 438 1132 q 601 1028 583 1028 q 629 1056 629 1028 l 629 1132 l 893 1132 l 893 1040 q 783 931 893 931 l 661 931 q 469 1008 582 931 q 415 1035 433 1035 q 388 1007 388 1035 m 411 253 l 646 253 l 531 663 l 411 253 m 718 0 l 669 171 l 388 171 l 338 0 l 0 0 l 324 864 l 740 864 l 1064 0 l 718 0 z "},"Ä":{"ha":1064,"x_min":0,"x_max":1064,"o":"m 919 1125 l 919 929 l 588 929 l 588 1125 l 919 1125 m 476 1125 l 476 929 l 144 929 l 144 1125 l 476 1125 m 411 253 l 646 253 l 531 663 l 411 253 m 718 0 l 669 171 l 388 171 l 338 0 l 0 0 l 324 864 l 740 864 l 1064 0 l 718 0 z "},"Å":{"ha":1064,"x_min":0,"x_max":1064,"o":"m 457 1067 l 457 1054 q 465 1019 457 1028 q 500 1011 472 1011 l 565 1011 q 600 1019 592 1011 q 608 1054 608 1028 l 608 1067 q 600 1102 608 1094 q 565 1110 592 1110 l 500 1110 q 465 1102 472 1110 q 457 1067 457 1094 m 707 929 l 358 929 q 249 1039 249 929 l 249 1082 q 358 1192 249 1192 l 707 1192 q 817 1082 817 1192 l 817 1039 q 707 929 817 929 m 411 253 l 646 253 l 531 663 l 411 253 m 718 0 l 669 171 l 388 171 l 338 0 l 0 0 l 324 864 l 740 864 l 1064 0 l 718 0 z "},"Æ":{"ha":1535,"x_min":3,"x_max":1494,"o":"m 736 253 l 736 683 l 504 253 l 736 253 m 1089 82 l 1494 82 l 1494 0 l 736 0 l 736 171 l 460 171 l 368 0 l 3 0 l 499 864 l 1476 864 l 1476 782 l 1089 782 l 1089 483 l 1419 483 l 1419 401 l 1089 401 l 1089 82 z "},"Ç":{"ha":969,"x_min":68,"x_max":921,"o":"m 333 -225 l 333 -62 l 646 -62 l 646 -240 q 536 -350 646 -350 l 181 -350 l 181 -268 l 290 -268 q 325 -260 317 -268 q 333 -225 333 -253 m 921 542 l 568 542 l 568 739 q 560 774 568 767 q 525 782 553 782 l 464 782 q 428 774 436 782 q 421 739 421 767 l 421 125 q 428 90 421 97 q 464 82 436 82 l 525 82 q 560 90 553 82 q 568 125 568 97 l 568 318 l 921 318 l 921 110 q 811 0 921 0 l 178 0 q 68 110 68 0 l 68 754 q 178 864 68 864 l 811 864 q 921 754 921 864 l 921 542 z "},"È":{"ha":879,"x_min":78,"x_max":850,"o":"m 603 928 l 344 928 l 97 1143 l 414 1143 l 603 928 m 444 82 l 850 82 l 850 0 l 78 0 l 78 864 l 832 864 l 832 782 l 444 782 l 444 483 l 775 483 l 775 401 l 444 401 l 444 82 z "},"É":{"ha":879,"x_min":78,"x_max":850,"o":"m 832 1143 l 585 928 l 326 928 l 515 1143 l 832 1143 m 444 82 l 850 82 l 850 0 l 78 0 l 78 864 l 832 864 l 832 782 l 444 782 l 444 483 l 775 483 l 775 401 l 444 401 l 444 82 z "},"Ê":{"ha":879,"x_min":50,"x_max":874,"o":"m 461 1046 l 358 929 l 50 929 l 311 1156 l 613 1156 l 874 929 l 565 929 l 461 1046 m 444 401 l 444 82 l 850 82 l 850 0 l 78 0 l 78 864 l 832 864 l 832 782 l 444 782 l 444 483 l 775 483 l 775 401 l 444 401 z "},"Ë":{"ha":979,"x_min":71,"x_max":850,"o":"m 846 1125 l 846 929 l 514 929 l 514 1125 l 846 1125 m 403 1125 l 403 929 l 71 929 l 71 1125 l 403 1125 m 444 82 l 850 82 l 850 0 l 78 0 l 78 864 l 832 864 l 832 782 l 444 782 l 444 483 l 775 483 l 775 401 l 444 401 l 444 82 z "},"Ì":{"ha":500,"x_min":-114,"x_max":444,"o":"m 78 864 l 444 864 l 444 0 l 78 0 l 78 864 m 203 1144 l 392 929 l 133 929 l -114 1144 l 203 1144 z "},"Í":{"ha":500,"x_min":78,"x_max":646,"o":"m 78 864 l 444 864 l 444 0 l 78 0 l 78 864 m 140 928 l 329 1143 l 646 1143 l 399 928 l 140 928 z "},"Î":{"ha":500,"x_min":-149,"x_max":675,"o":"m 78 864 l 444 864 l 444 0 l 78 0 l 78 864 m -149 929 l 113 1156 l 414 1156 l 675 929 l 367 929 l 263 1046 l 160 929 l -149 929 z "},"Ï":{"ha":500,"x_min":-122,"x_max":653,"o":"m 78 864 l 444 864 l 444 0 l 78 0 l 78 864 m -122 1124 l 210 1124 l 210 928 l -122 928 l -122 1124 m 321 1124 l 653 1124 l 653 928 l 321 928 l 321 1124 z "},"Ð":{"ha":1032,"x_min":-10,"x_max":964,"o":"m 611 125 l 611 739 q 603 774 611 767 q 568 782 594 782 l 450 782 l 450 483 l 549 483 l 549 394 l 450 394 l 450 82 l 568 82 q 603 90 594 82 q 611 125 611 97 m 97 864 l 854 864 q 964 754 964 864 l 964 110 q 854 0 964 0 l 97 0 l 97 394 l -10 394 l -10 483 l 97 483 l 97 864 z "},"Ñ":{"ha":1044,"x_min":78,"x_max":965,"o":"m 639 864 l 965 864 l 965 0 l 672 0 l 404 551 l 404 0 l 78 0 l 78 864 l 372 864 l 639 306 l 639 864 m 433 1033 q 406 1006 406 1033 l 406 929 l 142 929 l 142 1021 q 251 1131 142 1131 l 374 1131 q 564 1053 453 1131 q 619 1026 601 1026 q 647 1054 647 1026 l 647 1131 l 911 1131 l 911 1039 q 801 929 911 929 l 679 929 q 489 1007 597 929 q 433 1033 451 1033 z "},"Ò":{"ha":1011,"x_min":72,"x_max":938,"o":"m 938 754 l 938 110 q 828 0 938 0 l 182 0 q 72 110 72 0 l 72 754 q 182 864 72 864 l 828 864 q 938 754 938 864 m 585 125 l 585 739 q 577 774 585 767 q 542 782 569 782 l 468 782 q 433 774 442 782 q 425 739 425 767 l 425 125 q 433 90 425 97 q 468 82 442 82 l 542 82 q 577 90 569 82 q 585 125 585 97 m 453 1146 l 642 931 l 383 931 l 136 1146 l 453 1146 z "},"Ó":{"ha":1011,"x_min":72,"x_max":938,"o":"m 385 929 l 574 1144 l 890 1144 l 643 929 l 385 929 m 938 754 l 938 110 q 828 0 938 0 l 182 0 q 72 110 72 0 l 72 754 q 182 864 72 864 l 828 864 q 938 754 938 864 m 585 125 l 585 739 q 577 774 585 767 q 542 782 569 782 l 468 782 q 433 774 442 782 q 425 739 425 767 l 425 125 q 433 90 425 97 q 468 82 442 82 l 542 82 q 577 90 569 82 q 585 125 585 97 z "},"Ô":{"ha":1011,"x_min":72,"x_max":938,"o":"m 96 929 l 357 1156 l 658 1156 l 919 929 l 611 929 l 507 1046 l 404 929 l 96 929 m 938 754 l 938 110 q 828 0 938 0 l 182 0 q 72 110 72 0 l 72 754 q 182 864 72 864 l 828 864 q 938 754 938 864 m 585 125 l 585 739 q 577 774 585 767 q 542 782 569 782 l 468 782 q 433 774 442 782 q 425 739 425 767 l 425 125 q 433 90 425 97 q 468 82 442 82 l 542 82 q 577 90 569 82 q 585 125 585 97 z "},"Õ":{"ha":1011,"x_min":72,"x_max":938,"o":"m 938 754 l 938 110 q 828 0 938 0 l 182 0 q 72 110 72 0 l 72 754 q 182 864 72 864 l 828 864 q 938 754 938 864 m 585 125 l 585 739 q 577 774 585 767 q 542 782 569 782 l 468 782 q 433 774 442 782 q 425 739 425 767 l 425 125 q 433 90 425 97 q 468 82 442 82 l 542 82 q 577 90 569 82 q 585 125 585 97 m 407 1033 q 379 1006 379 1033 l 379 929 l 115 929 l 115 1021 q 225 1131 115 1131 l 347 1131 q 539 1053 426 1131 q 593 1026 575 1026 q 621 1054 621 1026 l 621 1131 l 885 1131 l 885 1039 q 775 929 885 929 l 653 929 q 461 1007 571 929 q 407 1033 425 1033 z "},"Ö":{"ha":979,"x_min":72,"x_max":938,"o":"m 938 754 l 938 110 q 828 0 938 0 l 182 0 q 72 110 72 0 l 72 754 q 182 864 72 864 l 828 864 q 938 754 938 864 m 585 125 l 585 739 q 577 774 585 767 q 542 782 569 782 l 468 782 q 433 774 442 782 q 425 739 425 767 l 425 125 q 433 90 425 97 q 468 82 442 82 l 542 82 q 577 90 569 82 q 585 125 585 97 m 561 1126 l 893 1126 l 893 931 l 561 931 l 561 1126 m 118 1126 l 450 1126 l 450 931 l 118 931 l 118 1126 z "},"×":{"ha":944,"x_min":108,"x_max":896,"o":"m 896 601 l 664 429 l 896 257 l 758 119 l 501 310 l 246 119 l 108 258 l 339 429 l 108 600 l 247 740 l 501 550 l 757 740 l 896 601 z "},"Ø":{"ha":1011,"x_min":38,"x_max":985,"o":"m 599 125 l 599 457 l 411 233 l 411 125 q 419 90 411 97 q 454 82 428 82 l 556 82 q 591 90 583 82 q 599 125 599 97 m 411 739 l 411 392 l 599 615 l 599 739 q 591 774 599 767 q 556 782 583 782 l 454 782 q 419 774 428 782 q 411 739 411 767 m 938 754 l 938 110 q 828 0 938 0 l 215 0 l 169 -54 l 38 -54 l 103 24 q 72 110 72 50 l 72 754 q 182 864 72 864 l 807 864 l 853 918 l 985 918 l 914 833 q 938 754 938 806 z "},"Ù":{"ha":1022,"x_min":78,"x_max":943,"o":"m 431 864 l 431 125 q 439 90 431 97 q 474 82 447 82 l 547 82 q 583 90 575 82 q 590 125 590 97 l 590 864 l 943 864 l 943 110 q 833 0 943 0 l 188 0 q 78 110 78 0 l 78 864 l 431 864 m 461 1146 l 650 931 l 392 931 l 144 1146 l 461 1146 z "},"Ú":{"ha":1022,"x_min":78,"x_max":943,"o":"m 385 929 l 574 1144 l 890 1144 l 643 929 l 385 929 m 431 864 l 431 125 q 439 90 431 97 q 474 82 447 82 l 547 82 q 583 90 575 82 q 590 125 590 97 l 590 864 l 943 864 l 943 110 q 833 0 943 0 l 188 0 q 78 110 78 0 l 78 864 l 431 864 z "},"Û":{"ha":1022,"x_min":78,"x_max":943,"o":"m 100 929 l 361 1156 l 663 1156 l 924 929 l 615 929 l 511 1046 l 408 929 l 100 929 m 431 864 l 431 125 q 439 90 431 97 q 474 82 447 82 l 547 82 q 583 90 575 82 q 590 125 590 97 l 590 864 l 943 864 l 943 110 q 833 0 943 0 l 188 0 q 78 110 78 0 l 78 864 l 431 864 z "},"Ü":{"ha":1022,"x_min":78,"x_max":943,"o":"m 590 864 l 943 864 l 943 110 q 833 0 943 0 l 188 0 q 78 110 78 0 l 78 864 l 431 864 l 431 125 q 439 90 431 97 q 474 82 447 82 l 547 82 q 583 90 575 82 q 590 125 590 97 l 590 864 m 122 1125 l 454 1125 l 454 929 l 122 929 l 122 1125 m 565 1125 l 897 1125 l 897 929 l 565 929 l 565 1125 z "},"Ý":{"ha":1017,"x_min":0,"x_max":1017,"o":"m 874 1144 l 626 929 l 368 929 l 557 1144 l 874 1144 m 694 0 l 342 0 l 342 288 l 0 864 l 343 864 l 515 457 l 675 864 l 1017 864 l 694 292 l 694 0 z "},"Þ":{"ha":994,"x_min":88,"x_max":943,"o":"m 590 267 l 590 597 q 583 633 590 625 q 547 640 575 640 l 440 640 l 440 224 l 547 224 q 583 231 575 224 q 590 267 590 239 m 440 722 l 833 722 q 943 613 943 722 l 943 251 q 833 142 943 142 l 440 142 l 440 0 l 88 0 l 88 864 l 440 864 l 440 722 z "},"ß":{"ha":1326,"x_min":88,"x_max":1303,"o":"m 513 231 l 846 231 l 846 126 q 853 92 846 100 q 889 83 861 83 l 926 83 q 961 92 953 83 q 969 126 969 100 l 969 279 q 961 314 969 306 q 926 322 953 322 l 632 322 q 522 432 522 322 l 522 521 q 632 631 522 631 l 792 631 q 827 639 819 631 q 835 674 835 647 l 835 739 q 827 774 835 767 q 792 782 819 782 l 474 782 q 439 774 447 782 q 431 739 431 767 l 431 0 l 88 0 l 88 754 q 197 864 88 864 l 1088 864 q 1197 754 1197 864 l 1197 658 q 1088 549 1197 549 l 892 549 q 856 541 864 549 q 849 506 849 533 l 849 447 q 856 412 849 419 q 892 404 864 404 l 1193 404 q 1303 294 1303 404 l 1303 110 q 1193 0 1303 0 l 622 0 q 513 110 513 0 l 513 231 z "},"à":{"ha":938,"x_min":58,"x_max":860,"o":"m 665 739 l 407 739 l 160 954 l 476 954 l 665 739 m 435 82 l 474 82 q 526 122 526 82 l 526 551 q 474 592 526 592 l 435 592 q 400 583 408 592 q 392 549 392 575 l 392 125 q 400 90 392 97 q 435 82 408 82 m 526 674 l 860 674 l 860 0 l 526 0 l 526 36 q 446 0 507 0 l 168 0 q 58 110 58 0 l 58 564 q 168 674 58 674 l 446 674 q 526 638 507 674 l 526 674 z "},"á":{"ha":938,"x_min":58,"x_max":860,"o":"m 854 954 l 607 739 l 349 739 l 538 954 l 854 954 m 435 82 l 474 82 q 526 122 526 82 l 526 551 q 474 592 526 592 l 435 592 q 400 583 408 592 q 392 549 392 575 l 392 125 q 400 90 392 97 q 435 82 408 82 m 526 674 l 860 674 l 860 0 l 526 0 l 526 36 q 446 0 507 0 l 168 0 q 58 110 58 0 l 58 564 q 168 674 58 674 l 446 674 q 526 638 507 674 l 526 674 z "},"â":{"ha":938,"x_min":58,"x_max":883,"o":"m 471 856 l 368 739 l 60 739 l 321 965 l 622 965 l 883 739 l 575 739 l 471 856 m 435 82 l 474 82 q 526 122 526 82 l 526 551 q 474 592 526 592 l 435 592 q 400 583 408 592 q 392 549 392 575 l 392 125 q 400 90 392 97 q 435 82 408 82 m 526 674 l 860 674 l 860 0 l 526 0 l 526 36 q 446 0 507 0 l 168 0 q 58 110 58 0 l 58 564 q 168 674 58 674 l 446 674 q 526 638 507 674 l 526 674 z "},"ã":{"ha":938,"x_min":58,"x_max":860,"o":"m 346 815 l 346 739 l 82 739 l 82 831 q 192 940 82 940 l 314 940 q 506 863 396 940 q 560 836 542 836 q 588 864 588 836 l 588 940 l 851 940 l 851 849 q 742 739 851 739 l 619 739 q 428 817 540 739 q 374 843 392 843 q 346 815 346 843 m 435 82 l 474 82 q 526 122 526 82 l 526 551 q 474 592 526 592 l 435 592 q 400 583 408 592 q 392 549 392 575 l 392 125 q 400 90 392 97 q 435 82 408 82 m 526 674 l 860 674 l 860 0 l 526 0 l 526 36 q 446 0 507 0 l 168 0 q 58 110 58 0 l 58 564 q 168 674 58 674 l 446 674 q 526 638 507 674 l 526 674 z "},"ä":{"ha":938,"x_min":58,"x_max":878,"o":"m 435 933 l 435 738 l 103 738 l 103 933 l 435 933 m 435 82 l 474 82 q 526 122 526 82 l 526 551 q 474 592 526 592 l 435 592 q 400 583 408 592 q 392 549 392 575 l 392 125 q 400 90 392 97 q 435 82 408 82 m 526 674 l 860 674 l 860 0 l 526 0 l 526 36 q 446 0 507 0 l 168 0 q 58 110 58 0 l 58 564 q 168 674 58 674 l 446 674 q 526 638 507 674 l 526 674 m 546 933 l 878 933 l 878 738 l 546 738 l 546 933 z "},"å":{"ha":938,"x_min":58,"x_max":860,"o":"m 394 878 l 394 865 q 403 831 394 839 q 438 822 411 822 l 503 822 q 538 831 531 822 q 546 865 546 839 l 546 878 q 538 913 546 906 q 503 921 531 921 l 438 921 q 403 913 411 921 q 394 878 394 906 m 644 740 l 296 740 q 186 850 186 740 l 186 893 q 296 1003 186 1003 l 644 1003 q 754 893 754 1003 l 754 850 q 644 740 754 740 m 435 82 l 474 82 q 526 122 526 82 l 526 551 q 474 592 526 592 l 435 592 q 400 583 408 592 q 392 549 392 575 l 392 125 q 400 90 392 97 q 435 82 408 82 m 526 674 l 860 674 l 860 0 l 526 0 l 526 36 q 446 0 507 0 l 168 0 q 58 110 58 0 l 58 564 q 168 674 58 674 l 446 674 q 526 638 507 674 l 526 674 z "},"æ":{"ha":1442,"x_min":68,"x_max":1351,"o":"m 860 386 l 1028 386 l 1028 549 q 1019 583 1028 575 q 985 592 1011 592 l 903 592 q 867 583 875 592 q 860 549 860 575 l 860 386 m 444 82 l 493 82 q 528 90 519 82 q 536 125 536 97 l 536 296 l 401 263 l 401 125 q 409 90 401 97 q 444 82 417 82 m 858 674 l 1242 674 q 1351 564 1351 674 l 1351 304 l 860 304 l 860 125 q 867 90 860 97 q 903 82 875 82 l 985 82 q 1019 90 1011 82 q 1028 125 1028 97 l 1028 225 l 1351 225 l 1351 110 q 1242 0 1351 0 l 858 0 q 717 19 739 0 q 699 50 706 29 q 652 11 689 22 q 518 0 615 0 l 178 0 q 68 110 68 0 l 68 281 l 536 389 l 536 551 q 528 586 536 578 q 493 594 519 594 l 444 594 q 409 586 417 594 q 401 551 401 578 l 401 415 l 68 415 l 68 564 q 178 674 68 674 l 518 674 q 652 663 615 674 q 699 624 689 651 q 717 653 706 644 q 858 674 739 674 z "},"ç":{"ha":883,"x_min":58,"x_max":844,"o":"m 306 -225 l 306 -62 l 618 -62 l 618 -240 q 508 -350 618 -350 l 153 -350 l 153 -268 l 263 -268 q 297 -260 289 -268 q 306 -225 306 -253 m 844 421 l 522 421 l 522 549 q 514 583 522 575 q 479 592 506 592 l 435 592 q 400 583 408 592 q 392 549 392 575 l 392 125 q 400 90 392 97 q 435 82 408 82 l 479 82 q 514 90 506 82 q 522 125 522 97 l 522 249 l 844 249 l 844 110 q 735 0 844 0 l 168 0 q 58 110 58 0 l 58 564 q 168 674 58 674 l 735 674 q 844 564 844 674 l 844 421 z "},"è":{"ha":922,"x_min":58,"x_max":874,"o":"m 599 739 l 340 739 l 93 954 l 410 954 l 599 739 m 392 386 l 551 386 l 551 549 q 544 583 551 575 q 508 592 536 592 l 435 592 q 400 583 408 592 q 392 549 392 575 l 392 386 m 168 674 l 764 674 q 874 564 874 674 l 874 304 l 392 304 l 392 125 q 400 90 392 97 q 435 82 408 82 l 508 82 q 544 90 536 82 q 551 125 551 97 l 551 228 l 874 228 l 874 110 q 764 0 874 0 l 168 0 q 58 110 58 0 l 58 564 q 168 674 58 674 z "},"é":{"ha":922,"x_min":58,"x_max":874,"o":"m 846 954 l 599 739 l 340 739 l 529 954 l 846 954 m 392 386 l 551 386 l 551 549 q 544 583 551 575 q 508 592 536 592 l 435 592 q 400 583 408 592 q 392 549 392 575 l 392 386 m 168 674 l 764 674 q 874 564 874 674 l 874 304 l 392 304 l 392 125 q 400 90 392 97 q 435 82 408 82 l 508 82 q 544 90 536 82 q 551 125 551 97 l 551 228 l 874 228 l 874 110 q 764 0 874 0 l 168 0 q 58 110 58 0 l 58 564 q 168 674 58 674 z "},"ê":{"ha":922,"x_min":58,"x_max":882,"o":"m 469 856 l 367 739 l 58 739 l 319 965 l 621 965 l 882 739 l 574 739 l 469 856 m 392 386 l 551 386 l 551 549 q 544 583 551 575 q 508 592 536 592 l 435 592 q 400 583 408 592 q 392 549 392 575 l 392 386 m 168 674 l 764 674 q 874 564 874 674 l 874 304 l 392 304 l 392 125 q 400 90 392 97 q 435 82 408 82 l 508 82 q 544 90 536 82 q 551 125 551 97 l 551 228 l 874 228 l 874 110 q 764 0 874 0 l 168 0 q 58 110 58 0 l 58 564 q 168 674 58 674 z "},"ë":{"ha":922,"x_min":58,"x_max":874,"o":"m 419 935 l 419 739 l 88 739 l 88 935 l 419 935 m 863 935 l 863 739 l 531 739 l 531 935 l 863 935 m 168 674 l 764 674 q 874 564 874 674 l 874 304 l 392 304 l 392 125 q 400 90 392 97 q 435 82 408 82 l 508 82 q 544 90 536 82 q 551 125 551 97 l 551 228 l 874 228 l 874 110 q 764 0 874 0 l 168 0 q 58 110 58 0 l 58 564 q 168 674 58 674 m 392 386 l 551 386 l 551 549 q 544 583 551 575 q 508 592 536 592 l 435 592 q 400 583 408 592 q 392 549 392 575 l 392 386 z "},"ì":{"ha":489,"x_min":-140,"x_max":411,"o":"m 411 0 l 78 0 l 78 674 l 411 674 l 411 0 m 176 954 l 365 739 l 107 739 l -140 954 l 176 954 z "},"í":{"ha":489,"x_min":78,"x_max":629,"o":"m 411 0 l 78 0 l 78 674 l 411 674 l 411 0 m 124 739 l 313 954 l 629 954 l 382 739 l 124 739 z "},"î":{"ha":489,"x_min":-164,"x_max":660,"o":"m 411 0 l 78 0 l 78 672 l 411 672 l 411 0 m -164 739 l 97 965 l 399 965 l 660 739 l 351 739 l 247 856 l 144 739 l -164 739 z "},"ï":{"ha":489,"x_min":-147,"x_max":628,"o":"m 411 0 l 78 0 l 78 672 l 411 672 l 411 0 m 296 936 l 628 936 l 628 740 l 296 740 l 296 936 m -147 936 l 185 936 l 185 740 l -147 740 l -147 936 z "},"ð":{"ha":968,"x_min":58,"x_max":894,"o":"m 561 125 l 561 435 l 435 435 q 400 427 408 435 q 392 392 392 419 l 392 125 q 400 90 392 97 q 435 82 408 82 l 518 82 q 553 90 544 82 q 561 125 561 97 m 894 413 l 894 110 q 785 0 894 0 l 168 0 q 58 110 58 0 l 58 407 q 168 517 58 517 l 543 517 q 458 651 519 589 l 243 607 l 243 699 l 375 726 q 131 864 276 801 l 592 864 q 697 793 646 835 l 854 825 l 854 733 l 776 717 q 894 413 894 581 z "},"ñ":{"ha":947,"x_min":78,"x_max":879,"o":"m 353 814 l 353 738 l 89 738 l 89 829 q 199 939 89 939 l 321 939 q 511 861 400 939 q 567 835 549 835 q 594 863 594 835 l 594 939 l 858 939 l 858 847 q 749 738 858 738 l 626 738 q 436 815 544 738 q 381 842 399 842 q 353 814 353 842 m 492 674 l 769 674 q 879 564 879 674 l 879 0 l 546 0 l 546 549 q 538 583 546 575 q 503 592 531 592 l 464 592 q 411 551 411 592 l 411 0 l 78 0 l 78 674 l 411 674 l 411 638 q 492 674 431 674 z "},"ò":{"ha":942,"x_min":68,"x_max":874,"o":"m 604 738 l 346 738 l 99 953 l 415 953 l 604 738 m 540 125 l 540 549 q 533 583 540 575 q 497 592 525 592 l 444 592 q 409 583 417 592 q 401 549 401 575 l 401 125 q 409 90 401 97 q 444 82 417 82 l 497 82 q 533 90 525 82 q 540 125 540 97 m 178 674 l 764 674 q 874 564 874 674 l 874 110 q 764 0 874 0 l 178 0 q 68 110 68 0 l 68 564 q 178 674 68 674 z "},"ó":{"ha":942,"x_min":68,"x_max":874,"o":"m 861 953 l 614 738 l 356 738 l 544 953 l 861 953 m 540 125 l 540 549 q 533 583 540 575 q 497 592 525 592 l 444 592 q 409 583 417 592 q 401 549 401 575 l 401 125 q 409 90 401 97 q 444 82 417 82 l 497 82 q 533 90 525 82 q 540 125 540 97 m 178 674 l 764 674 q 874 564 874 674 l 874 110 q 764 0 874 0 l 178 0 q 68 110 68 0 l 68 564 q 178 674 68 674 z "},"ô":{"ha":942,"x_min":63,"x_max":886,"o":"m 474 857 l 371 740 l 63 740 l 324 967 l 625 967 l 886 740 l 578 740 l 474 857 m 540 125 l 540 549 q 533 583 540 575 q 497 592 525 592 l 444 592 q 409 583 417 592 q 401 549 401 575 l 401 125 q 409 90 401 97 q 444 82 417 82 l 497 82 q 533 90 525 82 q 540 125 540 97 m 178 674 l 764 674 q 874 564 874 674 l 874 110 q 764 0 874 0 l 178 0 q 68 110 68 0 l 68 564 q 178 674 68 674 z "},"õ":{"ha":942,"x_min":68,"x_max":874,"o":"m 347 815 l 347 739 l 83 739 l 83 831 q 193 940 83 940 l 315 940 q 506 863 397 940 q 561 836 543 836 q 589 864 589 836 l 589 940 l 853 940 l 853 849 q 743 739 853 739 l 621 739 q 431 817 542 739 q 375 843 393 843 q 347 815 347 843 m 540 125 l 540 549 q 533 583 540 575 q 497 592 525 592 l 444 592 q 409 583 417 592 q 401 549 401 575 l 401 125 q 409 90 401 97 q 444 82 417 82 l 497 82 q 533 90 525 82 q 540 125 540 97 m 178 674 l 764 674 q 874 564 874 674 l 874 110 q 764 0 874 0 l 178 0 q 68 110 68 0 l 68 564 q 178 674 68 674 z "},"ö":{"ha":942,"x_min":68,"x_max":874,"o":"m 178 674 l 764 674 q 874 564 874 674 l 874 110 q 764 0 874 0 l 178 0 q 68 110 68 0 l 68 564 q 178 674 68 674 m 540 549 q 533 583 540 575 q 497 592 525 592 l 444 592 q 409 583 417 592 q 401 549 401 575 l 401 125 q 409 90 401 97 q 444 82 417 82 l 497 82 q 533 90 525 82 q 540 125 540 97 l 540 549 m 88 935 l 419 935 l 419 739 l 88 739 l 88 935 m 531 935 l 863 935 l 863 739 l 531 739 l 531 935 z "},"÷":{"ha":1044,"x_min":43,"x_max":961,"o":"m 43 332 l 43 528 l 961 528 l 961 332 l 43 332 m 329 722 l 676 722 l 676 582 l 329 582 l 329 722 m 329 278 l 676 278 l 676 138 l 329 138 l 329 278 z "},"ø":{"ha":942,"x_min":21,"x_max":922,"o":"m 431 82 l 511 82 q 547 90 539 82 q 554 125 554 97 l 554 346 l 388 174 l 388 125 q 395 90 388 97 q 431 82 403 82 m 388 549 l 388 324 l 554 496 l 554 549 q 547 583 554 575 q 511 592 539 592 l 431 592 q 395 583 403 592 q 388 549 388 575 m 874 564 l 874 110 q 764 0 874 0 l 219 0 l 167 -54 l 21 -54 l 97 25 q 68 110 68 53 l 68 564 q 178 674 68 674 l 726 674 l 778 726 l 922 726 l 846 647 q 874 564 874 619 z "},"ù":{"ha":947,"x_min":68,"x_max":869,"o":"m 622 739 l 364 739 l 117 954 l 433 954 l 622 739 m 536 674 l 869 674 l 869 0 l 536 0 l 536 36 q 456 0 517 0 l 178 0 q 68 110 68 0 l 68 674 l 401 674 l 401 125 q 409 90 401 97 q 444 82 417 82 l 483 82 q 536 122 536 82 l 536 674 z "},"ú":{"ha":947,"x_min":68,"x_max":869,"o":"m 842 956 l 594 740 l 336 740 l 525 956 l 842 956 m 536 674 l 869 674 l 869 0 l 536 0 l 536 36 q 456 0 517 0 l 178 0 q 68 110 68 0 l 68 674 l 401 674 l 401 125 q 409 90 401 97 q 444 82 417 82 l 483 82 q 536 122 536 82 l 536 674 z "},"û":{"ha":947,"x_min":60,"x_max":883,"o":"m 471 856 l 368 739 l 60 739 l 321 965 l 622 965 l 883 739 l 575 739 l 471 856 m 536 674 l 869 674 l 869 0 l 536 0 l 536 36 q 456 0 517 0 l 178 0 q 68 110 68 0 l 68 674 l 401 674 l 401 125 q 409 90 401 97 q 444 82 417 82 l 483 82 q 536 122 536 82 l 536 674 z "},"ü":{"ha":979,"x_min":68,"x_max":869,"o":"m 857 935 l 857 739 l 525 739 l 525 935 l 857 935 m 414 935 l 414 739 l 82 739 l 82 935 l 414 935 m 536 674 l 869 674 l 869 0 l 536 0 l 536 36 q 456 0 517 0 l 178 0 q 68 110 68 0 l 68 674 l 401 674 l 401 125 q 409 90 401 97 q 444 82 417 82 l 483 82 q 536 122 536 82 l 536 674 z "},"ý":{"ha":908,"x_min":0,"x_max":908,"o":"m 344 -196 l 143 -196 l 143 -114 l 236 -114 q 321 -96 293 -114 q 364 -37 349 -78 l 378 0 l 250 0 l 0 674 l 349 674 l 457 214 l 574 674 l 908 674 l 663 10 q 560 -149 622 -103 q 344 -196 497 -196 m 331 740 l 519 956 l 836 956 l 589 740 l 331 740 z "},"þ":{"ha":947,"x_min":76,"x_max":878,"o":"m 544 139 l 544 561 q 536 597 544 589 q 501 604 528 604 l 463 604 q 410 564 410 604 l 410 136 q 463 96 410 96 l 501 96 q 536 103 528 96 q 544 139 544 111 m 490 686 l 768 686 q 878 576 878 686 l 878 124 q 768 14 878 14 l 490 14 q 410 50 429 14 l 410 -196 l 76 -196 l 76 929 l 403 929 l 403 631 q 490 686 417 686 z "},"ÿ":{"ha":979,"x_min":0,"x_max":908,"o":"m 344 -196 l 143 -196 l 143 -114 l 236 -114 q 321 -96 293 -114 q 364 -37 349 -78 l 378 0 l 250 0 l 0 674 l 349 674 l 457 214 l 574 674 l 908 674 l 663 10 q 560 -149 622 -103 q 344 -196 497 -196 m 524 933 l 856 933 l 856 738 l 524 738 l 524 933 m 81 933 l 413 933 l 413 738 l 81 738 l 81 933 z "},"Ā":{"ha":1064,"x_min":0,"x_max":1064,"o":"m 922 1010 l 922 929 l 161 929 l 161 1010 l 922 1010 m 411 253 l 646 253 l 531 663 l 411 253 m 718 0 l 669 171 l 388 171 l 338 0 l 0 0 l 324 864 l 740 864 l 1064 0 l 718 0 z "},"ā":{"ha":938,"x_min":58,"x_max":860,"o":"m 849 833 l 849 753 l 88 753 l 88 833 l 849 833 m 435 82 l 474 82 q 526 122 526 82 l 526 551 q 474 592 526 592 l 435 592 q 400 583 408 592 q 392 549 392 575 l 392 125 q 400 90 392 97 q 435 82 408 82 m 526 674 l 860 674 l 860 0 l 526 0 l 526 36 q 446 0 507 0 l 168 0 q 58 110 58 0 l 58 564 q 168 674 58 674 l 446 674 q 526 638 507 674 l 526 674 z "},"Ă":{"ha":1064,"x_min":0,"x_max":1064,"o":"m 807 929 l 256 929 q 146 1039 146 929 l 146 1131 l 439 1131 l 439 1054 q 447 1019 439 1028 q 482 1011 456 1011 l 581 1011 q 616 1019 608 1011 q 624 1054 624 1028 l 624 1131 l 917 1131 l 917 1039 q 807 929 917 929 m 411 253 l 646 253 l 531 663 l 411 253 m 718 0 l 669 171 l 388 171 l 338 0 l 0 0 l 324 864 l 740 864 l 1064 0 l 718 0 z "},"ă":{"ha":938,"x_min":58,"x_max":860,"o":"m 747 739 l 196 739 q 86 849 86 739 l 86 940 l 379 940 l 379 864 q 387 828 379 836 q 422 821 394 821 l 521 821 q 556 828 547 821 q 564 864 564 836 l 564 940 l 857 940 l 857 849 q 747 739 857 739 m 435 82 l 474 82 q 526 122 526 82 l 526 551 q 474 592 526 592 l 435 592 q 400 583 408 592 q 392 549 392 575 l 392 125 q 400 90 392 97 q 435 82 408 82 m 526 674 l 860 674 l 860 0 l 526 0 l 526 36 q 446 0 507 0 l 168 0 q 58 110 58 0 l 58 564 q 168 674 58 674 l 446 674 q 526 638 507 674 l 526 674 z "},"Ą":{"ha":1064,"x_min":0,"x_max":1088,"o":"m 411 253 l 646 253 l 531 663 l 411 253 m 869 -287 l 1088 -287 l 1088 -369 l 704 -369 q 594 -260 594 -369 l 594 -153 q 704 -43 594 -43 l 718 -43 l 718 0 l 669 171 l 388 171 l 338 0 l 0 0 l 324 864 l 740 864 l 1064 0 l 1051 0 l 1051 -125 l 869 -125 q 834 -133 842 -125 q 826 -168 826 -142 l 826 -244 q 834 -280 826 -272 q 869 -287 842 -287 z "},"ą":{"ha":938,"x_min":58,"x_max":896,"o":"m 435 82 l 474 82 q 526 122 526 82 l 526 551 q 474 592 526 592 l 435 592 q 400 583 408 592 q 392 549 392 575 l 392 125 q 400 90 392 97 q 435 82 408 82 m 678 -287 l 896 -287 l 896 -369 l 513 -369 q 403 -260 403 -369 l 403 -153 q 513 -43 403 -43 l 526 -43 l 526 36 q 446 0 507 0 l 168 0 q 58 110 58 0 l 58 564 q 168 674 58 674 l 446 674 q 526 638 507 674 l 526 674 l 860 674 l 860 -125 l 678 -125 q 642 -133 650 -125 q 635 -168 635 -142 l 635 -244 q 642 -280 635 -272 q 678 -287 650 -287 z "},"Ć":{"ha":969,"x_min":68,"x_max":921,"o":"m 867 1144 l 619 929 l 361 929 l 550 1144 l 867 1144 m 921 542 l 568 542 l 568 739 q 560 774 568 767 q 525 782 553 782 l 464 782 q 428 774 436 782 q 421 739 421 767 l 421 125 q 428 90 421 97 q 464 82 436 82 l 525 82 q 560 90 553 82 q 568 125 568 97 l 568 318 l 921 318 l 921 110 q 811 0 921 0 l 178 0 q 68 110 68 0 l 68 754 q 178 864 68 864 l 811 864 q 921 754 921 864 l 921 542 z "},"ć":{"ha":883,"x_min":58,"x_max":844,"o":"m 833 954 l 586 739 l 328 739 l 517 954 l 833 954 m 844 421 l 522 421 l 522 549 q 514 583 522 575 q 479 592 506 592 l 435 592 q 400 583 408 592 q 392 549 392 575 l 392 125 q 400 90 392 97 q 435 82 408 82 l 479 82 q 514 90 506 82 q 522 125 522 97 l 522 249 l 844 249 l 844 110 q 735 0 844 0 l 168 0 q 58 110 58 0 l 58 564 q 168 674 58 674 l 735 674 q 844 564 844 674 l 844 421 z "},"Č":{"ha":969,"x_min":68,"x_max":921,"o":"m 640 929 l 339 929 l 78 1156 l 386 1156 l 489 1039 l 593 1156 l 901 1156 l 640 929 m 921 542 l 568 542 l 568 739 q 560 774 568 767 q 525 782 553 782 l 464 782 q 428 774 436 782 q 421 739 421 767 l 421 125 q 428 90 421 97 q 464 82 436 82 l 525 82 q 560 90 553 82 q 568 125 568 97 l 568 318 l 921 318 l 921 110 q 811 0 921 0 l 178 0 q 68 110 68 0 l 68 754 q 178 864 68 864 l 811 864 q 921 754 921 864 l 921 542 z "},"č":{"ha":883,"x_min":31,"x_max":854,"o":"m 593 739 l 292 739 l 31 965 l 339 965 l 442 849 l 546 965 l 854 965 l 593 739 m 168 674 l 735 674 q 844 564 844 674 l 844 421 l 522 421 l 522 549 q 514 583 522 575 q 479 592 506 592 l 435 592 q 400 583 408 592 q 392 549 392 575 l 392 125 q 400 90 392 97 q 435 82 408 82 l 479 82 q 514 90 506 82 q 522 125 522 97 l 522 249 l 844 249 l 844 110 q 735 0 844 0 l 168 0 q 58 110 58 0 l 58 564 q 168 674 58 674 z "},"Ď":{"ha":1036,"x_min":97,"x_max":964,"o":"m 660 929 l 358 929 l 97 1156 l 406 1156 l 508 1039 l 613 1156 l 921 1156 l 660 929 m 611 125 l 611 739 q 603 774 611 767 q 568 782 594 782 l 450 782 l 450 82 l 568 82 q 603 90 594 82 q 611 125 611 97 m 97 864 l 854 864 q 964 754 964 864 l 964 110 q 854 0 964 0 l 97 0 l 97 864 z "},"ď":{"ha":1018,"x_min":58,"x_max":1165,"o":"m 526 929 l 860 929 l 860 0 l 526 0 l 526 36 q 446 0 507 0 l 168 0 q 58 110 58 0 l 58 564 q 168 674 58 674 l 446 674 q 526 638 507 674 l 526 929 m 938 929 l 1165 929 l 1165 826 l 1017 643 l 938 643 l 938 929 m 435 82 l 474 82 q 526 122 526 82 l 526 551 q 474 592 526 592 l 435 592 q 400 583 408 592 q 392 549 392 575 l 392 125 q 400 90 392 97 q 435 82 408 82 z "},"Đ":{"ha":1051,"x_min":-10,"x_max":964,"o":"m 611 125 l 611 739 q 603 774 611 767 q 568 782 594 782 l 450 782 l 450 483 l 549 483 l 549 394 l 450 394 l 450 82 l 568 82 q 603 90 594 82 q 611 125 611 97 m 97 864 l 854 864 q 964 754 964 864 l 964 110 q 854 0 964 0 l 97 0 l 97 394 l -10 394 l -10 483 l 97 483 l 97 864 z "},"đ":{"ha":947,"x_min":68,"x_max":968,"o":"m 444 82 l 483 82 q 536 122 536 82 l 536 551 q 483 592 536 592 l 444 592 q 409 583 417 592 q 401 549 401 575 l 401 125 q 409 90 401 97 q 444 82 417 82 m 968 832 l 968 750 l 869 750 l 869 0 l 536 0 l 536 36 q 456 0 517 0 l 178 0 q 68 110 68 0 l 68 564 q 178 674 68 674 l 456 674 q 536 638 517 674 l 536 750 l 419 750 l 419 832 l 536 832 l 536 929 l 869 929 l 869 832 l 968 832 z "},"Ē":{"ha":879,"x_min":71,"x_max":850,"o":"m 832 1010 l 832 929 l 71 929 l 71 1010 l 832 1010 m 444 82 l 850 82 l 850 0 l 78 0 l 78 864 l 832 864 l 832 782 l 444 782 l 444 483 l 775 483 l 775 401 l 444 401 l 444 82 z "},"ē":{"ha":922,"x_min":58,"x_max":874,"o":"m 850 833 l 850 753 l 89 753 l 89 833 l 850 833 m 392 386 l 551 386 l 551 549 q 544 583 551 575 q 508 592 536 592 l 435 592 q 400 583 408 592 q 392 549 392 575 l 392 386 m 168 674 l 764 674 q 874 564 874 674 l 874 304 l 392 304 l 392 125 q 400 90 392 97 q 435 82 408 82 l 508 82 q 544 90 536 82 q 551 125 551 97 l 551 228 l 874 228 l 874 110 q 764 0 874 0 l 168 0 q 58 110 58 0 l 58 564 q 168 674 58 674 z "},"Ė":{"ha":879,"x_min":78,"x_max":850,"o":"m 640 1125 l 640 929 l 308 929 l 308 1125 l 640 1125 m 444 82 l 850 82 l 850 0 l 78 0 l 78 864 l 832 864 l 832 782 l 444 782 l 444 483 l 775 483 l 775 401 l 444 401 l 444 82 z "},"ė":{"ha":922,"x_min":58,"x_max":874,"o":"m 635 935 l 635 739 l 303 739 l 303 935 l 635 935 m 392 386 l 551 386 l 551 549 q 544 583 551 575 q 508 592 536 592 l 435 592 q 400 583 408 592 q 392 549 392 575 l 392 386 m 168 674 l 764 674 q 874 564 874 674 l 874 304 l 392 304 l 392 125 q 400 90 392 97 q 435 82 408 82 l 508 82 q 544 90 536 82 q 551 125 551 97 l 551 228 l 874 228 l 874 110 q 764 0 874 0 l 168 0 q 58 110 58 0 l 58 564 q 168 674 58 674 z "},"Ę":{"ha":879,"x_min":78,"x_max":886,"o":"m 668 -287 l 886 -287 l 886 -369 l 503 -369 q 393 -260 393 -369 l 393 -153 q 503 -43 393 -43 l 517 -43 l 517 0 l 78 0 l 78 864 l 832 864 l 832 782 l 444 782 l 444 483 l 775 483 l 775 401 l 444 401 l 444 82 l 850 82 l 850 -125 l 668 -125 q 633 -133 642 -125 q 625 -168 625 -142 l 625 -244 q 633 -280 625 -272 q 668 -287 642 -287 z "},"ę":{"ha":922,"x_min":58,"x_max":874,"o":"m 392 386 l 551 386 l 551 549 q 544 583 551 575 q 508 592 536 592 l 435 592 q 400 583 408 592 q 392 549 392 575 l 392 386 m 168 674 l 764 674 q 874 564 874 674 l 874 304 l 392 304 l 392 125 q 400 90 392 97 q 435 82 408 82 l 508 82 q 544 90 536 82 q 551 125 551 97 l 551 228 l 874 228 l 874 110 q 764 0 874 0 l 639 0 l 639 -125 l 457 -125 q 422 -133 431 -125 q 414 -168 414 -142 l 414 -244 q 422 -280 414 -272 q 457 -287 431 -287 l 675 -287 l 675 -369 l 292 -369 q 182 -260 182 -369 l 182 -153 q 292 -43 182 -43 l 306 -43 l 306 0 l 168 0 q 58 110 58 0 l 58 564 q 168 674 58 674 z "},"Ě":{"ha":879,"x_min":56,"x_max":879,"o":"m 618 929 l 317 929 l 56 1156 l 364 1156 l 467 1039 l 571 1156 l 879 1156 l 618 929 m 444 401 l 444 82 l 850 82 l 850 0 l 78 0 l 78 864 l 832 864 l 832 782 l 444 782 l 444 483 l 775 483 l 775 401 l 444 401 z "},"ě":{"ha":922,"x_min":56,"x_max":879,"o":"m 618 739 l 317 739 l 56 965 l 364 965 l 467 849 l 571 965 l 879 965 l 618 739 m 392 386 l 551 386 l 551 549 q 544 583 551 575 q 508 592 536 592 l 435 592 q 400 583 408 592 q 392 549 392 575 l 392 386 m 168 674 l 764 674 q 874 564 874 674 l 874 304 l 392 304 l 392 125 q 400 90 392 97 q 435 82 408 82 l 508 82 q 544 90 536 82 q 551 125 551 97 l 551 228 l 874 228 l 874 110 q 764 0 874 0 l 168 0 q 58 110 58 0 l 58 564 q 168 674 58 674 z "},"Ğ":{"ha":981,"x_min":68,"x_max":922,"o":"m 771 929 l 219 929 q 110 1039 110 929 l 110 1131 l 403 1131 l 403 1054 q 411 1019 403 1028 q 446 1011 419 1011 l 544 1011 q 580 1019 572 1011 q 588 1054 588 1028 l 588 1131 l 881 1131 l 881 1039 q 771 929 881 929 m 922 568 l 569 568 l 569 739 q 561 774 569 767 q 526 782 553 782 l 464 782 q 428 774 436 782 q 421 739 421 767 l 421 125 q 428 90 421 97 q 464 82 436 82 l 526 82 q 561 90 553 82 q 569 125 569 97 l 569 363 l 482 363 l 482 444 l 922 444 l 922 110 q 813 0 922 0 l 178 0 q 68 110 68 0 l 68 754 q 178 864 68 864 l 813 864 q 922 754 922 864 l 922 568 z "},"ğ":{"ha":938,"x_min":58,"x_max":860,"o":"m 743 739 l 192 739 q 82 849 82 739 l 82 940 l 375 940 l 375 864 q 383 828 375 836 q 418 821 392 821 l 517 821 q 552 828 544 821 q 560 864 560 836 l 560 940 l 853 940 l 853 849 q 743 739 853 739 m 435 82 l 474 82 q 526 122 526 82 l 526 551 q 474 592 526 592 l 435 592 q 400 583 408 592 q 392 549 392 575 l 392 125 q 400 90 392 97 q 435 82 408 82 m 526 674 l 860 674 l 860 -86 q 750 -196 860 -196 l 104 -196 l 104 -114 l 483 -114 q 519 -106 511 -114 q 526 -71 526 -97 l 526 36 q 446 0 507 0 l 168 0 q 58 110 58 0 l 58 564 q 168 674 58 674 l 446 674 q 526 638 507 674 l 526 674 z "},"Ģ":{"ha":981,"x_min":68,"x_max":922,"o":"m 339 -403 l 339 -62 l 667 -62 l 667 -179 l 440 -403 l 339 -403 m 922 568 l 569 568 l 569 739 q 561 774 569 767 q 526 782 553 782 l 464 782 q 428 774 436 782 q 421 739 421 767 l 421 125 q 428 90 421 97 q 464 82 436 82 l 526 82 q 561 90 553 82 q 569 125 569 97 l 569 363 l 482 363 l 482 444 l 922 444 l 922 110 q 813 0 922 0 l 178 0 q 68 110 68 0 l 68 754 q 178 864 68 864 l 813 864 q 922 754 922 864 l 922 568 z "},"ģ":{"ha":938,"x_min":69,"x_max":871,"o":"m 664 1079 l 664 739 l 338 739 l 338 856 l 563 1079 l 664 1079 m 446 82 l 485 82 q 538 122 538 82 l 538 551 q 485 592 538 592 l 446 592 q 411 583 419 592 q 403 549 403 575 l 403 125 q 411 90 403 97 q 446 82 419 82 m 538 674 l 871 674 l 871 -86 q 761 -196 871 -196 l 115 -196 l 115 -114 l 494 -114 q 530 -106 522 -114 q 538 -71 538 -97 l 538 36 q 457 0 518 0 l 179 0 q 69 110 69 0 l 69 564 q 179 674 69 674 l 457 674 q 538 638 518 674 l 538 674 z "},"Ī":{"ha":500,"x_min":-118,"x_max":643,"o":"m 78 864 l 444 864 l 444 0 l 78 0 l 78 864 m -118 929 l -118 1010 l 643 1010 l 643 929 l -118 929 z "},"ī":{"ha":489,"x_min":-136,"x_max":625,"o":"m 411 0 l 78 0 l 78 674 l 411 674 l 411 0 m -136 753 l -136 833 l 625 833 l 625 753 l -136 753 z "},"Į":{"ha":500,"x_min":-12,"x_max":481,"o":"m 263 -287 l 481 -287 l 481 -369 l 97 -369 q -12 -260 -12 -369 l -12 -153 q 97 -43 -12 -43 l 111 -43 l 111 0 l 78 0 l 78 864 l 444 864 l 444 -125 l 263 -125 q 228 -133 236 -125 q 219 -168 219 -142 l 219 -244 q 228 -280 219 -272 q 263 -287 236 -287 z "},"į":{"ha":489,"x_min":-46,"x_max":447,"o":"m 417 929 l 417 754 l 72 754 l 72 929 l 417 929 m 229 -287 l 447 -287 l 447 -369 l 64 -369 q -46 -260 -46 -369 l -46 -153 q 64 -43 -46 -43 l 78 -43 l 78 674 l 411 674 l 411 -125 l 229 -125 q 194 -133 203 -125 q 186 -168 186 -142 l 186 -244 q 194 -280 186 -272 q 229 -287 203 -287 z "},"İ":{"ha":500,"x_min":78,"x_max":444,"o":"m 78 864 l 444 864 l 444 0 l 78 0 l 78 864 m 92 1125 l 424 1125 l 424 929 l 92 929 l 92 1125 z "},"ı":{"ha":489,"x_min":76,"x_max":410,"o":"m 76 674 l 410 674 l 410 0 l 76 0 l 76 674 z "},"Ķ":{"ha":1038,"x_min":78,"x_max":1026,"o":"m 78 864 l 421 864 l 421 0 l 78 0 l 78 864 m 656 864 l 1024 864 l 779 442 l 1026 0 l 658 0 l 424 442 l 656 864 m 353 -403 l 353 -62 l 681 -62 l 681 -179 l 454 -403 l 353 -403 z "},"ķ":{"ha":931,"x_min":78,"x_max":928,"o":"m 321 -403 l 321 -62 l 649 -62 l 649 -179 l 422 -403 l 321 -403 m 78 929 l 411 929 l 411 0 l 78 0 l 78 929 m 928 674 l 732 340 l 928 0 l 594 0 l 411 340 l 597 674 l 928 674 z "},"Ĺ":{"ha":811,"x_min":78,"x_max":811,"o":"m 636 1143 l 389 928 l 131 928 l 319 1143 l 636 1143 m 431 82 l 811 82 l 811 0 l 78 0 l 78 864 l 431 864 l 431 82 z "},"ĺ":{"ha":489,"x_min":78,"x_max":629,"o":"m 124 994 l 313 1210 l 629 1210 l 382 994 l 124 994 m 411 0 l 78 0 l 78 929 l 411 929 l 411 0 z "},"Ļ":{"ha":811,"x_min":78,"x_max":811,"o":"m 269 -403 l 269 -62 l 597 -62 l 597 -179 l 371 -403 l 269 -403 m 431 82 l 811 82 l 811 0 l 78 0 l 78 864 l 431 864 l 431 82 z "},"ļ":{"ha":489,"x_min":78,"x_max":411,"o":"m 411 0 l 78 0 l 78 929 l 411 929 l 411 0 m 78 -403 l 78 -62 l 406 -62 l 406 -179 l 179 -403 l 78 -403 z "},"Ľ":{"ha":811,"x_min":-162,"x_max":811,"o":"m 400 929 l 99 929 l -162 1156 l 146 1156 l 249 1039 l 353 1156 l 661 1156 l 400 929 m 431 82 l 811 82 l 811 0 l 78 0 l 78 864 l 431 864 l 431 82 z "},"ľ":{"ha":588,"x_min":78,"x_max":717,"o":"m 78 929 l 411 929 l 411 0 l 78 0 l 78 929 m 489 929 l 717 929 l 717 826 l 568 643 l 489 643 l 489 929 z "},"Ł":{"ha":850,"x_min":-76,"x_max":831,"o":"m 450 82 l 831 82 l 831 0 l 97 0 l 97 315 l -76 258 l -76 357 l 97 415 l 97 864 l 450 864 l 450 532 l 656 600 l 656 500 l 450 432 l 450 82 z "},"ł":{"ha":510,"x_min":-106,"x_max":626,"o":"m 421 0 l 88 0 l 88 378 l -106 314 l -106 413 l 88 476 l 88 929 l 421 929 l 421 588 l 626 656 l 626 556 l 421 488 l 421 0 z "},"Ń":{"ha":1044,"x_min":78,"x_max":965,"o":"m 383 929 l 572 1144 l 889 1144 l 642 929 l 383 929 m 639 864 l 965 864 l 965 0 l 672 0 l 404 551 l 404 0 l 78 0 l 78 864 l 372 864 l 639 306 l 639 864 z "},"ń":{"ha":947,"x_min":78,"x_max":879,"o":"m 857 954 l 610 739 l 351 739 l 540 954 l 857 954 m 492 674 l 769 674 q 879 564 879 674 l 879 0 l 546 0 l 546 549 q 538 583 546 575 q 503 592 531 592 l 464 592 q 411 551 411 592 l 411 0 l 78 0 l 78 674 l 411 674 l 411 638 q 492 674 431 674 z "},"Ņ":{"ha":1044,"x_min":78,"x_max":965,"o":"m 639 864 l 965 864 l 965 0 l 672 0 l 404 551 l 404 0 l 78 0 l 78 864 l 372 864 l 639 306 l 639 864 m 367 -403 l 367 -62 l 694 -62 l 694 -179 l 468 -403 l 367 -403 z "},"ņ":{"ha":947,"x_min":78,"x_max":879,"o":"m 325 -403 l 325 -62 l 653 -62 l 653 -179 l 426 -403 l 325 -403 m 492 674 l 769 674 q 879 564 879 674 l 879 0 l 546 0 l 546 549 q 538 583 546 575 q 503 592 531 592 l 464 592 q 411 551 411 592 l 411 0 l 78 0 l 78 674 l 411 674 l 411 638 q 492 674 431 674 z "},"Ň":{"ha":1044,"x_min":78,"x_max":965,"o":"m 365 929 l 104 1156 l 413 1156 l 515 1039 l 619 1156 l 928 1156 l 667 929 l 365 929 m 639 864 l 965 864 l 965 0 l 672 0 l 404 551 l 404 0 l 78 0 l 78 864 l 372 864 l 639 306 l 639 864 z "},"ň":{"ha":947,"x_min":57,"x_max":881,"o":"m 619 738 l 318 738 l 57 964 l 365 964 l 468 847 l 572 964 l 881 964 l 619 738 m 492 674 l 769 674 q 879 564 879 674 l 879 0 l 546 0 l 546 549 q 538 583 546 575 q 503 592 531 592 l 464 592 q 411 551 411 592 l 411 0 l 78 0 l 78 674 l 411 674 l 411 638 q 492 674 431 674 z "},"Ō":{"ha":1011,"x_min":72,"x_max":938,"o":"m 118 929 l 118 1010 l 879 1010 l 879 929 l 118 929 m 938 754 l 938 110 q 828 0 938 0 l 182 0 q 72 110 72 0 l 72 754 q 182 864 72 864 l 828 864 q 938 754 938 864 m 585 125 l 585 739 q 577 774 585 767 q 542 782 569 782 l 468 782 q 433 774 442 782 q 425 739 425 767 l 425 125 q 433 90 425 97 q 468 82 442 82 l 542 82 q 577 90 569 82 q 585 125 585 97 z "},"ō":{"ha":942,"x_min":68,"x_max":874,"o":"m 851 833 l 851 753 l 90 753 l 90 833 l 851 833 m 540 125 l 540 549 q 533 583 540 575 q 497 592 525 592 l 444 592 q 409 583 417 592 q 401 549 401 575 l 401 125 q 409 90 401 97 q 444 82 417 82 l 497 82 q 533 90 525 82 q 540 125 540 97 m 178 674 l 764 674 q 874 564 874 674 l 874 110 q 764 0 874 0 l 178 0 q 68 110 68 0 l 68 564 q 178 674 68 674 z "},"Ő":{"ha":979,"x_min":72,"x_max":1076,"o":"m 182 864 l 828 864 q 938 754 938 864 l 938 110 q 828 0 938 0 l 182 0 q 72 110 72 0 l 72 754 q 182 864 72 864 m 585 739 q 577 774 585 767 q 542 782 569 782 l 468 782 q 433 774 442 782 q 425 739 425 767 l 425 125 q 433 90 425 97 q 468 82 442 82 l 542 82 q 577 90 569 82 q 585 125 585 97 l 585 739 m 417 1146 l 706 1146 l 458 931 l 228 931 l 417 1146 m 788 1146 l 1076 1146 l 815 931 l 585 931 l 788 1146 z "},"ő":{"ha":942,"x_min":68,"x_max":1038,"o":"m 178 674 l 764 674 q 874 564 874 674 l 874 110 q 764 0 874 0 l 178 0 q 68 110 68 0 l 68 564 q 178 674 68 674 m 540 549 q 533 583 540 575 q 497 592 525 592 l 444 592 q 409 583 417 592 q 401 549 401 575 l 401 125 q 409 90 401 97 q 444 82 417 82 l 497 82 q 533 90 525 82 q 540 125 540 97 l 540 549 m 378 954 l 667 954 l 419 739 l 189 739 l 378 954 m 749 954 l 1038 954 l 776 739 l 546 739 l 749 954 z "},"Œ":{"ha":1401,"x_min":76,"x_max":1361,"o":"m 603 125 l 603 739 q 594 774 603 767 q 560 782 586 782 l 472 782 q 437 774 444 782 q 429 739 429 767 l 429 125 q 437 90 429 97 q 472 82 444 82 l 560 82 q 594 90 586 82 q 603 125 603 97 m 956 82 l 1361 82 l 1361 0 l 700 0 l 700 15 q 604 0 658 0 l 186 0 q 76 110 76 0 l 76 754 q 186 864 76 864 l 604 864 q 700 849 658 864 l 700 864 l 1343 864 l 1343 782 l 956 782 l 956 483 l 1286 483 l 1286 401 l 956 401 l 956 82 z "},"œ":{"ha":1413,"x_min":69,"x_max":1357,"o":"m 875 386 l 1035 386 l 1035 549 q 1027 583 1035 575 q 992 592 1019 592 l 918 592 q 883 583 892 592 q 875 549 875 575 l 875 386 m 542 125 l 542 549 q 533 583 542 575 q 499 592 525 592 l 446 592 q 411 583 419 592 q 403 549 403 575 l 403 125 q 411 90 403 97 q 446 82 419 82 l 499 82 q 533 90 525 82 q 542 125 542 97 m 858 674 l 1247 674 q 1357 564 1357 674 l 1357 304 l 875 304 l 875 125 q 883 90 875 97 q 918 82 892 82 l 992 82 q 1027 90 1019 82 q 1035 125 1035 97 l 1035 228 l 1357 228 l 1357 110 q 1247 0 1357 0 l 856 0 q 714 19 736 0 q 696 50 703 29 q 649 11 686 22 q 515 0 613 0 l 179 0 q 69 110 69 0 l 69 564 q 179 674 69 674 l 518 674 q 652 663 615 674 q 699 624 689 651 q 717 653 706 644 q 858 674 739 674 z "},"Ŕ":{"ha":1007,"x_min":78,"x_max":983,"o":"m 861 1144 l 614 929 l 356 929 l 544 1144 l 861 1144 m 551 782 l 431 782 l 431 392 l 551 392 q 586 400 578 392 q 594 435 594 408 l 594 739 q 586 774 594 767 q 551 782 578 782 m 431 310 l 431 0 l 78 0 l 78 864 l 838 864 q 947 754 947 864 l 947 419 q 838 310 947 310 l 788 310 l 983 0 l 614 0 l 435 310 l 431 310 z "},"ŕ":{"ha":656,"x_min":78,"x_max":750,"o":"m 750 954 l 503 739 l 244 739 l 433 954 l 750 954 m 411 674 l 411 592 q 589 678 446 678 l 646 678 l 646 575 l 521 575 q 439 546 467 575 q 411 469 411 517 l 411 0 l 78 0 l 78 674 l 411 674 z "},"Ŗ":{"ha":1007,"x_min":78,"x_max":983,"o":"m 551 782 l 431 782 l 431 392 l 551 392 q 586 400 578 392 q 594 435 594 408 l 594 739 q 586 774 594 767 q 551 782 578 782 m 431 310 l 431 0 l 78 0 l 78 864 l 838 864 q 947 754 947 864 l 947 419 q 838 310 947 310 l 788 310 l 983 0 l 614 0 l 435 310 l 431 310 m 349 -403 l 349 -62 l 676 -62 l 676 -179 l 450 -403 l 349 -403 z "},"ŗ":{"ha":656,"x_min":78,"x_max":646,"o":"m 79 -403 l 79 -62 l 407 -62 l 407 -179 l 181 -403 l 79 -403 m 589 678 l 646 678 l 646 575 l 521 575 q 439 546 467 575 q 411 469 411 517 l 411 0 l 78 0 l 78 674 l 411 674 l 411 592 q 589 678 446 678 z "},"Ř":{"ha":1007,"x_min":78,"x_max":983,"o":"m 649 929 l 347 929 l 86 1156 l 394 1156 l 497 1039 l 601 1156 l 910 1156 l 649 929 m 551 782 l 431 782 l 431 392 l 551 392 q 586 400 578 392 q 594 435 594 408 l 594 739 q 586 774 594 767 q 551 782 578 782 m 431 310 l 431 0 l 78 0 l 78 864 l 838 864 q 947 754 947 864 l 947 419 q 838 310 947 310 l 788 310 l 983 0 l 614 0 l 435 310 l 431 310 z "},"ř":{"ha":656,"x_min":-51,"x_max":772,"o":"m 511 739 l 210 739 l -51 965 l 257 965 l 360 849 l 464 965 l 772 965 l 511 739 m 411 674 l 411 592 q 589 678 446 678 l 646 678 l 646 575 l 521 575 q 439 546 467 575 q 411 469 411 517 l 411 0 l 78 0 l 78 674 l 411 674 z "},"Ś":{"ha":961,"x_min":58,"x_max":903,"o":"m 371 929 l 560 1144 l 876 1144 l 629 929 l 371 929 m 550 125 l 550 351 q 542 386 550 378 q 507 394 533 394 l 168 394 q 58 504 58 394 l 58 754 q 168 864 58 864 l 789 864 q 899 754 899 864 l 899 579 l 546 579 l 546 739 q 538 774 546 767 q 503 782 531 782 l 454 782 q 419 774 428 782 q 411 739 411 767 l 411 519 q 419 484 411 492 q 454 476 428 476 l 793 476 q 903 367 903 476 l 903 110 q 793 0 903 0 l 172 0 q 63 110 63 0 l 63 285 l 415 285 l 415 125 q 423 90 415 97 q 458 82 431 82 l 507 82 q 542 90 533 82 q 550 125 550 97 z "},"ś":{"ha":871,"x_min":47,"x_max":826,"o":"m 321 739 l 510 954 l 826 954 l 579 739 l 321 739 m 489 125 l 489 251 q 481 286 489 278 q 446 294 472 294 l 157 294 q 47 404 47 294 l 47 564 q 157 674 47 674 l 697 674 q 807 564 807 674 l 807 449 l 485 449 l 485 549 q 477 583 485 575 q 442 592 469 592 l 424 592 q 389 583 397 592 q 381 549 381 575 l 381 419 q 389 384 381 392 q 424 376 397 376 l 713 376 q 822 267 822 376 l 822 110 q 713 0 822 0 l 164 0 q 54 110 54 0 l 54 225 l 376 225 l 376 125 q 384 90 376 97 q 419 82 392 82 l 446 82 q 481 90 472 82 q 489 125 489 97 z "},"Ş":{"ha":961,"x_min":58,"x_max":903,"o":"m 550 125 l 550 351 q 542 386 550 378 q 507 394 533 394 l 168 394 q 58 504 58 394 l 58 754 q 168 864 58 864 l 789 864 q 899 754 899 864 l 899 579 l 546 579 l 546 739 q 538 774 546 767 q 503 782 531 782 l 454 782 q 419 774 428 782 q 411 739 411 767 l 411 519 q 419 484 411 492 q 454 476 428 476 l 793 476 q 903 367 903 476 l 903 110 q 793 0 903 0 l 172 0 q 63 110 63 0 l 63 285 l 415 285 l 415 125 q 423 90 415 97 q 458 82 431 82 l 507 82 q 542 90 533 82 q 550 125 550 97 m 315 -403 l 315 -62 l 643 -62 l 643 -179 l 417 -403 l 315 -403 z "},"ş":{"ha":871,"x_min":47,"x_max":822,"o":"m 489 125 l 489 251 q 481 286 489 278 q 446 294 472 294 l 157 294 q 47 404 47 294 l 47 564 q 157 674 47 674 l 697 674 q 807 564 807 674 l 807 449 l 485 449 l 485 549 q 477 583 485 575 q 442 592 469 592 l 424 592 q 389 583 397 592 q 381 549 381 575 l 381 419 q 389 384 381 392 q 424 376 397 376 l 713 376 q 822 267 822 376 l 822 110 q 713 0 822 0 l 164 0 q 54 110 54 0 l 54 225 l 376 225 l 376 125 q 384 90 376 97 q 419 82 392 82 l 446 82 q 481 90 472 82 q 489 125 489 97 m 274 -403 l 274 -62 l 601 -62 l 601 -179 l 375 -403 l 274 -403 z "},"Š":{"ha":961,"x_min":58,"x_max":903,"o":"m 329 929 l 68 1156 l 376 1156 l 479 1039 l 583 1156 l 892 1156 l 631 929 l 329 929 m 550 125 l 550 351 q 542 386 550 378 q 507 394 533 394 l 168 394 q 58 504 58 394 l 58 754 q 168 864 58 864 l 789 864 q 899 754 899 864 l 899 579 l 546 579 l 546 739 q 538 774 546 767 q 503 782 531 782 l 454 782 q 419 774 428 782 q 411 739 411 767 l 411 519 q 419 484 411 492 q 454 476 428 476 l 793 476 q 903 367 903 476 l 903 110 q 793 0 903 0 l 172 0 q 63 110 63 0 l 63 285 l 415 285 l 415 125 q 423 90 415 97 q 458 82 431 82 l 507 82 q 542 90 533 82 q 550 125 550 97 z "},"š":{"ha":871,"x_min":24,"x_max":847,"o":"m 285 739 l 24 965 l 332 965 l 435 849 l 539 965 l 847 965 l 586 739 l 285 739 m 489 125 l 489 251 q 481 286 489 278 q 446 294 472 294 l 157 294 q 47 404 47 294 l 47 564 q 157 674 47 674 l 697 674 q 807 564 807 674 l 807 449 l 485 449 l 485 549 q 477 583 485 575 q 442 592 469 592 l 424 592 q 389 583 397 592 q 381 549 381 575 l 381 419 q 389 384 381 392 q 424 376 397 376 l 713 376 q 822 267 822 376 l 822 110 q 713 0 822 0 l 164 0 q 54 110 54 0 l 54 225 l 376 225 l 376 125 q 384 90 376 97 q 419 82 392 82 l 446 82 q 481 90 472 82 q 489 125 489 97 z "},"Ţ":{"ha":846,"x_min":10,"x_max":836,"o":"m 253 -403 l 253 -62 l 581 -62 l 581 -179 l 354 -403 l 253 -403 m 836 864 l 836 782 l 597 782 l 597 0 l 244 0 l 244 782 l 10 782 l 10 864 l 836 864 z "},"ţ":{"ha":846,"x_min":10,"x_max":836,"o":"m 253 -403 l 253 -62 l 581 -62 l 581 -179 l 354 -403 l 253 -403 m 836 864 l 836 782 l 597 782 l 597 0 l 244 0 l 244 782 l 10 782 l 10 864 l 836 864 z "},"Ť":{"ha":846,"x_min":6,"x_max":836,"o":"m 568 929 l 267 929 l 6 1156 l 314 1156 l 417 1039 l 521 1156 l 829 1156 l 568 929 m 836 864 l 836 782 l 597 782 l 597 0 l 244 0 l 244 782 l 10 782 l 10 864 l 836 864 z "},"ť":{"ha":593,"x_min":10,"x_max":761,"o":"m 451 849 l 451 674 l 574 674 l 574 592 l 451 592 l 451 125 q 459 90 451 97 q 494 82 467 82 l 572 82 l 572 0 l 228 0 q 118 110 118 0 l 118 592 l 10 592 l 10 674 l 118 674 l 118 849 l 451 849 m 535 1025 l 761 1025 l 761 922 l 613 764 l 535 764 l 535 1025 z "},"Ū":{"ha":1022,"x_min":78,"x_max":943,"o":"m 431 864 l 431 125 q 439 90 431 97 q 474 82 447 82 l 547 82 q 583 90 575 82 q 590 125 590 97 l 590 864 l 943 864 l 943 110 q 833 0 943 0 l 188 0 q 78 110 78 0 l 78 864 l 431 864 m 131 929 l 131 1010 l 892 1010 l 892 929 l 131 929 z "},"ū":{"ha":947,"x_min":68,"x_max":869,"o":"m 850 835 l 850 754 l 89 754 l 89 835 l 850 835 m 536 674 l 869 674 l 869 0 l 536 0 l 536 36 q 456 0 517 0 l 178 0 q 68 110 68 0 l 68 674 l 401 674 l 401 125 q 409 90 401 97 q 444 82 417 82 l 483 82 q 536 122 536 82 l 536 674 z "},"Ů":{"ha":1022,"x_min":78,"x_max":943,"o":"m 797 1082 l 797 1039 q 688 929 797 929 l 339 929 q 229 1039 229 929 l 229 1082 q 339 1192 229 1192 l 688 1192 q 797 1082 797 1192 m 589 1054 l 589 1067 q 581 1102 589 1094 q 546 1110 572 1110 l 481 1110 q 445 1102 453 1110 q 438 1067 438 1094 l 438 1054 q 445 1019 438 1028 q 481 1011 453 1011 l 546 1011 q 581 1019 572 1011 q 589 1054 589 1028 m 431 864 l 431 125 q 439 90 431 97 q 474 82 447 82 l 547 82 q 583 90 575 82 q 590 125 590 97 l 590 864 l 943 864 l 943 110 q 833 0 943 0 l 188 0 q 78 110 78 0 l 78 864 l 431 864 z "},"ů":{"ha":947,"x_min":68,"x_max":869,"o":"m 399 874 l 399 861 q 406 826 399 833 q 442 818 414 818 l 507 818 q 542 826 533 818 q 550 861 550 833 l 550 874 q 542 908 550 900 q 507 917 533 917 l 442 917 q 406 908 414 917 q 399 874 399 900 m 649 736 l 300 736 q 190 846 190 736 l 190 889 q 300 999 190 999 l 649 999 q 758 889 758 999 l 758 846 q 649 736 758 736 m 536 674 l 869 674 l 869 0 l 536 0 l 536 36 q 456 0 517 0 l 178 0 q 68 110 68 0 l 68 674 l 401 674 l 401 125 q 409 90 401 97 q 444 82 417 82 l 483 82 q 536 122 536 82 l 536 674 z "},"Ű":{"ha":979,"x_min":78,"x_max":1075,"o":"m 431 864 l 431 125 q 439 90 431 97 q 474 82 447 82 l 547 82 q 583 90 575 82 q 590 125 590 97 l 590 864 l 943 864 l 943 110 q 833 0 943 0 l 188 0 q 78 110 78 0 l 78 864 l 431 864 m 786 1143 l 1075 1143 l 814 928 l 583 928 l 786 1143 m 415 1143 l 704 1143 l 457 928 l 226 928 l 415 1143 z "},"ű":{"ha":947,"x_min":68,"x_max":1025,"o":"m 764 740 l 533 740 l 736 956 l 1025 956 l 764 740 m 654 956 l 407 740 l 176 740 l 365 956 l 654 956 m 536 674 l 869 674 l 869 0 l 536 0 l 536 36 q 456 0 517 0 l 178 0 q 68 110 68 0 l 68 674 l 401 674 l 401 125 q 409 90 401 97 q 444 82 417 82 l 483 82 q 536 122 536 82 l 536 674 z "},"Ų":{"ha":1022,"x_min":78,"x_max":943,"o":"m 590 864 l 943 864 l 943 110 q 833 0 943 0 l 678 0 l 678 -125 l 496 -125 q 461 -133 469 -125 q 453 -168 453 -142 l 453 -244 q 461 -280 453 -272 q 496 -287 469 -287 l 714 -287 l 714 -369 l 331 -369 q 221 -260 221 -369 l 221 -153 q 331 -43 221 -43 l 344 -43 l 344 0 l 188 0 q 78 110 78 0 l 78 864 l 431 864 l 431 125 q 439 90 431 97 q 474 82 447 82 l 547 82 q 583 90 575 82 q 590 125 590 97 l 590 864 z "},"ų":{"ha":947,"x_min":68,"x_max":906,"o":"m 688 -287 l 906 -287 l 906 -369 l 522 -369 q 413 -260 413 -369 l 413 -153 q 522 -43 413 -43 l 536 -43 l 536 36 q 456 0 517 0 l 178 0 q 68 110 68 0 l 68 674 l 401 674 l 401 125 q 409 90 401 97 q 444 82 417 82 l 483 82 q 536 122 536 82 l 536 674 l 869 674 l 869 -125 l 688 -125 q 653 -133 661 -125 q 644 -168 644 -142 l 644 -244 q 653 -280 644 -272 q 688 -287 661 -287 z "},"Ÿ":{"ha":1025,"x_min":4,"x_max":1021,"o":"m 467 1125 l 467 929 l 135 929 l 135 1125 l 467 1125 m 910 1125 l 910 929 l 578 929 l 578 1125 l 910 1125 m 699 0 l 346 0 l 346 288 l 4 864 l 347 864 l 519 457 l 679 864 l 1021 864 l 699 292 l 699 0 z "},"Ź":{"ha":908,"x_min":39,"x_max":869,"o":"m 844 1144 l 597 929 l 339 929 l 528 1144 l 844 1144 m 869 864 l 869 782 l 439 82 l 856 82 l 856 0 l 39 0 l 39 82 l 469 782 l 65 782 l 65 864 l 869 864 z "},"ź":{"ha":765,"x_min":19,"x_max":783,"o":"m 783 954 l 536 739 l 278 739 l 467 954 l 783 954 m 746 82 l 746 0 l 19 0 l 19 82 l 369 592 l 44 592 l 44 674 l 726 674 l 726 592 l 369 82 l 746 82 z "},"Ż":{"ha":908,"x_min":39,"x_max":869,"o":"m 651 1125 l 651 929 l 319 929 l 319 1125 l 651 1125 m 869 864 l 869 782 l 439 82 l 856 82 l 856 0 l 39 0 l 39 82 l 469 782 l 65 782 l 65 864 l 869 864 z "},"ż":{"ha":765,"x_min":19,"x_max":746,"o":"m 567 935 l 567 739 l 235 739 l 235 935 l 567 935 m 746 82 l 746 0 l 19 0 l 19 82 l 369 592 l 44 592 l 44 674 l 726 674 l 726 592 l 369 82 l 746 82 z "},"Ž":{"ha":908,"x_min":39,"x_max":900,"o":"m 639 929 l 338 929 l 76 1156 l 385 1156 l 488 1039 l 592 1156 l 900 1156 l 639 929 m 65 782 l 65 864 l 869 864 l 869 782 l 439 82 l 856 82 l 856 0 l 39 0 l 39 82 l 469 782 l 65 782 z "},"ž":{"ha":765,"x_min":-7,"x_max":817,"o":"m 556 739 l 254 739 l -7 965 l 301 965 l 404 849 l 508 965 l 817 965 l 556 739 m 746 82 l 746 0 l 19 0 l 19 82 l 369 592 l 44 592 l 44 674 l 726 674 l 726 592 l 369 82 l 746 82 z "},"ƒ":{"ha":861,"x_min":15,"x_max":811,"o":"m 811 818 l 753 818 q 697 803 715 818 q 669 751 678 789 l 653 674 l 781 674 l 781 592 l 635 592 l 501 -29 q 422 -154 483 -112 q 214 -196 361 -196 l 15 -196 l 15 -114 l 74 -114 q 130 -99 111 -114 q 157 -47 149 -85 l 294 592 l 167 592 l 167 674 l 313 674 l 325 733 q 403 858 342 817 q 613 900 465 900 l 811 900 l 811 818 z "},"Ș":{"ha":961,"x_min":58,"x_max":903,"o":"m 550 125 l 550 351 q 542 386 550 378 q 507 394 533 394 l 168 394 q 58 504 58 394 l 58 754 q 168 864 58 864 l 789 864 q 899 754 899 864 l 899 579 l 546 579 l 546 739 q 538 774 546 767 q 503 782 531 782 l 454 782 q 419 774 428 782 q 411 739 411 767 l 411 519 q 419 484 411 492 q 454 476 428 476 l 793 476 q 903 367 903 476 l 903 110 q 793 0 903 0 l 172 0 q 63 110 63 0 l 63 285 l 415 285 l 415 125 q 423 90 415 97 q 458 82 431 82 l 507 82 q 542 90 533 82 q 550 125 550 97 m 310 -403 l 310 -62 l 638 -62 l 638 -179 l 411 -403 l 310 -403 z "},"ș":{"ha":871,"x_min":47,"x_max":822,"o":"m 489 125 l 489 251 q 481 286 489 278 q 446 294 472 294 l 157 294 q 47 404 47 294 l 47 564 q 157 674 47 674 l 697 674 q 807 564 807 674 l 807 449 l 485 449 l 485 549 q 477 583 485 575 q 442 592 469 592 l 424 592 q 389 583 397 592 q 381 549 381 575 l 381 419 q 389 384 381 392 q 424 376 397 376 l 713 376 q 822 267 822 376 l 822 110 q 713 0 822 0 l 164 0 q 54 110 54 0 l 54 225 l 376 225 l 376 125 q 384 90 376 97 q 419 82 392 82 l 446 82 q 481 90 472 82 q 489 125 489 97 m 250 -403 l 250 -62 l 578 -62 l 578 -179 l 351 -403 l 250 -403 z "},"Ț":{"ha":846,"x_min":10,"x_max":836,"o":"m 257 -403 l 257 -62 l 585 -62 l 585 -179 l 358 -403 l 257 -403 m 836 864 l 836 782 l 597 782 l 597 0 l 244 0 l 244 782 l 10 782 l 10 864 l 836 864 z "},"ț":{"ha":593,"x_min":10,"x_max":574,"o":"m 139 -403 l 139 -62 l 467 -62 l 467 -179 l 240 -403 l 139 -403 m 574 592 l 451 592 l 451 125 q 459 90 451 97 q 494 82 467 82 l 572 82 l 572 0 l 228 0 q 118 110 118 0 l 118 592 l 10 592 l 10 674 l 118 674 l 118 849 l 451 849 l 451 674 l 574 674 l 574 592 z "},"ˆ":{"ha":979,"x_min":78,"x_max":901,"o":"m 78 703 l 339 929 l 640 929 l 901 703 l 593 703 l 489 819 l 386 703 l 78 703 z "},"ˇ":{"ha":979,"x_min":78,"x_max":901,"o":"m 339 689 l 78 915 l 386 915 l 489 799 l 593 915 l 901 915 l 640 689 l 339 689 z "},"ˉ":{"ha":979,"x_min":108,"x_max":869,"o":"m 108 764 l 108 844 l 869 844 l 869 764 l 108 764 z "},"˘":{"ha":979,"x_min":104,"x_max":875,"o":"m 582 918 l 875 918 l 875 826 q 765 717 875 717 l 214 717 q 104 826 104 717 l 104 918 l 397 918 l 397 842 q 406 806 397 814 q 440 799 414 799 l 539 799 q 574 806 567 799 q 582 842 582 814 l 582 918 z "},"˙":{"ha":979,"x_min":331,"x_max":663,"o":"m 331 715 l 331 911 l 663 911 l 663 715 l 331 715 z "},"˚":{"ha":979,"x_min":206,"x_max":774,"o":"m 774 839 l 774 796 q 664 686 774 686 l 315 686 q 206 796 206 686 l 206 839 q 315 949 206 949 l 664 949 q 774 839 774 949 m 565 811 l 565 824 q 558 858 565 850 q 522 867 550 867 l 457 867 q 422 858 431 867 q 414 824 414 850 l 414 811 q 422 776 414 783 q 457 768 431 768 l 522 768 q 558 776 550 768 q 565 811 565 783 z "},"˛":{"ha":979,"x_min":242,"x_max":735,"o":"m 517 -287 l 735 -287 l 735 -369 l 351 -369 q 242 -260 242 -369 l 242 -153 q 351 -43 242 -43 l 365 -43 l 365 21 l 699 21 l 699 -125 l 517 -125 q 481 -133 489 -125 q 474 -168 474 -142 l 474 -244 q 481 -280 474 -272 q 517 -287 489 -287 z "},"˜":{"ha":979,"x_min":104,"x_max":874,"o":"m 396 821 q 368 793 368 821 l 368 717 l 104 717 l 104 808 q 214 918 104 918 l 336 918 q 528 840 418 918 q 582 814 564 814 q 610 842 610 814 l 610 918 l 874 918 l 874 826 q 764 717 874 717 l 642 717 q 450 794 563 717 q 396 821 414 821 z "},"˝":{"ha":979,"x_min":65,"x_max":914,"o":"m 625 918 l 914 918 l 653 703 l 422 703 l 625 918 m 254 918 l 543 918 l 296 703 l 65 703 l 254 918 z "},"π":{"ha":1142,"x_min":26,"x_max":1114,"o":"m 1114 674 l 1114 592 l 982 592 l 982 0 l 649 0 l 649 592 l 492 592 l 492 110 q 382 0 492 0 l 44 0 l 44 82 l 115 82 q 150 90 142 82 q 158 125 158 97 l 158 592 l 26 592 l 26 674 l 1114 674 z "},"ँ":{"ha":0,"x_min":-701,"x_max":181,"o":"m -604 951 q -681 978 -660 951 q -701 1060 -701 1006 l -701 1183 l -408 1183 l -408 1079 q -398 1044 -408 1054 q -361 1033 -387 1033 l -158 1033 q -122 1044 -132 1033 q -112 1079 -112 1054 l -112 1183 l 181 1183 l 181 1060 q 160 978 181 1006 q 85 951 140 951 l -604 951 m -342 1132 l -342 1274 l -178 1274 l -178 1132 l -342 1132 z "},"ं":{"ha":0,"x_min":-436,"x_max":-82,"o":"m -436 954 l -436 1163 l -82 1163 l -82 954 l -436 954 z "},"ः":{"ha":560,"x_min":167,"x_max":504,"o":"m 167 550 l 167 817 l 504 817 l 504 550 l 167 550 m 167 49 l 167 314 l 504 314 l 504 49 l 167 49 z "},"अ":{"ha":1511,"x_min":42,"x_max":1539,"o":"m 1539 864 l 1539 782 l 1435 782 l 1435 0 l 1068 0 l 1068 419 l 919 419 q 921 399 921 413 l 921 213 q 897 133 921 157 q 817 108 872 108 l 146 108 q 66 133 90 108 q 42 213 42 157 l 42 350 l 408 350 l 408 236 q 418 199 408 208 q 456 189 428 189 l 507 189 q 544 199 533 189 q 554 236 554 208 l 554 397 q 544 435 554 425 q 507 444 533 444 l 356 444 l 356 526 l 507 526 q 544 537 533 526 q 554 574 554 547 l 554 735 q 544 772 554 761 q 507 782 533 782 l 456 782 q 418 772 428 782 q 408 735 408 761 l 408 621 l 42 621 l 42 760 q 66 840 42 815 q 146 864 90 864 l 817 864 q 897 840 872 864 q 921 760 921 815 l 921 611 q 897 532 921 556 q 817 508 872 508 l 817 501 l 1068 501 l 1068 864 l 1539 864 z "},"आ":{"ha":2031,"x_min":42,"x_max":2058,"o":"m 2058 864 l 2058 782 l 1954 782 l 1954 0 l 1588 0 l 1588 782 l 1435 782 l 1435 0 l 1068 0 l 1068 419 l 919 419 q 921 399 921 413 l 921 213 q 897 133 921 157 q 817 108 872 108 l 146 108 q 66 133 90 108 q 42 213 42 157 l 42 350 l 408 350 l 408 236 q 418 199 408 208 q 456 189 428 189 l 507 189 q 544 199 533 189 q 554 236 554 208 l 554 397 q 544 435 554 425 q 507 444 533 444 l 356 444 l 356 526 l 507 526 q 544 537 533 526 q 554 574 554 547 l 554 735 q 544 772 554 761 q 507 782 533 782 l 456 782 q 418 772 428 782 q 408 735 408 761 l 408 621 l 42 621 l 42 760 q 66 840 42 815 q 146 864 90 864 l 817 864 q 897 840 872 864 q 921 760 921 815 l 921 611 q 897 532 921 556 q 817 508 872 508 l 817 501 l 1068 501 l 1068 864 l 2058 864 z "},"इ":{"ha":1004,"x_min":-28,"x_max":1032,"o":"m 915 592 l 471 592 q 434 582 444 592 q 424 544 424 572 l 424 497 q 434 460 424 469 q 471 450 444 450 l 844 450 q 924 426 900 450 q 949 346 949 401 l 949 213 q 924 133 949 157 q 844 108 900 108 l 449 108 l 449 0 l 63 0 l 63 264 l 449 264 l 449 190 l 535 190 q 572 201 561 190 q 582 238 582 211 l 582 321 q 572 358 582 347 q 535 368 561 368 l 161 368 q 81 392 106 368 q 57 472 57 417 l 57 569 q 81 649 57 625 q 161 674 106 674 l 549 674 l 549 782 l -28 782 l -28 864 l 1032 864 l 1032 782 l 915 782 l 915 592 z "},"ई":{"ha":1004,"x_min":-28,"x_max":1032,"o":"m 915 592 l 471 592 q 434 582 444 592 q 424 544 424 572 l 424 497 q 434 460 424 469 q 471 450 444 450 l 844 450 q 924 426 900 450 q 949 346 949 401 l 949 213 q 924 133 949 157 q 844 108 900 108 l 449 108 l 449 0 l 63 0 l 63 264 l 449 264 l 449 190 l 535 190 q 572 201 561 190 q 582 238 582 211 l 582 321 q 572 358 582 347 q 535 368 561 368 l 161 368 q 81 392 106 368 q 57 472 57 417 l 57 569 q 81 649 57 625 q 161 674 106 674 l 549 674 l 549 782 l -28 782 l -28 864 l 549 864 l 549 1079 q 573 1159 549 1135 q 653 1183 597 1183 l 1031 1183 l 1031 1101 l 963 1101 q 926 1091 936 1101 q 915 1056 915 1081 l 915 864 l 1032 864 l 1032 782 l 915 782 l 915 592 z "},"उ":{"ha":990,"x_min":-28,"x_max":1018,"o":"m 1018 864 l 1018 782 l 888 782 q 914 725 914 769 l 914 575 q 890 496 914 519 q 810 472 865 472 l 810 465 q 890 442 865 465 q 914 363 914 418 l 914 104 q 890 24 914 49 q 810 0 865 0 l 139 0 q 59 24 83 0 q 35 104 35 49 l 35 286 l 401 286 l 401 128 q 412 92 401 103 q 449 82 422 82 l 500 82 q 537 92 526 82 q 547 128 547 103 l 547 383 q 538 421 547 411 q 500 431 528 431 l 318 431 l 318 513 l 500 513 q 538 523 528 513 q 547 560 547 533 l 547 735 q 538 772 547 761 q 500 782 528 782 l -28 782 l -28 864 l 1018 864 z "},"ऊ":{"ha":1483,"x_min":-28,"x_max":1511,"o":"m 1511 864 l 1511 782 l 901 782 q 928 725 928 769 l 928 581 q 903 501 928 525 q 824 478 879 478 l 824 471 l 1338 471 q 1417 447 1393 471 q 1442 367 1442 422 l 1442 104 q 1417 24 1442 49 q 1338 0 1393 0 l 993 0 l 993 82 l 1028 82 q 1065 92 1054 82 q 1075 128 1075 103 l 1075 343 q 1065 378 1075 368 q 1028 389 1054 389 l 926 389 q 928 368 928 382 l 928 104 q 903 24 928 49 q 824 0 879 0 l 153 0 q 73 24 97 0 q 49 104 49 49 l 49 286 l 415 286 l 415 128 q 426 92 415 103 q 463 82 436 82 l 514 82 q 551 92 540 82 q 561 128 561 103 l 561 383 q 551 421 561 411 q 514 431 542 431 l 332 431 l 332 513 l 514 513 q 551 523 542 513 q 561 560 561 533 l 561 735 q 551 772 561 761 q 514 782 542 782 l -28 782 l -28 864 l 1511 864 z "},"ऋ":{"ha":1988,"x_min":-28,"x_max":2015,"o":"m 1481 544 l 1481 397 q 1490 360 1481 369 q 1528 350 1500 350 l 1533 350 q 1571 360 1561 350 q 1581 397 1581 369 l 1581 544 q 1571 582 1581 572 q 1533 592 1561 592 l 1528 592 q 1490 582 1500 592 q 1481 544 1481 572 m 1039 782 l 1039 350 l 1154 350 q 1122 424 1122 364 l 1122 569 q 1147 649 1122 625 q 1226 674 1171 674 l 1821 674 q 1901 649 1876 674 q 1925 569 1925 625 l 1925 400 q 1851 315 1925 315 l 1851 310 q 1908 292 1890 310 q 1925 222 1925 274 l 1925 104 q 1901 24 1925 49 q 1821 0 1876 0 l 1224 0 q 1144 24 1168 0 q 1119 104 1119 49 l 1119 182 l 1479 182 l 1479 118 q 1491 88 1479 94 q 1531 82 1503 82 l 1536 82 q 1572 93 1564 83 q 1581 129 1581 103 l 1581 221 q 1571 258 1581 247 q 1533 268 1561 268 l 1039 268 l 1039 0 l 674 0 l 674 268 l 646 268 l 419 0 l 22 0 l 297 328 l 197 515 q 143 576 172 561 q 51 592 114 592 l 7 592 l 7 674 l 317 674 q 455 653 414 674 q 529 575 496 633 l 657 350 l 674 350 l 674 782 l -28 782 l -28 864 l 2015 864 l 2015 782 l 1039 782 z "},"ऌ":{"ha":1526,"x_min":-28,"x_max":1554,"o":"m 1454 47 l 1300 47 q 1263 37 1274 47 q 1253 1 1253 26 l 1253 -119 q 1263 -155 1253 -144 q 1300 -165 1274 -165 l 1494 -165 l 1494 -247 l 1013 -247 q 933 -223 957 -247 q 908 -143 908 -199 l 908 25 q 933 105 908 81 q 1013 129 957 129 l 1088 129 l 1088 592 l 989 592 q 952 581 963 592 q 942 546 942 571 l 942 246 l 575 246 l 575 546 q 565 581 575 571 q 528 592 554 592 l 476 592 q 440 581 450 592 q 429 546 429 571 l 429 128 q 440 92 429 103 q 476 82 450 82 l 640 82 l 640 0 l 167 0 q 87 24 111 0 q 63 104 63 49 l 63 569 q 87 649 63 625 q 167 674 111 674 l 651 674 q 731 649 707 674 q 754 569 754 625 l 761 569 q 785 649 761 625 q 864 674 808 674 l 1088 674 l 1088 782 l -28 782 l -28 864 l 1554 864 l 1554 782 l 1454 782 l 1454 47 z "},"ऍ":{"ha":1056,"x_min":-28,"x_max":1083,"o":"m 886 951 l 193 951 q 113 976 138 951 q 89 1056 89 1000 l 89 1183 l 442 1183 l 442 1079 q 452 1044 442 1054 q 489 1033 463 1033 l 590 1033 q 627 1044 617 1033 q 638 1079 638 1054 l 638 1183 l 990 1183 l 990 1056 q 966 976 990 1000 q 886 951 942 951 m 1083 864 l 1083 782 l 989 782 l 989 499 q 965 419 989 443 q 885 394 940 394 l 528 394 l 528 476 l 575 476 q 612 487 601 476 q 622 522 622 497 l 622 782 l 443 782 l 443 128 q 453 92 443 103 q 490 82 464 82 l 568 82 q 605 92 594 82 q 615 128 615 103 l 615 272 l 982 272 l 982 104 q 958 24 982 49 q 878 0 933 0 l 181 0 q 101 24 125 0 q 76 104 76 49 l 76 782 l -28 782 l -28 864 l 1083 864 z "},"ऎ":{"ha":1056,"x_min":-28,"x_max":1083,"o":"m 1083 864 l 1083 782 l 989 782 l 989 499 q 965 419 989 443 q 885 394 940 394 l 528 394 l 528 476 l 575 476 q 612 487 601 476 q 622 522 622 497 l 622 782 l 443 782 l 443 128 q 453 92 443 103 q 490 82 464 82 l 568 82 q 605 92 594 82 q 615 128 615 103 l 615 272 l 982 272 l 982 104 q 958 24 982 49 q 878 0 933 0 l 181 0 q 101 24 125 0 q 76 104 76 49 l 76 782 l -28 782 l -28 864 l 622 864 l 622 904 q 612 940 622 929 q 575 950 601 950 l 192 950 q 112 974 136 950 q 88 1054 88 999 l 88 1183 l 454 1183 l 454 1078 q 465 1042 454 1053 q 501 1032 475 1032 l 885 1032 q 965 1008 940 1032 q 989 928 989 983 l 989 864 l 1083 864 z "},"ए":{"ha":1056,"x_min":-28,"x_max":1083,"o":"m 1083 864 l 1083 782 l 989 782 l 989 499 q 965 419 989 443 q 885 394 940 394 l 528 394 l 528 476 l 575 476 q 612 487 601 476 q 622 522 622 497 l 622 782 l 443 782 l 443 128 q 453 92 443 103 q 490 82 464 82 l 568 82 q 605 92 594 82 q 615 128 615 103 l 615 272 l 982 272 l 982 104 q 958 24 982 49 q 878 0 933 0 l 181 0 q 101 24 125 0 q 76 104 76 49 l 76 782 l -28 782 l -28 864 l 1083 864 z "},"ऐ":{"ha":1056,"x_min":-28,"x_max":1083,"o":"m 1083 864 l 1083 782 l 989 782 l 989 499 q 965 419 989 443 q 885 394 940 394 l 528 394 l 528 476 l 575 476 q 612 487 601 476 q 622 522 622 497 l 622 782 l 443 782 l 443 128 q 453 92 443 103 q 490 82 464 82 l 568 82 q 605 92 594 82 q 615 128 615 103 l 615 272 l 982 272 l 982 104 q 958 24 982 49 q 878 0 933 0 l 181 0 q 101 24 125 0 q 76 104 76 49 l 76 782 l -28 782 l -28 864 l 643 864 q 476 1019 578 903 l 331 1183 l 719 1183 l 989 864 l 1083 864 z "},"ऑ":{"ha":2031,"x_min":42,"x_max":2058,"o":"m 1864 951 l 1171 951 q 1091 976 1115 951 q 1067 1056 1067 1000 l 1067 1183 l 1419 1183 l 1419 1079 q 1430 1044 1419 1054 q 1467 1033 1440 1033 l 1568 1033 q 1605 1044 1594 1033 q 1615 1079 1615 1054 l 1615 1183 l 1968 1183 l 1968 1056 q 1944 976 1968 1000 q 1864 951 1919 951 m 2058 864 l 2058 782 l 1954 782 l 1954 0 l 1588 0 l 1588 782 l 1435 782 l 1435 0 l 1068 0 l 1068 419 l 919 419 q 921 399 921 413 l 921 213 q 897 133 921 157 q 817 108 872 108 l 146 108 q 66 133 90 108 q 42 213 42 157 l 42 350 l 408 350 l 408 236 q 418 199 408 208 q 456 189 428 189 l 507 189 q 544 199 533 189 q 554 236 554 208 l 554 397 q 544 435 554 425 q 507 444 533 444 l 356 444 l 356 526 l 507 526 q 544 537 533 526 q 554 574 554 547 l 554 735 q 544 772 554 761 q 507 782 533 782 l 456 782 q 418 772 428 782 q 408 735 408 761 l 408 621 l 42 621 l 42 760 q 66 840 42 815 q 146 864 90 864 l 817 864 q 897 840 872 864 q 921 760 921 815 l 921 611 q 897 532 921 556 q 817 508 872 508 l 817 501 l 1068 501 l 1068 864 l 2058 864 z "},"ऒ":{"ha":2031,"x_min":42,"x_max":2058,"o":"m 2058 864 l 2058 782 l 1954 782 l 1954 0 l 1588 0 l 1588 782 l 1435 782 l 1435 0 l 1068 0 l 1068 419 l 919 419 q 921 399 921 413 l 921 213 q 897 133 921 157 q 817 108 872 108 l 146 108 q 66 133 90 108 q 42 213 42 157 l 42 350 l 408 350 l 408 236 q 418 199 408 208 q 456 189 428 189 l 507 189 q 544 199 533 189 q 554 236 554 208 l 554 397 q 544 435 554 425 q 507 444 533 444 l 356 444 l 356 526 l 507 526 q 544 537 533 526 q 554 574 554 547 l 554 735 q 544 772 554 761 q 507 782 533 782 l 456 782 q 418 772 428 782 q 408 735 408 761 l 408 621 l 42 621 l 42 760 q 66 840 42 815 q 146 864 90 864 l 817 864 q 897 840 872 864 q 921 760 921 815 l 921 611 q 897 532 921 556 q 817 508 872 508 l 817 501 l 1068 501 l 1068 864 l 1588 864 l 1588 904 q 1577 940 1588 929 q 1540 950 1567 950 l 1157 950 q 1077 974 1101 950 q 1053 1054 1053 999 l 1053 1183 l 1419 1183 l 1419 1078 q 1430 1042 1419 1053 q 1467 1032 1440 1032 l 1850 1032 q 1930 1008 1906 1032 q 1954 928 1954 983 l 1954 864 l 2058 864 z "},"ओ":{"ha":2031,"x_min":42,"x_max":2058,"o":"m 2058 864 l 2058 782 l 1954 782 l 1954 0 l 1588 0 l 1588 782 l 1435 782 l 1435 0 l 1068 0 l 1068 419 l 919 419 q 921 399 921 413 l 921 213 q 897 133 921 157 q 817 108 872 108 l 146 108 q 66 133 90 108 q 42 213 42 157 l 42 350 l 408 350 l 408 236 q 418 199 408 208 q 456 189 428 189 l 507 189 q 544 199 533 189 q 554 236 554 208 l 554 397 q 544 435 554 425 q 507 444 533 444 l 356 444 l 356 526 l 507 526 q 544 537 533 526 q 554 574 554 547 l 554 735 q 544 772 554 761 q 507 782 533 782 l 456 782 q 418 772 428 782 q 408 735 408 761 l 408 621 l 42 621 l 42 760 q 66 840 42 815 q 146 864 90 864 l 817 864 q 897 840 872 864 q 921 760 921 815 l 921 611 q 897 532 921 556 q 817 508 872 508 l 817 501 l 1068 501 l 1068 864 l 1608 864 q 1442 1019 1543 903 l 1296 1183 l 1685 1183 l 1954 864 l 2058 864 z "},"औ":{"ha":2031,"x_min":42,"x_max":2058,"o":"m 2058 864 l 2058 782 l 1954 782 l 1954 0 l 1588 0 l 1588 782 l 1435 782 l 1435 0 l 1068 0 l 1068 419 l 919 419 q 921 399 921 413 l 921 213 q 897 133 921 157 q 817 108 872 108 l 146 108 q 66 133 90 108 q 42 213 42 157 l 42 350 l 408 350 l 408 236 q 418 199 408 208 q 456 189 428 189 l 507 189 q 544 199 533 189 q 554 236 554 208 l 554 397 q 544 435 554 425 q 507 444 533 444 l 356 444 l 356 526 l 507 526 q 544 537 533 526 q 554 574 554 547 l 554 735 q 544 772 554 761 q 507 782 533 782 l 456 782 q 418 772 428 782 q 408 735 408 761 l 408 621 l 42 621 l 42 760 q 66 840 42 815 q 146 864 90 864 l 817 864 q 897 840 872 864 q 921 760 921 815 l 921 611 q 897 532 921 556 q 817 508 872 508 l 817 501 l 1068 501 l 1068 864 l 1585 864 q 1419 1007 1514 917 l 1232 1183 l 1546 1183 l 1610 1104 q 1771 864 1704 989 l 1783 864 q 1697 1106 1757 919 l 1672 1183 l 1901 1183 l 1954 864 l 2058 864 z "},"क":{"ha":1517,"x_min":-28,"x_max":1544,"o":"m 1544 782 l 942 782 l 942 661 q 986 674 956 674 l 1350 674 q 1430 649 1406 674 q 1454 569 1454 625 l 1454 213 q 1430 133 1454 157 q 1350 108 1406 108 l 1011 108 l 1011 190 l 1040 190 q 1077 201 1067 190 q 1088 236 1088 211 l 1088 546 q 1077 581 1088 571 q 1040 592 1067 592 l 989 592 q 951 582 961 592 q 942 544 942 572 l 942 0 l 575 0 l 575 121 q 531 108 561 108 l 167 108 q 87 133 111 108 q 63 213 63 157 l 63 569 q 87 649 63 625 q 167 674 111 674 l 506 674 l 506 592 l 476 592 q 440 581 450 592 q 429 546 429 571 l 429 236 q 440 201 429 211 q 476 190 450 190 l 528 190 q 565 201 556 190 q 575 238 575 211 l 575 782 l -28 782 l -28 864 l 1544 864 l 1544 782 z "},"ख":{"ha":1860,"x_min":-28,"x_max":1888,"o":"m 1888 864 l 1888 782 l 1783 782 l 1783 0 l 1422 0 l 1422 179 q 1378 167 1408 167 l 1068 167 q 988 191 1013 167 q 964 271 964 215 l 964 528 q 988 608 964 583 q 1068 632 1013 632 l 1360 632 l 1360 550 l 1338 550 q 1301 540 1311 550 q 1290 504 1290 529 l 1290 294 q 1301 259 1290 269 q 1338 249 1311 249 l 1375 249 q 1413 259 1403 249 q 1422 296 1422 269 l 1422 782 l 876 782 l 876 397 q 852 317 876 342 q 772 293 828 293 l 429 293 l 429 128 q 440 92 429 103 q 476 82 450 82 l 988 82 l 988 0 l 167 0 q 87 24 111 0 q 63 104 63 49 l 63 599 l 429 599 l 429 375 l 468 375 q 505 385 494 375 q 515 421 515 396 l 515 782 l -28 782 l -28 864 l 1888 864 z "},"ग":{"ha":1489,"x_min":-28,"x_max":1517,"o":"m 428 190 l 500 190 q 537 201 526 190 q 547 236 547 211 l 547 510 l 428 510 q 391 499 401 510 q 381 464 381 489 l 381 236 q 391 201 381 211 q 428 190 401 190 m 1517 864 l 1517 782 l 1413 782 l 1413 0 l 1046 0 l 1046 782 l 914 782 l 914 213 q 890 133 914 157 q 810 108 865 108 l 153 108 q 73 133 97 108 q 49 213 49 157 l 49 488 q 73 567 49 543 q 153 592 97 592 l 547 592 l 547 782 l -28 782 l -28 864 l 1517 864 z "},"घ":{"ha":1196,"x_min":-28,"x_max":1224,"o":"m 753 238 l 753 782 l 481 782 q 443 772 453 782 q 433 735 433 761 l 433 572 q 443 535 433 544 q 481 525 453 525 l 613 525 l 613 443 l 481 443 q 443 433 453 443 q 433 396 433 422 l 433 236 q 444 201 433 211 q 481 190 454 190 l 706 190 q 743 201 733 190 q 753 238 753 211 m 1224 864 l 1224 782 l 1119 782 l 1119 0 l 753 0 l 753 121 q 708 108 739 108 l 171 108 q 91 133 115 108 q 67 213 67 157 l 67 376 q 91 456 67 432 q 171 479 115 479 l 171 486 q 91 510 115 486 q 67 589 67 533 l 67 725 q 93 782 67 769 l -28 782 l -28 864 l 1224 864 z "},"ङ":{"ha":1182,"x_min":-28,"x_max":1210,"o":"m 949 397 l 949 578 l 1175 578 l 1175 397 l 949 397 m -28 864 l 1210 864 l 1210 782 l 882 782 l 882 592 l 472 592 q 435 582 444 592 q 425 544 425 572 l 425 468 q 435 431 425 442 q 472 421 444 421 l 811 421 q 891 397 867 421 q 915 317 915 372 l 915 104 q 891 24 915 49 q 811 0 867 0 l 167 0 q 87 24 111 0 q 63 104 63 49 l 63 222 l 429 222 l 429 128 q 440 92 429 103 q 476 82 450 82 l 501 82 q 538 92 528 82 q 549 129 549 103 l 549 292 q 538 329 549 319 q 501 339 528 339 l 163 339 q 83 363 107 339 q 58 443 58 388 l 58 569 q 83 649 58 625 q 163 674 107 674 l 515 674 l 515 782 l -28 782 l -28 864 z "},"च":{"ha":1176,"x_min":-28,"x_max":1204,"o":"m 1204 864 l 1204 782 l 1100 782 l 1100 0 l 733 0 l 733 121 q 689 108 719 108 l 228 108 q 148 133 172 108 q 124 213 124 157 l 124 535 q 150 592 124 579 l 7 592 l 7 674 l 613 674 l 613 592 l 529 592 q 499 580 507 590 q 490 546 490 569 l 490 236 q 501 201 490 211 q 538 190 511 190 l 686 190 q 724 201 714 190 q 733 238 733 211 l 733 782 l -28 782 l -28 864 l 1204 864 z "},"छ":{"ha":1444,"x_min":-28,"x_max":1472,"o":"m 835 674 l 835 782 l 490 782 q 453 772 464 782 q 443 735 443 761 l 443 518 q 453 481 443 492 q 490 471 464 471 l 564 471 l 564 389 l 490 389 q 453 379 464 389 q 443 342 443 369 l 443 128 q 453 92 443 103 q 490 82 464 82 l 1017 82 q 1053 92 1043 82 q 1064 128 1064 103 l 1064 546 q 1053 581 1064 571 q 1017 592 1043 592 l 993 592 q 956 581 967 592 q 946 546 946 571 l 946 368 q 956 333 946 343 q 993 322 967 322 l 1013 322 l 1013 240 l 732 240 q 652 265 676 240 q 628 344 628 289 l 628 569 q 652 649 628 625 q 732 674 676 674 l 835 674 m 1472 782 l 1174 782 l 1174 674 l 1278 674 q 1358 649 1333 674 q 1382 569 1382 625 l 1382 104 q 1358 24 1382 49 q 1278 0 1333 0 l 181 0 q 101 24 125 0 q 76 104 76 49 l 76 321 q 101 400 76 376 q 181 424 125 424 l 181 431 q 101 454 125 431 q 76 533 76 478 l 76 725 q 103 782 76 769 l -28 782 l -28 864 l 1472 864 l 1472 782 z "},"ज":{"ha":1493,"x_min":-28,"x_max":1521,"o":"m 1521 864 l 1521 782 l 1417 782 l 1417 0 l 1050 0 l 1050 592 l 928 592 l 928 213 q 903 133 928 157 q 824 108 879 108 l 167 108 q 87 133 111 108 q 63 213 63 157 l 63 674 l 415 674 l 415 236 q 426 201 415 211 q 463 190 436 190 l 528 190 q 565 201 554 190 q 575 236 575 211 l 575 674 l 1050 674 l 1050 782 l -28 782 l -28 864 l 1521 864 z "},"झ":{"ha":1535,"x_min":-28,"x_max":1563,"o":"m 1092 460 l 1092 782 l 919 782 l 919 592 l 483 592 q 446 582 456 592 q 436 544 436 572 l 436 507 q 446 470 436 481 q 483 460 456 460 l 1092 460 m 1563 864 l 1563 782 l 1458 782 l 1458 0 l 1092 0 l 1092 378 l 918 378 q 919 356 919 371 l 919 213 q 895 133 919 157 q 815 108 871 108 l 442 108 l 442 0 l 63 0 l 63 264 l 442 264 l 442 190 l 506 190 q 543 201 533 190 q 553 238 553 211 l 553 331 q 543 368 553 358 q 506 378 533 378 l 174 378 q 94 402 118 378 q 69 482 69 426 l 69 569 q 94 649 69 625 q 174 674 118 674 l 553 674 l 553 782 l -28 782 l -28 864 l 1563 864 z "},"ञ":{"ha":1478,"x_min":-28,"x_max":1506,"o":"m 1506 864 l 1506 782 l 1401 782 l 1401 0 l 1035 0 l 1035 360 l 893 360 l 893 213 q 869 133 893 157 q 789 108 844 108 l 132 108 q 52 133 76 108 q 28 213 28 157 l 28 374 l 394 374 l 394 236 q 405 201 394 211 q 442 190 415 190 l 479 190 q 516 201 506 190 q 526 236 526 211 l 526 546 q 516 581 526 571 q 479 592 506 592 l 271 592 l 271 674 l 789 674 q 869 649 844 674 q 893 569 893 625 l 893 442 l 1035 442 l 1035 782 l -28 782 l -28 864 l 1506 864 z "},"ट":{"ha":992,"x_min":-28,"x_max":1019,"o":"m 894 592 l 481 592 q 444 581 454 592 q 433 546 433 571 l 433 128 q 444 92 433 103 q 481 82 454 82 l 522 82 q 559 92 549 82 q 569 128 569 103 l 569 339 l 936 339 l 936 104 q 912 24 936 49 q 832 0 888 0 l 171 0 q 91 24 115 0 q 67 104 67 49 l 67 569 q 91 649 67 625 q 171 674 115 674 l 528 674 l 528 782 l -28 782 l -28 864 l 1019 864 l 1019 782 l 894 782 l 894 592 z "},"ठ":{"ha":1031,"x_min":-28,"x_max":1058,"o":"m 611 128 l 611 546 q 601 581 611 571 q 564 592 590 592 l 467 592 q 430 581 440 592 q 419 546 419 571 l 419 128 q 430 92 419 103 q 467 82 440 82 l 564 82 q 601 92 590 82 q 611 128 611 103 m 1058 782 l 699 782 l 699 674 l 860 674 q 940 649 915 674 q 964 569 964 625 l 964 104 q 940 24 964 49 q 860 0 915 0 l 171 0 q 91 24 115 0 q 67 104 67 49 l 67 569 q 91 649 67 625 q 171 674 115 674 l 332 674 l 332 782 l -28 782 l -28 864 l 1058 864 l 1058 782 z "},"ड":{"ha":971,"x_min":-28,"x_max":999,"o":"m 882 592 l 472 592 q 435 582 444 592 q 425 544 425 572 l 425 479 q 435 442 425 453 q 472 432 444 432 l 811 432 q 891 408 867 432 q 915 328 915 383 l 915 104 q 891 24 915 49 q 811 0 867 0 l 167 0 q 87 24 111 0 q 63 104 63 49 l 63 232 l 429 232 l 429 128 q 440 92 429 103 q 476 82 450 82 l 501 82 q 538 92 528 82 q 549 129 549 103 l 549 303 q 538 340 549 331 q 501 350 528 350 l 163 350 q 83 374 107 350 q 58 454 58 399 l 58 569 q 83 649 58 625 q 163 674 107 674 l 515 674 l 515 782 l -28 782 l -28 864 l 999 864 l 999 782 l 882 782 l 882 592 z "},"ढ":{"ha":1024,"x_min":-28,"x_max":1051,"o":"m 897 592 l 481 592 q 444 581 454 592 q 433 546 433 571 l 433 128 q 444 92 433 103 q 481 82 454 82 l 589 82 q 626 92 615 82 q 636 128 636 103 l 636 275 q 626 310 636 300 q 589 321 615 321 l 503 321 l 503 403 l 864 403 q 944 378 919 403 q 968 299 968 354 l 968 104 q 944 24 968 49 q 864 0 919 0 l 171 0 q 91 24 115 0 q 67 104 67 49 l 67 569 q 91 649 67 625 q 171 674 115 674 l 531 674 l 531 782 l -28 782 l -28 864 l 1051 864 l 1051 782 l 897 782 l 897 592 z "},"ण":{"ha":1503,"x_min":-28,"x_max":1531,"o":"m 572 236 l 572 782 l 406 782 l 406 236 q 416 201 406 211 q 453 190 426 190 l 525 190 q 562 201 551 190 q 572 236 572 211 m 1531 864 l 1531 782 l 1426 782 l 1426 0 l 1060 0 l 1060 782 l 911 782 l 911 213 q 887 133 911 157 q 807 108 863 108 l 171 108 q 91 133 115 108 q 67 213 67 157 l 67 782 l -28 782 l -28 864 l 1531 864 z "},"त":{"ha":1067,"x_min":-28,"x_max":1094,"o":"m 1094 864 l 1094 782 l 990 782 l 990 0 l 628 0 l 628 592 l 476 592 q 440 581 450 592 q 429 546 429 571 l 429 128 q 440 92 429 103 q 476 82 450 82 l 519 82 l 519 0 l 167 0 q 87 24 111 0 q 63 104 63 49 l 63 569 q 87 649 63 625 q 167 674 111 674 l 628 674 l 628 782 l -28 782 l -28 864 l 1094 864 z "},"थ":{"ha":1464,"x_min":63,"x_max":1492,"o":"m 1492 864 l 1492 782 l 1388 782 l 1388 0 l 1021 0 l 1021 121 q 976 108 1006 108 l 167 108 q 87 133 111 108 q 63 213 63 157 l 63 472 l 506 472 q 542 483 532 472 q 553 518 553 493 l 553 736 q 542 772 553 761 q 506 782 532 782 l 483 782 q 447 772 457 782 q 436 736 436 761 l 436 592 l 76 592 l 76 760 q 101 840 76 815 q 181 864 125 864 l 808 864 q 888 840 864 864 q 913 760 913 815 l 913 494 q 888 415 913 439 q 808 390 864 390 l 429 390 l 429 236 q 440 201 429 211 q 476 190 450 190 l 974 190 q 1010 201 1000 190 q 1021 238 1021 211 l 1021 864 l 1492 864 z "},"द":{"ha":990,"x_min":-28,"x_max":1018,"o":"m 914 592 l 476 592 q 440 581 450 592 q 429 546 429 571 l 429 236 q 440 201 429 211 q 476 190 450 190 l 514 190 q 551 201 542 190 q 561 238 561 211 l 561 369 l 928 369 l 928 0 l 561 0 l 561 121 q 517 108 547 108 l 167 108 q 87 133 111 108 q 63 213 63 157 l 63 569 q 87 649 63 625 q 167 674 111 674 l 547 674 l 547 782 l -28 782 l -28 864 l 1018 864 l 1018 782 l 914 782 l 914 592 z "},"ध":{"ha":1353,"x_min":67,"x_max":1381,"o":"m 1381 864 l 1381 782 l 1276 782 l 1276 0 l 910 0 l 910 121 q 865 108 894 108 l 171 108 q 91 133 115 108 q 67 213 67 157 l 67 349 q 91 428 67 404 q 171 451 115 451 l 171 458 q 91 482 115 458 q 67 561 67 506 l 67 760 q 91 840 67 815 q 171 864 115 864 l 728 864 q 808 840 783 864 q 832 760 832 815 l 832 592 l 535 592 l 535 736 q 524 772 535 761 q 488 782 514 782 l 481 782 q 444 772 454 782 q 433 736 433 761 l 433 544 q 443 507 433 517 q 481 497 453 497 l 621 497 l 621 415 l 481 415 q 443 405 453 415 q 433 368 433 394 l 433 236 q 444 201 433 211 q 481 190 454 190 l 863 190 q 899 201 889 190 q 910 238 910 211 l 910 864 l 1381 864 z "},"न":{"ha":1479,"x_min":-28,"x_max":1507,"o":"m 561 236 l 561 592 l 449 592 q 412 581 422 592 q 401 546 401 571 l 401 236 q 412 201 401 211 q 449 190 422 190 l 514 190 q 551 201 540 190 q 561 236 561 211 m 1507 864 l 1507 782 l 1403 782 l 1403 0 l 1036 0 l 1036 592 l 914 592 l 914 213 q 890 133 914 157 q 810 108 865 108 l 153 108 q 73 133 97 108 q 49 213 49 157 l 49 569 q 73 649 49 625 q 153 674 97 674 l 1036 674 l 1036 782 l -28 782 l -28 864 l 1507 864 z "},"ऩ":{"ha":1479,"x_min":-28,"x_max":1507,"o":"m 301 -190 l 301 18 l 656 18 l 656 -190 l 301 -190 m 561 236 l 561 592 l 449 592 q 412 581 422 592 q 401 546 401 571 l 401 236 q 412 201 401 211 q 449 190 422 190 l 514 190 q 551 201 540 190 q 561 236 561 211 m 1507 864 l 1507 782 l 1403 782 l 1403 0 l 1036 0 l 1036 592 l 914 592 l 914 213 q 890 133 914 157 q 810 108 865 108 l 153 108 q 73 133 97 108 q 49 213 49 157 l 49 569 q 73 649 49 625 q 153 674 97 674 l 1036 674 l 1036 782 l -28 782 l -28 864 l 1507 864 z "},"प":{"ha":1022,"x_min":-28,"x_max":1050,"o":"m 579 238 l 579 782 l 419 782 l 419 236 q 430 201 419 211 q 467 190 440 190 l 532 190 q 569 201 558 190 q 579 238 579 211 m 1050 864 l 1050 782 l 946 782 l 946 0 l 579 0 l 579 121 q 535 108 564 108 l 171 108 q 91 133 115 108 q 67 213 67 157 l 67 782 l -28 782 l -28 864 l 1050 864 z "},"फ":{"ha":1514,"x_min":-28,"x_max":1542,"o":"m 579 238 l 579 782 l 419 782 l 419 236 q 430 201 419 211 q 467 190 440 190 l 532 190 q 569 201 558 190 q 579 238 579 211 m 1542 782 l 946 782 l 946 661 q 990 674 961 674 l 1347 674 q 1427 649 1403 674 q 1451 569 1451 625 l 1451 213 q 1427 133 1451 157 q 1347 108 1403 108 l 1003 108 l 1003 190 l 1038 190 q 1074 201 1064 190 q 1085 236 1085 211 l 1085 546 q 1074 581 1085 571 q 1038 592 1064 592 l 993 592 q 956 582 967 592 q 946 544 946 572 l 946 0 l 579 0 l 579 121 q 535 108 564 108 l 171 108 q 91 133 115 108 q 67 213 67 157 l 67 782 l -28 782 l -28 864 l 1542 864 l 1542 782 z "},"ब":{"ha":1128,"x_min":-28,"x_max":1156,"o":"m 476 190 l 638 190 q 675 201 665 190 l 418 517 q 429 357 429 449 l 429 236 q 440 201 429 211 q 476 190 450 190 m 1156 864 l 1156 782 l 1051 782 l 1051 0 l 685 0 l 685 121 q 640 108 669 108 l 167 108 q 87 133 111 108 q 63 213 63 157 l 63 569 q 87 649 63 625 q 167 674 111 674 l 615 674 l 615 592 l 438 592 l 699 271 q 685 449 685 324 l 685 782 l -28 782 l -28 864 l 1156 864 z "},"भ":{"ha":1518,"x_min":63,"x_max":1546,"o":"m 563 236 l 563 436 l 449 436 q 412 426 422 436 q 401 390 401 415 l 401 236 q 412 201 401 211 q 449 190 422 190 l 515 190 q 552 201 542 190 q 563 236 563 211 m 1546 864 l 1546 782 l 1442 782 l 1442 0 l 1075 0 l 1075 436 l 929 436 l 929 213 q 905 133 929 157 q 825 108 881 108 l 167 108 q 87 133 111 108 q 63 213 63 157 l 63 414 q 87 494 63 469 q 167 518 111 518 l 563 518 l 563 736 q 552 772 563 761 q 515 782 542 782 l 490 782 q 453 772 464 782 q 443 736 443 761 l 443 613 l 76 613 l 76 760 q 101 840 76 815 q 181 864 125 864 l 825 864 q 905 840 881 864 q 929 760 929 815 l 929 518 l 1075 518 l 1075 864 l 1546 864 z "},"म":{"ha":1518,"x_min":-28,"x_max":1546,"o":"m 1079 674 l 1079 782 l 929 782 l 929 674 l 1079 674 m 563 236 l 563 592 l 449 592 q 412 581 422 592 q 401 546 401 571 l 401 236 q 412 201 401 211 q 449 190 422 190 l 515 190 q 552 201 542 190 q 563 236 563 211 m 1546 864 l 1546 782 l 1442 782 l 1442 0 l 1079 0 l 1079 592 l 929 592 l 929 213 q 905 133 929 157 q 825 108 881 108 l 167 108 q 87 133 111 108 q 63 213 63 157 l 63 569 q 87 649 63 625 q 167 674 111 674 l 563 674 l 563 782 l -28 782 l -28 864 l 1546 864 z "},"य":{"ha":1346,"x_min":-28,"x_max":1374,"o":"m 903 238 l 903 782 l 724 782 q 750 725 750 769 l 750 533 q 726 453 750 478 q 646 429 701 429 l 415 429 l 415 236 q 426 201 415 211 q 463 190 436 190 l 856 190 q 893 201 883 190 q 903 238 903 211 m 1374 864 l 1374 782 l 1269 782 l 1269 0 l 903 0 l 903 121 q 858 108 889 108 l 153 108 q 73 133 97 108 q 49 213 49 157 l 49 511 l 336 511 q 373 522 363 511 q 383 557 383 532 l 383 735 q 374 772 383 761 q 336 782 364 782 l -28 782 l -28 864 l 1374 864 z "},"र":{"ha":985,"x_min":-28,"x_max":1013,"o":"m 1013 864 l 1013 782 l 903 782 q 929 725 929 769 l 929 500 q 905 420 929 444 q 825 396 881 396 l 429 396 l 429 128 q 440 92 429 103 q 476 82 450 82 l 504 82 q 541 92 531 82 q 551 128 551 103 l 551 293 l 918 293 l 918 104 q 894 24 918 49 q 814 0 869 0 l 167 0 q 87 24 111 0 q 63 104 63 49 l 63 600 l 429 600 l 429 478 l 515 478 q 552 488 542 478 q 563 524 563 499 l 563 735 q 552 772 563 761 q 515 782 542 782 l -28 782 l -28 864 l 1013 864 z "},"ऱ":{"ha":985,"x_min":-28,"x_max":1013,"o":"m 69 -299 l 69 -90 l 424 -90 l 424 -299 l 69 -299 m 1013 864 l 1013 782 l 903 782 q 929 725 929 769 l 929 500 q 905 420 929 444 q 825 396 881 396 l 429 396 l 429 128 q 440 92 429 103 q 476 82 450 82 l 504 82 q 541 92 531 82 q 551 128 551 103 l 551 293 l 918 293 l 918 104 q 894 24 918 49 q 814 0 869 0 l 167 0 q 87 24 111 0 q 63 104 63 49 l 63 600 l 429 600 l 429 478 l 515 478 q 552 488 542 478 q 563 524 563 499 l 563 735 q 552 772 563 761 q 515 782 542 782 l -28 782 l -28 864 l 1013 864 z "},"ल":{"ha":1531,"x_min":-28,"x_max":1558,"o":"m 1558 864 l 1558 782 l 1454 782 l 1454 0 l 1088 0 l 1088 592 l 989 592 q 952 581 963 592 q 942 546 942 571 l 942 246 l 575 246 l 575 546 q 565 581 575 571 q 528 592 554 592 l 476 592 q 440 581 450 592 q 429 546 429 571 l 429 128 q 440 92 429 103 q 476 82 450 82 l 640 82 l 640 0 l 167 0 q 87 24 111 0 q 63 104 63 49 l 63 569 q 87 649 63 625 q 167 674 111 674 l 651 674 q 731 649 707 674 q 754 569 754 625 l 761 569 q 785 649 761 625 q 864 674 808 674 l 1088 674 l 1088 782 l -28 782 l -28 864 l 1558 864 z "},"ळ":{"ha":1442,"x_min":-28,"x_max":1469,"o":"m 1040 236 l 1040 546 q 1030 581 1040 571 q 993 592 1019 592 l 917 592 q 880 581 890 592 q 869 546 869 571 l 869 236 q 880 201 869 211 q 917 190 890 190 l 993 190 q 1030 201 1019 190 q 1040 236 1040 211 m 572 236 l 572 546 q 562 581 572 571 q 525 592 551 592 l 449 592 q 412 581 422 592 q 401 546 401 571 l 401 236 q 412 201 401 211 q 449 190 422 190 l 525 190 q 562 201 551 190 q 572 236 572 211 m 1469 782 l 1222 782 l 1222 674 l 1282 674 q 1362 649 1338 674 q 1386 569 1386 625 l 1386 213 q 1362 133 1386 157 q 1282 108 1338 108 l 826 108 q 747 133 771 108 q 724 213 724 157 l 717 213 q 693 133 717 157 q 614 108 669 108 l 160 108 q 80 133 104 108 q 56 213 56 157 l 56 569 q 80 649 56 625 q 160 674 104 674 l 614 674 q 693 649 669 674 q 717 569 717 625 l 724 569 q 747 649 724 625 q 826 674 771 674 l 856 674 l 856 782 l -28 782 l -28 864 l 1469 864 l 1469 782 z "},"ऴ":{"ha":1442,"x_min":-28,"x_max":1469,"o":"m 264 -190 l 264 18 l 618 18 l 618 -190 l 264 -190 m 1040 236 l 1040 546 q 1030 581 1040 571 q 993 592 1019 592 l 917 592 q 880 581 890 592 q 869 546 869 571 l 869 236 q 880 201 869 211 q 917 190 890 190 l 993 190 q 1030 201 1019 190 q 1040 236 1040 211 m 572 236 l 572 546 q 562 581 572 571 q 525 592 551 592 l 449 592 q 412 581 422 592 q 401 546 401 571 l 401 236 q 412 201 401 211 q 449 190 422 190 l 525 190 q 562 201 551 190 q 572 236 572 211 m 1469 782 l 1222 782 l 1222 674 l 1282 674 q 1362 649 1338 674 q 1386 569 1386 625 l 1386 213 q 1362 133 1386 157 q 1282 108 1338 108 l 826 108 q 747 133 771 108 q 724 213 724 157 l 717 213 q 693 133 717 157 q 614 108 669 108 l 160 108 q 80 133 104 108 q 56 213 56 157 l 56 569 q 80 649 56 625 q 160 674 104 674 l 614 674 q 693 649 669 674 q 717 569 717 625 l 724 569 q 747 649 724 625 q 826 674 771 674 l 856 674 l 856 782 l -28 782 l -28 864 l 1469 864 l 1469 782 z "},"व":{"ha":1032,"x_min":-28,"x_max":1060,"o":"m 1060 864 l 1060 782 l 956 782 l 956 0 l 589 0 l 589 121 q 544 108 575 108 l 167 108 q 87 133 111 108 q 63 213 63 157 l 63 569 q 87 649 63 625 q 167 674 111 674 l 519 674 l 519 592 l 476 592 q 440 581 450 592 q 429 546 429 571 l 429 236 q 440 201 429 211 q 476 190 450 190 l 542 190 q 579 201 569 190 q 589 238 589 211 l 589 782 l -28 782 l -28 864 l 1060 864 z "},"श":{"ha":1517,"x_min":67,"x_max":1544,"o":"m 178 864 l 829 864 q 909 840 885 864 q 933 760 933 815 l 933 472 q 909 392 933 417 q 829 368 885 368 l 433 368 l 433 128 q 444 92 433 103 q 481 82 454 82 l 508 82 q 545 92 535 82 q 556 128 556 103 l 556 279 l 922 279 l 922 104 q 898 24 922 49 q 818 0 874 0 l 171 0 q 91 24 115 0 q 67 104 67 49 l 67 518 l 433 518 l 433 450 l 519 450 q 556 460 546 450 q 567 496 567 471 l 567 736 q 556 772 567 761 q 519 782 546 782 l 488 782 q 451 772 461 782 q 440 736 440 761 l 440 621 l 74 621 l 74 760 q 98 840 74 815 q 178 864 122 864 m 1544 864 l 1544 782 l 1440 782 l 1440 0 l 1074 0 l 1074 864 l 1544 864 z "},"ष":{"ha":1108,"x_min":-28,"x_max":1136,"o":"m 669 549 l 669 782 l 419 782 l 682 307 q 669 549 669 432 m 481 190 l 622 190 q 665 211 658 190 l 414 667 q 433 451 433 553 l 433 236 q 444 201 433 211 q 481 190 454 190 m 1136 864 l 1136 782 l 1032 782 l 1032 0 l 669 0 l 669 121 q 625 108 656 108 l 171 108 q 91 133 115 108 q 67 213 67 157 l 67 782 l -28 782 l -28 864 l 1136 864 z "},"स":{"ha":1522,"x_min":-28,"x_max":1550,"o":"m 1079 471 l 1079 782 l 911 782 q 938 725 938 769 l 938 493 q 936 471 938 478 l 1079 471 m 1550 864 l 1550 782 l 1446 782 l 1446 0 l 1079 0 l 1079 389 l 433 389 l 433 128 q 444 92 433 103 q 481 82 454 82 l 522 82 q 559 92 549 82 q 569 128 569 103 l 569 297 l 936 297 l 936 104 q 912 24 936 49 q 832 0 888 0 l 171 0 q 91 24 115 0 q 67 104 67 49 l 67 661 l 433 661 l 433 471 l 524 471 q 560 481 550 471 q 571 517 571 492 l 571 735 q 560 772 571 761 q 524 782 550 782 l -28 782 l -28 864 l 1550 864 z "},"ह":{"ha":1021,"x_min":-28,"x_max":1049,"o":"m 932 592 l 481 592 q 444 581 454 592 q 433 546 433 571 l 433 497 q 443 460 433 469 q 481 450 453 450 l 829 450 q 958 333 958 450 l 958 197 l 615 197 l 615 321 q 605 357 615 346 q 568 368 594 368 l 481 368 q 443 358 453 368 q 433 321 433 347 l 433 128 q 444 92 433 103 q 481 82 454 82 l 956 82 l 956 0 l 171 0 q 91 24 115 0 q 67 104 67 49 l 67 292 q 91 371 67 347 q 171 394 115 394 l 171 401 q 91 425 115 401 q 67 504 67 449 l 67 569 q 91 649 67 625 q 171 674 115 674 l 565 674 l 565 782 l -28 782 l -28 864 l 1049 864 l 1049 782 l 932 782 l 932 592 z "},"़":{"ha":0,"x_min":-546,"x_max":-192,"o":"m -546 -299 l -546 -90 l -192 -90 l -192 -299 l -546 -299 z "},"ऽ":{"ha":983,"x_min":64,"x_max":921,"o":"m 921 782 l 478 782 q 440 772 450 782 q 431 735 431 761 l 431 578 q 440 540 431 550 q 478 531 450 531 l 817 531 q 897 506 872 531 q 921 426 921 482 l 921 104 q 897 24 921 49 q 817 0 872 0 l 172 0 q 92 24 117 0 q 68 104 68 49 l 68 232 l 435 232 l 435 128 q 445 92 435 103 q 482 82 456 82 l 507 82 q 544 92 533 82 q 554 129 554 103 l 554 401 q 544 438 554 428 q 507 449 533 449 l 168 449 q 88 473 113 449 q 64 553 64 497 l 64 760 q 88 840 64 815 q 168 864 113 864 l 921 864 l 921 782 z "},"ा":{"ha":519,"x_min":-28,"x_max":547,"o":"m 547 864 l 547 782 l 443 782 l 443 0 l 76 0 l 76 782 l -28 782 l -28 864 l 547 864 z "},"ि":{"ha":519,"x_min":-28,"x_max":1443,"o":"m 181 1183 l 1339 1183 q 1419 1159 1394 1183 q 1443 1079 1443 1135 l 1443 932 l 1076 932 l 1076 1056 q 1066 1091 1076 1081 q 1029 1101 1056 1101 l 490 1101 q 453 1091 464 1101 q 443 1056 443 1081 l 443 864 l 547 864 l 547 782 l 443 782 l 443 0 l 76 0 l 76 782 l -28 782 l -28 864 l 76 864 l 76 1079 q 101 1159 76 1135 q 181 1183 125 1183 z "},"ी":{"ha":519,"x_min":-444,"x_max":547,"o":"m 547 864 l 547 782 l 443 782 l 443 0 l 76 0 l 76 782 l -28 782 l -28 864 l 76 864 l 76 1056 q 66 1091 76 1081 q 29 1101 56 1101 l -31 1101 q -67 1091 -57 1101 q -78 1056 -78 1081 l -78 932 l -444 932 l -444 1079 q -420 1159 -444 1135 q -340 1183 -396 1183 l 339 1183 q 419 1159 394 1183 q 443 1079 443 1135 l 443 864 l 547 864 z "},"ु":{"ha":0,"x_min":-840,"x_max":71,"o":"m -443 0 l -33 0 q 47 -24 22 0 q 71 -104 71 -49 l 71 -271 q 47 -351 71 -326 q -33 -375 22 -375 l -568 -375 q -675 -360 -643 -375 q -743 -286 -707 -344 l -840 -125 l -512 -125 l -437 -254 q -412 -285 -424 -276 q -379 -293 -401 -293 l -322 -293 q -285 -283 -296 -293 q -275 -247 -275 -272 l -275 -128 q -285 -92 -275 -103 q -322 -82 -296 -82 l -443 -82 l -443 0 z "},"ू":{"ha":0,"x_min":-608,"x_max":338,"o":"m -262 -128 l -262 -247 q -252 -283 -262 -272 q -215 -293 -242 -293 l -122 -293 l -122 -375 l -504 -375 q -584 -351 -560 -375 q -608 -271 -608 -326 l -608 -104 q -584 -24 -608 -49 q -504 0 -560 0 l -7 0 q 101 -15 69 0 q 168 -89 133 -31 l 338 -375 l 10 -375 l -137 -121 q -162 -90 -151 -99 q -196 -82 -174 -82 l -215 -82 q -252 -92 -242 -82 q -262 -128 -262 -103 z "},"ृ":{"ha":0,"x_min":-547,"x_max":-14,"o":"m -154 -293 l -14 -293 l -14 -375 l -443 -375 q -523 -351 -499 -375 q -547 -271 -547 -326 l -547 -104 q -523 -24 -547 -49 q -443 0 -499 0 l -76 0 l -76 -82 l -154 -82 q -191 -92 -181 -82 q -201 -128 -201 -103 l -201 -247 q -191 -283 -201 -272 q -154 -293 -181 -293 z "},"ॄ":{"ha":0,"x_min":-547,"x_max":40,"o":"m -154 -590 l 40 -590 l 40 -672 l -443 -672 q -523 -648 -499 -672 q -547 -568 -547 -624 l -547 -414 q -519 -336 -547 -367 q -547 -257 -547 -304 l -547 -104 q -523 -24 -547 -49 q -443 0 -499 0 l 0 0 l 0 -82 l -154 -82 q -191 -92 -181 -82 q -201 -128 -201 -103 l -201 -247 q -191 -283 -201 -272 q -154 -293 -181 -293 l 0 -293 l 0 -378 l -154 -378 q -191 -388 -181 -378 q -201 -424 -201 -399 l -201 -544 q -191 -580 -201 -569 q -154 -590 -181 -590 z "},"ॅ":{"ha":0,"x_min":-711,"x_max":190,"o":"m -162 1183 l 190 1183 l 190 1056 q 166 976 190 1000 q 86 951 142 951 l -607 951 q -687 976 -662 951 q -711 1056 -711 1000 l -711 1183 l -358 1183 l -358 1079 q -348 1044 -358 1054 q -311 1033 -337 1033 l -210 1033 q -173 1044 -183 1033 q -162 1079 -162 1054 l -162 1183 z "},"ॆ":{"ha":0,"x_min":-978,"x_max":-76,"o":"m -564 1032 l -181 1032 q -101 1008 -125 1032 q -76 928 -76 983 l -76 815 l -443 815 l -443 904 q -453 940 -443 929 q -490 950 -464 950 l -874 950 q -953 974 -929 950 q -978 1054 -978 999 l -978 1183 l -611 1183 l -611 1078 q -601 1042 -611 1053 q -564 1032 -590 1032 z "},"े":{"ha":0,"x_min":-736,"x_max":-62,"o":"m -62 846 l -389 846 q -590 1019 -465 878 l -736 1183 l -347 1183 l -62 846 z "},"ै":{"ha":0,"x_min":-800,"x_max":-75,"o":"m -261 864 l -249 864 q -335 1106 -275 919 l -360 1183 l -131 1183 l -75 847 l -422 847 q -612 1007 -478 879 l -800 1183 l -486 1183 l -422 1104 q -261 864 -328 989 z "},"ॉ":{"ha":519,"x_min":-203,"x_max":699,"o":"m -28 782 l -28 864 l 547 864 l 547 782 l 443 782 l 443 0 l 76 0 l 76 782 l -28 782 m 346 1183 l 699 1183 l 699 1056 q 674 976 699 1000 q 594 951 650 951 l -99 951 q -178 976 -154 951 q -203 1056 -203 1000 l -203 1183 l 150 1183 l 150 1079 q 160 1044 150 1054 q 197 1033 171 1033 l 299 1033 q 335 1044 325 1033 q 346 1079 346 1054 l 346 1183 z "},"ॊ":{"ha":519,"x_min":-458,"x_max":547,"o":"m 547 864 l 547 782 l 443 782 l 443 0 l 76 0 l 76 782 l -28 782 l -28 864 l 76 864 l 76 904 q 66 940 76 929 q 29 950 56 950 l -354 950 q -434 974 -410 950 q -458 1054 -458 999 l -458 1183 l -92 1183 l -92 1078 q -81 1042 -92 1053 q -44 1032 -71 1032 l 339 1032 q 419 1008 394 1032 q 443 928 443 983 l 443 864 l 547 864 z "},"ो":{"ha":519,"x_min":-215,"x_max":547,"o":"m 547 864 l 547 782 l 443 782 l 443 0 l 76 0 l 76 782 l -28 782 l -28 864 l 97 864 q -69 1019 32 903 l -215 1183 l 174 1183 l 443 864 l 547 864 z "},"ौ":{"ha":519,"x_min":-279,"x_max":547,"o":"m 547 864 l 547 782 l 443 782 l 443 0 l 76 0 l 76 782 l -28 782 l -28 864 l 74 864 q -92 1007 3 917 l -279 1183 l 35 1183 l 99 1104 q 260 864 193 989 l 272 864 q 186 1106 246 919 l 161 1183 l 390 1183 l 443 864 l 547 864 z "},"्":{"ha":0,"x_min":-443,"x_max":128,"o":"m -443 -83 l -76 -83 l 128 -364 l -239 -364 l -443 -83 z "},"ॐ":{"ha":1972,"x_min":49,"x_max":1903,"o":"m 1544 1067 l 1544 925 l 1381 925 l 1381 1067 l 1544 1067 m 1792 560 q 1872 535 1847 560 q 1896 456 1896 511 l 1896 104 q 1872 24 1896 49 q 1792 0 1847 0 l 1122 0 q 1042 24 1067 0 q 1018 104 1018 49 l 1018 285 l 1385 285 l 1385 128 q 1395 92 1385 103 q 1432 82 1406 82 l 1482 82 q 1519 92 1508 82 q 1529 128 1529 103 l 1529 432 q 1519 467 1529 457 q 1482 478 1508 478 l 824 478 l 824 471 q 903 447 879 471 q 928 368 928 424 l 928 104 q 903 24 928 49 q 824 0 879 0 l 153 0 q 73 24 97 0 q 49 104 49 49 l 49 286 l 415 286 l 415 128 q 426 92 415 103 q 463 82 436 82 l 514 82 q 551 92 540 82 q 561 128 561 103 l 561 383 q 551 421 561 411 q 514 431 542 431 l 332 431 l 332 513 l 514 513 q 551 523 542 513 q 561 560 561 533 l 561 735 q 551 772 561 761 q 514 782 542 782 l 463 782 q 426 772 436 782 q 415 735 415 761 l 415 621 l 49 621 l 49 760 q 73 840 49 815 q 153 864 97 864 l 824 864 q 903 840 879 864 q 928 760 928 815 l 928 581 q 926 560 928 567 l 1792 560 m 1610 976 l 1903 976 l 1903 853 q 1883 772 1903 799 q 1807 744 1863 744 l 1118 744 q 1042 772 1063 744 q 1021 853 1021 799 l 1021 976 l 1314 976 l 1314 872 q 1324 837 1314 847 q 1361 826 1335 826 l 1564 826 q 1600 837 1590 826 q 1610 872 1610 847 l 1610 976 z "},"॑":{"ha":0,"x_min":-408,"x_max":-56,"o":"m -408 988 l -408 1349 l -56 1349 l -56 988 l -408 988 z "},"॒":{"ha":0,"x_min":-697,"x_max":-76,"o":"m -76 -264 l -697 -264 l -697 -182 l -76 -182 l -76 -264 z "},"॓":{"ha":0,"x_min":-537,"x_max":-93,"o":"m -537 1211 l -325 1383 l -93 1106 l -306 933 l -537 1211 z "},"॔":{"ha":0,"x_min":-386,"x_max":58,"o":"m -154 1383 l 58 1211 l -174 933 l -386 1106 l -154 1383 z "},"क़":{"ha":1517,"x_min":-28,"x_max":1544,"o":"m 81 -190 l 81 18 l 435 18 l 435 -190 l 81 -190 m 1544 782 l 942 782 l 942 661 q 986 674 956 674 l 1350 674 q 1430 649 1406 674 q 1454 569 1454 625 l 1454 213 q 1430 133 1454 157 q 1350 108 1406 108 l 1011 108 l 1011 190 l 1040 190 q 1077 201 1067 190 q 1088 236 1088 211 l 1088 546 q 1077 581 1088 571 q 1040 592 1067 592 l 989 592 q 951 582 961 592 q 942 544 942 572 l 942 0 l 575 0 l 575 121 q 531 108 561 108 l 167 108 q 87 133 111 108 q 63 213 63 157 l 63 569 q 87 649 63 625 q 167 674 111 674 l 506 674 l 506 592 l 476 592 q 440 581 450 592 q 429 546 429 571 l 429 236 q 440 201 429 211 q 476 190 450 190 l 528 190 q 565 201 556 190 q 575 238 575 211 l 575 782 l -28 782 l -28 864 l 1544 864 l 1544 782 z "},"ख़":{"ha":1860,"x_min":-28,"x_max":1888,"o":"m 515 -299 l 515 -90 l 869 -90 l 869 -299 l 515 -299 m 1888 864 l 1888 782 l 1783 782 l 1783 0 l 1422 0 l 1422 179 q 1378 167 1408 167 l 1068 167 q 988 191 1013 167 q 964 271 964 215 l 964 528 q 988 608 964 583 q 1068 632 1013 632 l 1360 632 l 1360 550 l 1338 550 q 1301 540 1311 550 q 1290 504 1290 529 l 1290 294 q 1301 259 1290 269 q 1338 249 1311 249 l 1375 249 q 1413 259 1403 249 q 1422 296 1422 269 l 1422 782 l 876 782 l 876 397 q 852 317 876 342 q 772 293 828 293 l 429 293 l 429 128 q 440 92 429 103 q 476 82 450 82 l 988 82 l 988 0 l 167 0 q 87 24 111 0 q 63 104 63 49 l 63 599 l 429 599 l 429 375 l 468 375 q 505 385 494 375 q 515 421 515 396 l 515 782 l -28 782 l -28 864 l 1888 864 z "},"ग़":{"ha":1489,"x_min":-28,"x_max":1517,"o":"m 288 -190 l 288 18 l 642 18 l 642 -190 l 288 -190 m 428 190 l 500 190 q 537 201 526 190 q 547 236 547 211 l 547 510 l 428 510 q 391 499 401 510 q 381 464 381 489 l 381 236 q 391 201 381 211 q 428 190 401 190 m 1517 864 l 1517 782 l 1413 782 l 1413 0 l 1046 0 l 1046 782 l 914 782 l 914 213 q 890 133 914 157 q 810 108 865 108 l 153 108 q 73 133 97 108 q 49 213 49 157 l 49 488 q 73 567 49 543 q 153 592 97 592 l 547 592 l 547 782 l -28 782 l -28 864 l 1517 864 z "},"ज़":{"ha":1493,"x_min":-28,"x_max":1521,"o":"m 319 -190 l 319 18 l 674 18 l 674 -190 l 319 -190 m 1521 864 l 1521 782 l 1417 782 l 1417 0 l 1050 0 l 1050 592 l 928 592 l 928 213 q 903 133 928 157 q 824 108 879 108 l 167 108 q 87 133 111 108 q 63 213 63 157 l 63 674 l 415 674 l 415 236 q 426 201 415 211 q 463 190 436 190 l 528 190 q 565 201 554 190 q 575 236 575 211 l 575 674 l 1050 674 l 1050 782 l -28 782 l -28 864 l 1521 864 z "},"ड़":{"ha":971,"x_min":-28,"x_max":999,"o":"m 308 -299 l 308 -90 l 663 -90 l 663 -299 l 308 -299 m 882 592 l 472 592 q 435 582 444 592 q 425 544 425 572 l 425 479 q 435 442 425 453 q 472 432 444 432 l 811 432 q 891 408 867 432 q 915 328 915 383 l 915 104 q 891 24 915 49 q 811 0 867 0 l 167 0 q 87 24 111 0 q 63 104 63 49 l 63 232 l 429 232 l 429 128 q 440 92 429 103 q 476 82 450 82 l 501 82 q 538 92 528 82 q 549 129 549 103 l 549 303 q 538 340 549 331 q 501 350 528 350 l 163 350 q 83 374 107 350 q 58 454 58 399 l 58 569 q 83 649 58 625 q 163 674 107 674 l 515 674 l 515 782 l -28 782 l -28 864 l 999 864 l 999 782 l 882 782 l 882 592 z "},"ढ़":{"ha":1024,"x_min":-28,"x_max":1051,"o":"m 336 -299 l 336 -90 l 690 -90 l 690 -299 l 336 -299 m 897 592 l 481 592 q 444 581 454 592 q 433 546 433 571 l 433 128 q 444 92 433 103 q 481 82 454 82 l 589 82 q 626 92 615 82 q 636 128 636 103 l 636 275 q 626 310 636 300 q 589 321 615 321 l 503 321 l 503 403 l 864 403 q 944 378 919 403 q 968 299 968 354 l 968 104 q 944 24 968 49 q 864 0 919 0 l 171 0 q 91 24 115 0 q 67 104 67 49 l 67 569 q 91 649 67 625 q 171 674 115 674 l 531 674 l 531 782 l -28 782 l -28 864 l 1051 864 l 1051 782 l 897 782 l 897 592 z "},"फ़":{"ha":1514,"x_min":-28,"x_max":1542,"o":"m 71 -190 l 71 18 l 425 18 l 425 -190 l 71 -190 m 579 238 l 579 782 l 419 782 l 419 236 q 430 201 419 211 q 467 190 440 190 l 532 190 q 569 201 558 190 q 579 238 579 211 m 1542 782 l 946 782 l 946 661 q 990 674 961 674 l 1347 674 q 1427 649 1403 674 q 1451 569 1451 625 l 1451 213 q 1427 133 1451 157 q 1347 108 1403 108 l 1003 108 l 1003 190 l 1038 190 q 1074 201 1064 190 q 1085 236 1085 211 l 1085 546 q 1074 581 1085 571 q 1038 592 1064 592 l 993 592 q 956 582 967 592 q 946 544 946 572 l 946 0 l 579 0 l 579 121 q 535 108 564 108 l 171 108 q 91 133 115 108 q 67 213 67 157 l 67 782 l -28 782 l -28 864 l 1542 864 l 1542 782 z "},"य़":{"ha":1346,"x_min":-28,"x_max":1374,"o":"m 239 -190 l 239 18 l 593 18 l 593 -190 l 239 -190 m 903 238 l 903 782 l 724 782 q 750 725 750 769 l 750 533 q 726 453 750 478 q 646 429 701 429 l 415 429 l 415 236 q 426 201 415 211 q 463 190 436 190 l 856 190 q 893 201 883 190 q 903 238 903 211 m 1374 864 l 1374 782 l 1269 782 l 1269 0 l 903 0 l 903 121 q 858 108 889 108 l 153 108 q 73 133 97 108 q 49 213 49 157 l 49 511 l 336 511 q 373 522 363 511 q 383 557 383 532 l 383 735 q 374 772 383 761 q 336 782 364 782 l -28 782 l -28 864 l 1374 864 z "},"ॠ":{"ha":1988,"x_min":-28,"x_max":2015,"o":"m 1481 544 l 1481 397 q 1490 360 1481 369 q 1528 350 1500 350 l 1533 350 q 1571 360 1561 350 q 1581 397 1581 369 l 1581 544 q 1571 582 1581 572 q 1533 592 1561 592 l 1528 592 q 1490 582 1500 592 q 1481 544 1481 572 m 1039 782 l 1039 350 l 1154 350 q 1122 424 1122 364 l 1122 569 q 1147 649 1122 625 q 1226 674 1171 674 l 1821 674 q 1901 649 1876 674 q 1925 569 1925 625 l 1925 372 q 1901 292 1925 317 q 1821 268 1876 268 l 1514 268 q 1476 258 1486 268 q 1467 221 1467 247 l 1467 129 q 1475 93 1467 103 q 1511 82 1483 83 l 1517 82 q 1556 88 1544 82 q 1568 118 1568 94 l 1568 182 l 1928 182 l 1928 104 q 1903 24 1928 49 q 1824 0 1879 0 l 1226 0 q 1147 24 1171 0 q 1122 104 1122 49 l 1122 185 q 1161 268 1122 256 l 1039 268 l 1039 0 l 674 0 l 674 268 l 646 268 l 419 0 l 22 0 l 297 328 l 197 515 q 143 576 172 561 q 51 592 114 592 l 7 592 l 7 674 l 317 674 q 455 653 414 674 q 529 575 496 633 l 657 350 l 674 350 l 674 782 l -28 782 l -28 864 l 2015 864 l 2015 782 l 1039 782 z "},"ॡ":{"ha":1526,"x_min":-28,"x_max":1554,"o":"m 1454 47 l 1300 47 q 1263 37 1274 47 q 1253 1 1253 26 l 1253 -118 q 1263 -153 1253 -143 q 1300 -164 1274 -164 l 1454 -164 l 1454 -249 l 1300 -249 q 1263 -259 1274 -249 q 1253 -294 1253 -269 l 1253 -415 q 1263 -451 1253 -440 q 1300 -461 1274 -461 l 1494 -461 l 1494 -543 l 1011 -543 q 931 -519 956 -543 q 907 -439 907 -494 l 907 -285 q 935 -207 907 -237 q 907 -128 907 -175 l 907 25 q 931 105 907 81 q 1011 129 956 129 l 1088 129 l 1088 592 l 989 592 q 952 581 963 592 q 942 546 942 571 l 942 246 l 575 246 l 575 546 q 565 581 575 571 q 528 592 554 592 l 476 592 q 440 581 450 592 q 429 546 429 571 l 429 128 q 440 92 429 103 q 476 82 450 82 l 640 82 l 640 0 l 167 0 q 87 24 111 0 q 63 104 63 49 l 63 569 q 87 649 63 625 q 167 674 111 674 l 651 674 q 731 649 707 674 q 754 569 754 625 l 761 569 q 785 649 761 625 q 864 674 808 674 l 1088 674 l 1088 782 l -28 782 l -28 864 l 1554 864 l 1554 782 l 1454 782 l 1454 47 z "},"।":{"ha":575,"x_min":167,"x_max":519,"o":"m 167 0 l 167 864 l 519 864 l 519 0 l 167 0 z "},"॥":{"ha":1079,"x_min":167,"x_max":1024,"o":"m 167 0 l 167 864 l 519 864 l 519 0 l 167 0 m 672 0 l 672 864 l 1024 864 l 1024 0 l 672 0 z "},"०":{"ha":1031,"x_min":83,"x_max":947,"o":"m 483 82 l 549 82 q 585 92 575 82 q 594 128 594 103 l 594 736 q 585 772 594 761 q 549 782 575 782 l 483 782 q 447 772 457 782 q 436 736 436 761 l 436 128 q 447 92 436 103 q 483 82 457 82 m 181 864 l 851 864 q 927 837 907 864 q 947 756 947 810 l 947 108 q 927 27 947 54 q 851 0 907 0 l 181 0 q 104 27 125 0 q 83 108 83 54 l 83 756 q 104 837 83 810 q 181 864 125 864 z "},"१":{"ha":611,"x_min":-21,"x_max":522,"o":"m 522 864 l 522 0 l 156 0 l 156 782 l -21 782 l -21 864 l 522 864 z "},"२":{"ha":992,"x_min":61,"x_max":932,"o":"m 929 82 l 929 0 l 61 0 l 61 82 l 385 378 q 550 568 521 500 q 567 638 567 604 l 567 736 q 556 772 567 761 q 519 782 546 782 l 483 782 q 447 772 457 782 q 436 736 436 761 l 436 560 l 69 560 l 69 756 q 90 837 69 810 q 167 864 111 864 l 836 864 q 911 834 890 864 q 932 749 932 804 l 932 636 q 908 489 932 542 q 824 375 885 436 l 525 82 l 929 82 z "},"३":{"ha":1018,"x_min":63,"x_max":942,"o":"m 528 82 q 565 92 554 82 q 575 128 575 103 l 575 346 q 565 381 575 371 q 528 392 554 392 l 364 392 l 364 474 l 528 474 q 565 484 554 474 q 575 519 575 494 l 575 736 q 565 772 575 761 q 528 782 554 782 l 476 782 q 440 772 450 782 q 429 736 429 761 l 429 607 l 63 607 l 63 756 q 83 837 63 810 q 160 864 104 864 l 844 864 q 942 749 942 864 l 942 558 q 822 443 942 447 l 822 439 q 942 322 942 435 l 942 115 q 844 0 942 0 l 160 0 q 83 27 104 0 q 63 108 63 54 l 63 260 l 429 260 l 429 128 q 440 92 429 103 q 476 82 450 82 l 528 82 z "},"४":{"ha":1007,"x_min":28,"x_max":993,"o":"m 993 210 l 993 129 l 913 129 l 913 0 l 574 0 l 574 129 l 28 129 l 28 256 l 335 864 l 700 864 l 369 210 l 574 210 l 574 453 l 913 453 l 913 210 l 993 210 z "},"५":{"ha":1017,"x_min":81,"x_max":947,"o":"m 447 543 l 850 543 q 926 516 906 543 q 947 435 947 489 l 947 115 q 850 0 947 0 l 181 0 q 104 27 125 0 q 83 108 83 54 l 83 290 l 450 290 l 450 128 q 460 92 450 103 q 497 82 471 82 l 533 82 q 570 92 560 82 q 581 128 581 103 l 581 415 q 570 451 581 440 q 533 463 560 463 l 447 463 l 447 461 l 81 461 l 81 864 l 933 864 l 933 782 l 447 782 l 447 543 z "},"६":{"ha":1044,"x_min":83,"x_max":968,"o":"m 603 128 l 603 390 q 592 426 603 415 q 556 436 582 436 l 449 436 l 449 128 q 459 92 449 103 q 496 82 469 82 l 556 82 q 592 92 582 82 q 603 128 603 103 m 449 518 l 872 518 q 947 491 926 518 q 968 410 968 464 l 968 108 q 948 27 968 54 q 872 0 928 0 l 179 0 q 103 27 124 0 q 83 108 83 54 l 83 756 q 104 837 83 810 q 179 864 125 864 l 868 864 q 944 837 924 864 q 965 756 965 810 l 965 625 l 599 625 l 599 736 q 588 772 599 761 q 551 782 578 782 l 496 782 q 459 772 469 782 q 449 736 449 761 l 449 518 z "},"७":{"ha":821,"x_min":28,"x_max":793,"o":"m 793 864 l 793 756 l 488 0 l 122 0 l 442 782 l 28 782 l 28 864 l 793 864 z "},"८":{"ha":985,"x_min":57,"x_max":926,"o":"m 575 515 l 575 736 q 565 772 575 761 q 528 782 554 782 l 457 782 q 420 772 431 782 q 410 736 410 761 l 410 515 q 420 480 410 490 q 457 469 431 469 l 528 469 q 565 480 554 469 q 575 515 575 490 m 575 128 l 575 342 q 565 377 575 367 q 528 388 554 388 l 457 388 q 420 377 431 388 q 410 342 410 367 l 410 128 q 420 92 410 103 q 457 82 431 82 l 528 82 q 565 92 554 82 q 575 128 575 103 m 926 749 l 926 551 q 890 467 926 496 q 794 435 854 438 l 794 432 q 890 400 854 429 q 926 315 926 371 l 926 115 q 906 30 926 60 q 831 0 885 0 l 154 0 q 57 115 57 0 l 57 315 q 94 400 57 371 q 190 432 131 429 l 190 435 q 94 467 131 438 q 57 551 57 496 l 57 749 q 154 864 57 864 l 831 864 q 906 834 885 864 q 926 749 926 804 z "},"९":{"ha":1044,"x_min":76,"x_max":961,"o":"m 489 421 l 596 421 l 596 736 q 585 772 596 761 q 549 782 575 782 l 489 782 q 452 772 463 782 q 442 736 442 761 l 442 467 q 452 431 442 442 q 489 421 463 421 m 172 864 l 865 864 q 941 837 921 864 q 961 756 961 810 l 961 108 q 940 27 961 54 q 865 0 919 0 l 176 0 q 101 27 121 0 q 81 108 81 54 l 81 232 l 446 232 l 446 128 q 456 92 446 103 q 493 82 467 82 l 549 82 q 585 92 575 82 q 596 128 596 103 l 596 340 l 172 340 q 97 367 117 340 q 76 447 76 393 l 76 756 q 97 837 76 810 q 172 864 117 864 z "},"॰":{"ha":919,"x_min":76,"x_max":831,"o":"m 519 306 l 519 475 q 509 510 519 500 q 472 521 499 521 l 435 521 q 398 510 408 521 q 388 475 388 500 l 388 306 q 398 270 388 281 q 435 260 408 260 l 472 260 q 509 270 499 260 q 519 306 519 281 m 181 600 l 726 600 q 806 576 782 600 q 831 496 831 551 l 831 285 q 806 205 831 229 q 726 181 782 181 l 181 181 q 101 205 125 181 q 76 285 76 229 l 76 496 q 101 576 76 551 q 181 600 125 600 z "},"ॲ":{"ha":1511,"x_min":42,"x_max":1707,"o":"m 1539 864 l 1539 782 l 1435 782 l 1435 0 l 1068 0 l 1068 419 l 919 419 q 921 399 921 413 l 921 213 q 897 133 921 157 q 817 108 872 108 l 146 108 q 66 133 90 108 q 42 213 42 157 l 42 350 l 408 350 l 408 236 q 418 199 408 208 q 456 189 428 189 l 507 189 q 544 199 533 189 q 554 236 554 208 l 554 397 q 544 435 554 425 q 507 444 533 444 l 356 444 l 356 526 l 507 526 q 544 537 533 526 q 554 574 554 547 l 554 735 q 544 772 554 761 q 507 782 533 782 l 456 782 q 418 772 428 782 q 408 735 408 761 l 408 621 l 42 621 l 42 760 q 66 840 42 815 q 146 864 90 864 l 817 864 q 897 840 872 864 q 921 760 921 815 l 921 611 q 897 532 921 556 q 817 508 872 508 l 817 501 l 1068 501 l 1068 864 l 1539 864 m 1354 1183 l 1707 1183 l 1707 1056 q 1683 976 1707 1000 q 1603 951 1658 951 l 910 951 q 830 976 854 951 q 806 1056 806 1000 l 806 1183 l 1158 1183 l 1158 1079 q 1169 1044 1158 1054 q 1206 1033 1179 1033 l 1307 1033 q 1344 1044 1333 1033 q 1354 1079 1354 1054 l 1354 1183 z "},"ॽ":{"ha":1018,"x_min":118,"x_max":943,"o":"m 222 953 l 839 953 q 919 928 894 953 q 943 849 943 904 l 943 507 q 919 427 943 451 q 839 403 894 403 l 685 403 l 685 0 l 332 0 l 332 485 l 557 485 q 594 495 583 485 q 604 532 604 506 l 604 824 q 594 860 604 850 q 557 871 583 871 l 528 871 q 490 860 500 871 q 481 824 481 850 l 481 678 l 118 678 l 118 849 q 142 928 118 904 q 222 953 167 953 z "},"​":{"ha":0,"x_min":0,"x_max":0,"o":""},"‌":{"ha":0,"x_min":-33,"x_max":38,"o":"m -33 1103 l 38 1103 l 38 -481 l -33 -481 l -33 1103 z "},"‍":{"ha":0,"x_min":-207,"x_max":185,"o":"m 25 -481 l -46 -481 l -46 839 l -149 738 l -207 792 l -62 924 l -207 1057 l -150 1110 l -10 972 l 129 1110 l 185 1057 l 40 924 l 185 792 l 128 738 l 25 840 l 25 -481 z "},"–":{"ha":1189,"x_min":90,"x_max":892,"o":"m 90 364 l 90 446 l 892 446 l 892 364 l 90 364 z "},"—":{"ha":1467,"x_min":90,"x_max":1361,"o":"m 90 364 l 90 446 l 1361 446 l 1361 364 l 90 364 z "},"‘":{"ha":497,"x_min":78,"x_max":431,"o":"m 431 864 l 431 461 l 78 461 l 78 568 l 314 864 l 431 864 z "},"’":{"ha":497,"x_min":78,"x_max":431,"o":"m 78 461 l 78 864 l 431 864 l 431 757 l 194 461 l 78 461 z "},"‚":{"ha":493,"x_min":78,"x_max":431,"o":"m 78 -168 l 78 235 l 431 235 l 431 128 l 194 -168 l 78 -168 z "},"“":{"ha":908,"x_min":78,"x_max":860,"o":"m 431 864 l 431 461 l 78 461 l 78 568 l 314 864 l 431 864 m 860 864 l 860 461 l 507 461 l 507 568 l 743 864 l 860 864 z "},"”":{"ha":908,"x_min":78,"x_max":860,"o":"m 507 461 l 507 864 l 860 864 l 860 757 l 624 461 l 507 461 m 78 461 l 78 864 l 431 864 l 431 757 l 194 461 l 78 461 z "},"„":{"ha":908,"x_min":78,"x_max":860,"o":"m 507 -168 l 507 235 l 860 235 l 860 128 l 624 -168 l 507 -168 m 78 -168 l 78 235 l 431 235 l 431 128 l 194 -168 l 78 -168 z "},"†":{"ha":889,"x_min":19,"x_max":869,"o":"m 869 660 l 869 578 l 625 578 l 625 -196 l 272 -196 l 272 578 l 19 578 l 19 660 l 272 660 l 272 864 l 625 864 l 625 660 l 869 660 z "},"‡":{"ha":947,"x_min":47,"x_max":897,"o":"m 897 522 l 653 522 l 653 158 l 897 158 l 897 76 l 653 76 l 653 -196 l 300 -196 l 300 76 l 47 76 l 47 158 l 300 158 l 300 522 l 47 522 l 47 604 l 300 604 l 300 864 l 653 864 l 653 604 l 897 604 l 897 522 z "},"•":{"ha":775,"x_min":97,"x_max":678,"o":"m 183 572 q 225 601 183 572 q 388 631 268 631 q 592 572 507 631 q 678 433 678 514 q 592 292 678 351 q 388 233 506 233 q 183 292 269 233 q 97 433 97 351 q 183 572 97 514 z "},"…":{"ha":1472,"x_min":78,"x_max":1422,"o":"m 78 0 l 78 207 l 431 207 l 431 0 l 78 0 m 581 0 l 581 207 l 933 207 l 933 0 l 581 0 m 1069 0 l 1069 207 l 1422 207 l 1422 0 l 1069 0 z "},"‰":{"ha":2488,"x_min":47,"x_max":2431,"o":"m 1719 451 l 1719 69 q 1653 3 1719 3 l 1158 3 q 1092 69 1092 3 l 1092 451 q 1158 518 1092 518 l 1653 518 q 1719 451 1719 518 m 1465 92 l 1465 429 q 1460 449 1465 444 q 1439 454 1456 454 l 1372 454 q 1352 449 1357 454 q 1347 429 1347 444 l 1347 92 q 1352 72 1347 76 q 1372 67 1357 67 l 1439 67 q 1460 72 1456 67 q 1465 92 1465 76 m 1085 864 l 1333 864 l 678 0 l 433 0 l 1085 864 m 675 797 l 675 415 q 608 349 675 349 l 114 349 q 47 415 47 349 l 47 797 q 114 864 47 864 l 608 864 q 675 797 675 864 m 421 438 l 421 775 q 416 795 421 790 q 394 800 411 800 l 328 800 q 308 795 313 800 q 303 775 303 790 l 303 438 q 308 417 303 422 q 328 413 313 413 l 394 413 q 416 417 411 413 q 421 438 421 422 m 2431 451 l 2431 69 q 2364 3 2431 3 l 1869 3 q 1803 69 1803 3 l 1803 451 q 1869 518 1803 518 l 2364 518 q 2431 451 2431 518 m 2176 92 l 2176 429 q 2172 449 2176 444 q 2150 454 2167 454 l 2083 454 q 2063 449 2068 454 q 2058 429 2058 444 l 2058 92 q 2063 72 2058 76 q 2083 67 2068 67 l 2150 67 q 2172 72 2167 67 q 2176 92 2176 76 z "},"‹":{"ha":586,"x_min":29,"x_max":576,"o":"m 232 129 l 29 335 l 232 539 l 576 539 l 381 335 l 576 129 l 232 129 z "},"›":{"ha":586,"x_min":29,"x_max":576,"o":"m 576 335 l 374 129 l 29 129 l 225 335 l 29 539 l 374 539 l 576 335 z "},"⁄":{"ha":756,"x_min":11,"x_max":856,"o":"m 607 864 l 856 864 l 256 0 l 11 0 l 607 864 z "},"€":{"ha":1011,"x_min":22,"x_max":961,"o":"m 961 542 l 608 542 l 608 739 q 600 774 608 767 q 565 782 592 782 l 504 782 q 469 774 478 782 q 461 739 461 767 l 461 563 l 568 563 l 568 481 l 461 481 l 461 385 l 568 385 l 568 303 l 461 303 l 461 125 q 469 90 461 97 q 504 82 478 82 l 565 82 q 600 90 592 82 q 608 125 608 97 l 608 318 l 961 318 l 961 110 q 851 0 961 0 l 218 0 q 108 110 108 0 l 108 303 l 22 303 l 22 385 l 108 385 l 108 481 l 22 481 l 22 563 l 108 563 l 108 754 q 218 864 108 864 l 851 864 q 961 754 961 864 l 961 542 z "},"™":{"ha":1363,"x_min":39,"x_max":1306,"o":"m 39 769 l 39 864 l 515 864 l 515 769 l 393 769 l 393 368 l 160 368 l 160 769 l 39 769 m 1306 864 l 1306 368 l 1089 368 l 1089 651 l 1011 464 l 869 464 l 793 651 l 793 368 l 576 368 l 576 864 l 813 864 l 940 582 l 1069 864 l 1306 864 z "},"Ω":{"ha":1042,"x_min":17,"x_max":1021,"o":"m 1021 82 l 1021 0 l 549 0 l 549 82 l 558 82 q 594 90 586 82 q 601 125 601 97 l 601 739 q 594 774 601 767 q 558 782 586 782 l 485 782 q 450 774 458 782 q 442 739 442 767 l 442 125 q 450 90 442 97 q 485 82 458 82 l 493 82 l 493 0 l 17 0 l 17 82 l 135 82 q 88 179 88 107 l 88 754 q 197 864 88 864 l 844 864 q 954 754 954 864 l 954 179 q 907 82 954 107 l 1021 82 z "},"∏":{"ha":1056,"x_min":6,"x_max":972,"o":"m 972 864 l 972 782 l 971 782 l 971 0 l 638 0 l 638 782 l 453 782 l 453 110 q 343 0 453 0 l 6 0 l 6 82 l 76 82 q 111 90 103 82 q 119 125 119 97 l 119 864 l 972 864 z "},"−":{"ha":1304,"x_min":43,"x_max":961,"o":"m 43 332 l 43 528 l 961 528 l 961 332 l 43 332 z "},"∕":{"ha":756,"x_min":-42,"x_max":839,"o":"m 557 971 l 839 971 l 240 -189 l -42 -189 l 557 971 z "},"∙":{"ha":493,"x_min":78,"x_max":431,"o":"m 78 529 l 431 529 l 431 322 l 78 322 l 78 529 z "},"∞":{"ha":1363,"x_min":63,"x_max":1300,"o":"m 390 221 l 172 221 q 63 331 63 221 l 63 606 q 172 715 63 715 l 410 715 q 496 701 460 715 q 549 672 532 688 q 604 619 567 657 l 660 561 l 696 604 q 793 694 754 672 q 918 715 832 715 l 1190 715 q 1300 606 1300 715 l 1300 331 q 1190 221 1300 221 l 949 221 q 804 241 853 221 q 699 321 756 261 l 664 357 l 632 319 q 533 239 579 257 q 390 221 488 221 m 932 331 l 1004 331 q 1051 339 1042 331 q 1061 374 1061 347 l 1061 563 q 1051 597 1061 588 q 1004 606 1040 606 l 925 606 q 873 594 893 606 q 828 553 853 582 l 751 463 l 832 383 q 932 331 885 331 m 392 606 l 358 606 q 312 597 322 606 q 301 563 301 588 l 301 374 q 311 339 301 347 q 358 331 321 331 l 394 331 q 511 388 463 331 l 571 457 l 479 556 q 392 606 432 606 z "},"∫":{"ha":781,"x_min":64,"x_max":703,"o":"m 558 804 l 558 -86 q 449 -196 558 -196 l 64 -196 l 64 -114 l 165 -114 q 200 -106 192 -114 q 208 -71 208 -97 l 208 819 q 318 929 208 929 l 703 929 l 703 847 l 601 847 q 567 839 575 847 q 558 804 558 831 z "},"≈":{"ha":1150,"x_min":63,"x_max":1088,"o":"m 633 474 q 607 491 633 474 q 532 540 581 507 q 447 572 483 572 q 403 564 411 572 q 396 529 396 556 l 396 442 l 63 442 l 63 581 q 172 690 63 690 l 411 690 q 513 669 465 690 q 589 625 561 649 q 711 558 667 558 q 747 567 739 558 q 754 601 754 575 l 754 690 l 1088 690 l 1088 551 q 978 442 1088 442 l 739 442 q 633 474 685 442 m 633 169 q 607 185 633 169 q 532 234 581 201 q 447 267 483 267 q 403 258 411 267 q 396 224 396 250 l 396 136 l 63 136 l 63 275 q 172 385 63 385 l 411 385 q 513 364 465 385 q 589 319 561 343 q 711 253 667 253 q 747 261 739 253 q 754 296 754 269 l 754 385 l 1088 385 l 1088 246 q 978 136 1088 136 l 739 136 q 633 169 685 136 z "},"≠":{"ha":1043,"x_min":63,"x_max":981,"o":"m 981 486 l 644 486 l 557 374 l 981 374 l 981 178 l 403 178 l 346 106 l 188 106 l 244 178 l 63 178 l 63 374 l 399 374 l 486 486 l 63 486 l 63 682 l 640 682 l 697 754 l 856 754 l 799 682 l 981 682 l 981 486 z "},"≤":{"ha":1029,"x_min":49,"x_max":967,"o":"m 967 296 l 967 138 l 49 138 l 49 296 l 967 296 m 967 567 l 281 528 l 967 486 l 967 314 l 49 429 l 49 631 l 967 736 l 967 567 z "},"≥":{"ha":1029,"x_min":63,"x_max":981,"o":"m 63 138 l 63 296 l 981 296 l 981 138 l 63 138 m 749 528 l 63 567 l 63 736 l 981 631 l 981 429 l 63 314 l 63 486 l 749 528 z "},"◊":{"ha":1147,"x_min":56,"x_max":1092,"o":"m 1092 435 l 738 0 l 399 0 l 56 435 l 399 864 l 738 864 l 1092 435 m 751 435 l 567 682 l 397 435 l 567 182 l 751 435 z "},"◌":{"ha":586,"x_min":99,"x_max":479,"o":"m 190 210 l 190 108 q 124 136 150 108 q 99 210 99 164 l 190 210 m 99 263 l 99 364 l 190 364 l 190 263 l 99 263 m 99 418 l 99 519 l 190 519 l 190 418 l 99 418 m 190 572 l 99 572 q 124 647 99 619 q 190 674 149 674 l 190 572 m 388 108 l 388 210 l 479 210 q 454 138 479 168 q 388 108 429 108 m 388 263 l 388 364 l 479 364 l 479 263 l 388 263 m 388 418 l 388 519 l 479 519 l 479 418 l 388 418 m 388 572 l 388 674 q 479 572 479 674 l 388 572 m 243 572 l 243 674 l 335 674 l 335 572 l 243 572 m 243 108 l 243 210 l 335 210 l 335 108 l 243 108 z "},"":{"ha":979,"x_min":325,"x_max":653,"o":"m 325 -403 l 325 -62 l 653 -62 l 653 -179 l 426 -403 l 325 -403 z "},"ﬁ":{"ha":1021,"x_min":14,"x_max":950,"o":"m 944 674 l 944 0 l 611 0 l 611 592 l 447 592 l 447 0 l 114 0 l 114 592 l 14 592 l 14 674 l 114 674 l 114 819 q 224 929 114 929 l 544 929 l 544 847 l 490 847 q 456 839 464 847 q 447 804 447 831 l 447 674 l 944 674 m 606 929 l 950 929 l 950 754 l 606 754 l 606 929 z "},"ﬂ":{"ha":1028,"x_min":14,"x_max":944,"o":"m 611 929 l 944 929 l 944 0 l 611 0 l 611 592 l 447 592 l 447 0 l 114 0 l 114 592 l 14 592 l 14 674 l 114 674 l 114 819 q 224 929 114 929 l 551 929 l 551 847 l 490 847 q 456 839 464 847 q 447 804 447 831 l 447 674 l 611 674 l 611 929 z "}}}
